<?xml version="1.0" encoding="utf-8"?>
<!-- Generator: Adobe Illustrator 17.1.0, SVG Export Plug-In . SVG Version: 6.00 Build 0)  -->
<!DOCTYPE svg PUBLIC "-//W3C//DTD SVG 1.1//EN" "http://www.w3.org/Graphics/SVG/1.1/DTD/svg11.dtd">
<svg version="1.1" id="Layer_1" xmlns="http://www.w3.org/2000/svg" xmlns:xlink="http://www.w3.org/1999/xlink" x="0px" y="0px"
	 viewBox="0 0 179.3 158.7" style="enable-background:new 0 0 179.3 158.7;" xml:space="preserve">
<g>
	<path style="fill:#FFFFFF;" d="M168,65.7h-27h-15.3c-1.7-14.9-13.3-26.8-28-29.1V15.2c0-2.8-2.3-5.1-5.1-5.1h-0.1
		c-2.8,0-5.1,2.3-5.1,5.1v21.4c-14.8,2.3-26.3,14.2-28,29.1H39.9h-27c-2.6,0-4.6,2.1-4.6,4.6v66.6c0,2.6,2.1,4.6,4.6,4.6h34.8h28
		v-31.1c0-2.4,2-4.4,4.4-4.4h25.4c2.4,0,4.4,2,4.4,4.4v31.1h23.4H168c2.6,0,4.6-2.1,4.6-4.6V70.4C172.7,67.8,170.6,65.7,168,65.7z"
		/>
	<rect x="104.7" y="15.1" style="fill:#FFFFFF;" width="25.8" height="14.9"/>
</g>
</svg>
