<?xml version="1.0" encoding="utf-8"?>
<!-- Generator: Adobe Illustrator 17.1.0, SVG Export Plug-In . SVG Version: 6.00 Build 0)  -->
<!DOCTYPE svg PUBLIC "-//W3C//DTD SVG 1.1//EN" "http://www.w3.org/Graphics/SVG/1.1/DTD/svg11.dtd">
<svg version="1.1" id="Layer_1" xmlns="http://www.w3.org/2000/svg" xmlns:xlink="http://www.w3.org/1999/xlink" x="0px" y="0px"
	 viewBox="0 0 179.3 158.7" style="enable-background:new 0 0 179.3 158.7;" xml:space="preserve">
<g>
	<path style="fill:#FFFFFF;" d="M50.9,98.7H13.8c-2.8,0-5.1,2.3-5.1,5.1v25.7c0,2.8,2.3,5.1,5.1,5.1h37.1c2.8,0,5.1-2.3,5.1-5.1
		v-25.7C56,101,53.7,98.7,50.9,98.7z"/>
	<path style="fill:#FFFFFF;" d="M109.3,69.2H72.2c-2.8,0-5.1,2.3-5.1,5.1v55.2c0,2.8,2.3,5.1,5.1,5.1h37.1c2.8,0,5.1-2.3,5.1-5.1
		V74.3C114.5,71.5,112.2,69.2,109.3,69.2z"/>
	<path style="fill:#FFFFFF;" d="M167.6,16.6h-37.1c-2.8,0-5.1,2.3-5.1,5.1v107.8c0,2.8,2.3,5.1,5.1,5.1h37.1c2.8,0,5.1-2.3,5.1-5.1
		V21.7C172.7,18.9,170.4,16.6,167.6,16.6z"/>
</g>
</svg>
