<?xml version="1.0" encoding="utf-8"?>
<!-- Generator: Adobe Illustrator 17.1.0, SVG Export Plug-In . SVG Version: 6.00 Build 0)  -->
<!DOCTYPE svg PUBLIC "-//W3C//DTD SVG 1.1//EN" "http://www.w3.org/Graphics/SVG/1.1/DTD/svg11.dtd">
<svg version="1.1" id="Layer_1" xmlns="http://www.w3.org/2000/svg" xmlns:xlink="http://www.w3.org/1999/xlink" x="0px" y="0px"
	 viewBox="0 0 497.7 273.3" enable-background="new 0 0 497.7 273.3" xml:space="preserve">
<g>
	<g>
		<g>
			<path fill="#231F20" d="M162.2,131.8c0,0,0,0.1,0,0.1C162.2,131.8,162.2,131.8,162.2,131.8C162.2,131.8,162.2,131.8,162.2,131.8z
				"/>
		</g>
		<g>
			<path fill="#231F20" d="M172.4,130.2c0,0.5,0,1,0,1.4C172.4,131.2,172.4,130.7,172.4,130.2z"/>
		</g>
		<g>
			<path fill="#231F20" d="M162.5,132.9c0-0.1-0.1-0.2-0.1-0.3C162.4,132.6,162.5,132.7,162.5,132.9z"/>
		</g>
		<g>
			<path fill="#231F20" d="M162.4,132.5c-0.1-0.2-0.1-0.4-0.2-0.6C162.3,132.1,162.3,132.3,162.4,132.5z"/>
		</g>
		<g>
			<path fill="#231F20" d="M172.4,130.2C172.4,130.2,172.4,130.2,172.4,130.2C172.4,130.2,172.4,130.2,172.4,130.2z"/>
		</g>
		<g>
			<path fill="#231F20" d="M172.4,131.6C172.4,131.6,172.4,131.7,172.4,131.6C172.4,131.7,172.4,131.6,172.4,131.6z"/>
		</g>
		<g>
			<g>
				<path fill="#FFFFFF" d="M372.2,148.2c-1.1-2.1-3-2.8-3.9-3c-0.3-0.1-0.5-0.1-0.7-0.1c-6.8-1-14.8,0.8-23.7,5.4
					c-5,2.6-9.7,5.7-13.6,8.7c2.4-6.6,4.4-11.1,5.3-13.1c0.4-0.8,0.4-1.8,0-2.6c-0.4-0.8-1.1-1.4-2-1.6c-0.2,0-0.4-0.1-0.6-0.1
					c-13.2-0.5-22.4,3.6-25,4.8c-0.8,0.4-1.4,1.1-1.6,2c-0.5,1.8-1.9,7.7-3.2,15.8c-2.4,2-6.3,4-7.5,4.6c-0.2,0.1-0.3,0.2-0.3,0.2
					c-0.6-7.9-1.6-12.2-2.1-14c-0.2-0.8-0.4-1.1-0.4-1.1l0,0c-1-2.8-2.1-5.6-3.6-8.4c-0.7-1.3-1.8-2.3-3.2-2.9
					c-0.9-0.3-1.9-0.5-2.8-0.4l-12.1,1.4c-1.8,0.2-3.4,1.3-4.3,2.8c-0.9,1.5-2.2,4.1-3.1,7.1c-1.3-3-3.7-5.9-7.1-8.7
					c-0.2-0.2-0.4-0.3-0.6-0.4c-0.2-0.1-0.3-0.2-0.5-0.2c-1.3-0.5-2.7-0.3-3.7,0.6c-2.3,1.8-8.3,7-13.6,16.2c-4,7-6.7,14.8-8.2,23.2
					c-0.1,0.6-0.9,6.5-0.7,13.1v0c0,2.7,0.2,5.4,0.7,8c-1.6-2.1-2.8-3.7-3-3.9c-0.9-1.2-2-1.9-3.2-2c-2.6-0.3-4.5,2.2-5.4,4.4
					c-2,4.8-4.4,9.2-7.3,13.2v0c-17.1,23-32,14.9-32,14.9c-22.2-14.7-8.2-45.3-8.1-45.6c3.7-8,7.9-14.7,12.5-19.8
					c4.3-4.9,8.9-8.4,13.7-10.4c0,0,0,0,0,0c4.3-1.9,7.3-1.8,7.8-1.8c1.2,0.3,2,1.6,2.4,2.7c0.5,1.2,0.6,2.4,0.6,2.5
					c0.4,4.4-2.4,6.3-4.8,7.2c-0.9,0.3-1.6,1.1-1.6,2.1c-0.1,0.9,0.5,1.8,1.3,2.2c11.4-0.5,18.7-4.2,23.2-8.2c3.1-3,4.5-6,4.9-8.9
					c0.1-0.8-0.2-1.3-0.3-1.5c-4.7-9-12.6-16.7-16.1-19.9c-0.3-0.2-1.2-0.9-2.8-1.3c-6.2-1-12.6,1.6-12.6,1.6
					c-44.1,17.9-47.6,56.9-47.8,58.8c-0.3,6.1,0.2,12.2,1.4,18.2c2.8,13.8,8.7,23,9.9,24.8l0,0c1.1,1.9,5.4,8.3,13,12.7
					c4.1,2.4,8.3,3.8,12.2,4.4l0,0c4.3,0.5,7.3-0.2,8.7-0.6c10.7-3.7,20-9.8,27.6-18.2c6.1-6.8,9.4-13.2,10.5-15.6
					c0.1-0.3,0.2-0.6,0.3-0.9c1,1.1,2.1,2.1,3.4,3.1c0.3,0.2,0.6,0.4,1,0.6c0.9,0.5,1.9,1,2.9,1.4c0.1,0.1,0.3,0.1,0.4,0.2
					c0.4,0.1,0.8,0.3,1.2,0.4l0.2,0.1c1.6,0.5,3.2,1,4.8,0.9c3.4-0.2,6.4-0.6,10-1.9c2.5-0.9,5.2-2.2,8.5-4.2c0,0,0,0,0,0
					c0.2-0.1,0.5-0.3,0.7-0.4c2.7-1.7,5.2-3.7,7.3-5.6c1.4-1.2,2.7-2.4,3.7-3.6c0.9-0.9,1.4-1.5,1.6-1.7c0,0,0,0,0,0c0,0,0,0,0,0
					c0.1-0.1,0.1-0.2,0.2-0.2l0,0c0.5-0.6,0.9-1.2,1.4-1.8c3.7-5.2,6.4-10.7,8.2-15.2c2.1-5.2,3-9,3-9s1.8-0.6,3.5-1.7
					c1.5-0.9,2.9-2.1,4.5-3.6c-0.9,7.6-1.3,14.8-1.1,21.4c0.2,8.9,1.2,16.9,3.2,23.6c0.3,1.1,1.2,1.9,2.2,2.1
					c0.6,0.1,1.2,0.1,1.8-0.1l8.6-3.2c1.1-0.4,2-1.5,2-2.7c-0.1-10.6,2.4-24.2,6.2-37.9c14.8-11.7,20.5-14.3,22.3-14.8
					c0.1,0,0.3,0.1,0.3,0.4c0.5,6-3.1,25.6-5.4,38.6c-1.2,6.6-2.1,11.8-2.4,14.1c-0.2,1.4,0.8,2.8,2.2,3.1h0c0.4,0.1,0.8,0.1,1.2,0
					c3.1-0.6,6.6-2.5,7.9-3.3c0.6-0.3,1-0.8,1.3-1.5c6.9-16.6,19.7-55.7,19.8-56.1C373.5,153.8,373.5,150.6,372.2,148.2z M278,189.2
					c-0.1,0.2-0.2,0.4-0.3,0.6c-1,2.2-2.3,4.6-3.9,7.2c0,0,0,0,0,0c-2.6,3.9-6.1,8-10.8,11.4c-3.4,2-9.7,4.7-12.4,3.7
					c0,0-0.1,0-0.1,0l0,0c0,0,0,0-0.1,0c0,0-0.1,0-0.3-0.1c-1.5-0.6-2.7-1.5-3.5-2.7l0,0c-1.6-2.3-2.1-5.6-2-9.4
					c0.7-14,7-23.1,12.3-28.3c1.6-1.6,3.1-2.8,4.4-3.7c0.9-0.6,1.6-1.1,2.2-1.5c0.3,0.9,0.6,1.8,1,2.7c1.4,2.9,3.6,5.5,6.6,7.7
					c0,0,0,0,0,0c0.3,0.2,2.7,1.9,6,3.2c0.9,0.3,1.7,0.6,2.5,0.8c0.3,0.1,0.7,0.2,1,0.2C280.2,183,279.4,185.9,278,189.2z
					 M282.8,172.5c0,0-0.5-0.2-1.2-0.5c-0.6-0.3-1.4-0.7-2-1.2c-0.3-0.3-0.6-0.7-0.9-1c-1.4-2-1.8-4.4-1.8-4.9
					c0-2.3,0.7-4.4,2.1-6.5c0.8-1.1,1.8-2,2.5-2.7C281.5,155.7,284.5,161.8,282.8,172.5z"/>
			</g>
			<g>
				<path fill="#FFFFFF" d="M450.2,68c-8.3-2.2-11.6-2-17.3-1.7c-2.6,0.1-4.8,0.4-6.6,0.6c0,0-0.1,0-0.3,0c-1.2,0.2-5.6,1.6-9.3,9.4
					c-0.2,0.6-0.5,1.1-0.8,1.7l0,0c-4.9,11.1-11.5,29.2-19.9,52.9c-6.4,18.2-12.2,35.3-14.6,42.7c-0.6,2-1.3,6.2,2.2,6.6
					c3.7,0.3,6.7,0.1,8.5-0.1c1.8-0.1,3.5-1.9,4.6-3.3c11-18.9,42.9-77.3,54.1-97.7C455.2,69.7,450.4,68.1,450.2,68z"/>
			</g>
			<g>
				<path fill="#FFFFFF" d="M386.2,198.9c-2.9-2.8-7-1.8-7-1.8c-4,1.2-9.3,3.7-12.4,9.3c-0.8,1.4-0.9,3.1-0.3,4.6
					c0.6,1.6,2.1,4.6,4.9,7.6c0.7,0.7,1.5,1.2,2.4,1.5l0,0c0.6,0.2,1.3,0.2,2,0.2c1.4-0.1,3.9-0.5,6.6-1.5h0
					c0.7-0.3,1.4-0.6,2.1-0.9c2.7-1.8,3.9-5.5,4.5-8.4C390.3,202.6,386.2,198.9,386.2,198.9z"/>
			</g>
		</g>
		<g>
			<g>
				<path fill="#7CDBF8" d="M402.9,68.4c-0.9-0.8-1.8-1.1-2.4-1.2c-0.2,0-0.3-0.1-0.4-0.1c-5.2-0.7-11.3,0.8-18.1,4.4
					c-2.2,1.2-4.3,2.5-6.3,3.9c0.3-2.1,0.1-3.8-0.7-5.1c-0.7-1.2-2-2.1-3.4-2.4c-0.2,0-0.3-0.1-0.4-0.1c-5.2-0.7-11.3,0.8-18.1,4.4
					c-2.4,1.3-4.6,2.7-6.7,4.2c1.2-3.5,2.2-6.1,2.9-7.6c0.4-0.9,0.3-1.8-0.1-2.7c-0.4-0.8-1.2-1.4-2.1-1.6c-0.2,0-0.4-0.1-0.6-0.1
					c-9.4-0.1-16.1,1.9-18.6,3.1c-1.3,0.6-2.2,1.7-2.5,3.1c-0.5,2.2-1.9,9-2.9,16.4c-0.1,1-0.2,2.1-0.4,3.1
					c-0.7,6.7-0.9,12.9-0.7,18.7c-3.9,3.8-6.8,6.1-8.7,7.6c-0.3,0.2-0.6,0-0.6-0.3c1.2-26.1,6-45.9,7-49.7c0.2-0.6,0-1.3-0.3-1.9
					c-0.4-0.5-0.9-0.9-1.6-1c-0.2,0-0.4,0-0.5,0c0,0,0,0,0,0c-6.8,0.4-12.3,2.4-15,3.7c-0.6,0.3-1.2,0.7-1.7,1.2
					c-0.8-0.8-1.8-1.5-2.8-1.8c-0.2-0.1-0.5-0.1-0.7-0.2c0,0-0.1,0-0.1,0c-3.4-0.8-7.1-0.4-10.3,1.1c-1.7,0.8-3.3,1.7-4.9,2.6
					c-4.5,2.8-18.4,12.9-23.2,33.6c-0.4-1.5-0.7-2.3-0.7-2.4c0-0.1-0.1-0.2-0.2-0.4c-0.5-0.7-1-1.1-1.7-1.4c-2.7-1-5,1.9-5.8,2.8
					c-1.2,1.5-2.2,3.1-2.2,3.1c0,0,0,0,0,0c-4.4,8-10.4,12.8-10.9,13.2c-4.3,2.9-8.2,2.4-10.8,1.4c-1.1-0.4-1.8-0.8-1.9-0.9
					c-3.6-2.9-3.7-9.6-2.6-14.6c0.8-3.7,2.1-7.1,2.9-9.1c0.6,0.3,1.8,0.8,2.4,1c11.6,4.3,22.1-0.7,22.8-1c6.4-3,9.8-7.2,11.4-10.2
					l0.1-0.1c1.9-3.4,1.3-7.6-1.4-10.5l-9.4-9.8c-0.7-0.7-1.6-1.3-2.6-1.7c-1.1-0.4-2.3-0.5-3.4-0.4l0,0c-5.3,0.8-10.2,2.4-14.6,4.7
					c-4.2,2.2-7.8,5.1-11,8.6c-4.4,4.2-6.2,3.2-6.2,3.2c-0.7-0.5,0.1-2.1,0.3-2.6c2-4.7,2.4-8.4,1.2-11c-0.9-2.1-2.6-2.8-3.5-3.1
					c-0.3-0.1-0.5-0.1-0.6-0.2c-4.1-1.2-9.6,2.3-17,10.7c-1.8,2-3.5,4.2-5.1,6.3c1.3-4.1,2.5-7.7,2.9-8.7c0.3-0.9,0.2-1.8-0.2-2.6
					c-0.5-0.8-1.3-1.3-2.2-1.5c-0.2,0-0.4,0-0.6,0c-0.2,0-0.5,0-0.7,0c-0.3-0.1-0.6-0.2-0.9-0.2c-0.2,0-0.4,0-0.6,0
					c-9.4,0.8-15.8,3.6-18.2,5c-1.2,0.7-2,2-2.2,3.4c-0.3,2.2-1,9.1-1.1,16.6c0,1,0,2.1,0,3.1c0,2,0,3.9,0.1,5.8
					c-9.6-27.2-38.4-45.9-48-51.6c-0.4-0.3-0.7-0.5-1-0.7c-0.7-0.5-1.4-0.8-2.2-1c-1.3-0.4-2.6-0.4-3.9,0c-7,1.9-14,5.9-18.7,8.9
					c-2.4,1.6-4.9,3.3-7.3,5.1c-2.2,1.6-3.7,4-4.3,6.6c-2.5,10.5-3.8,20.7-4,30.4c-0.2,8.6,0.6,16.9,2.2,24.5
					c1.9,8.9,7,25.1,8.6,28.1c0.5,0.9,1.4,1.6,2.4,1.9c0.7,0.2,1.5,0.2,2.2,0c1.5-0.4,2.7-1,3.6-1.9c1.2-1,1.7-2.5,1.4-3.8
					c-2.6-13.8-3.2-33.6-2.4-44.1c0.7-8.4,2-16,3.9-22.5c3.2-10.9,6.7-14.9,6.8-15c0,0,0,0,0,0c2.3-2.7,4-3.4,4.1-3.4
					c0.4-0.1,0.8-0.2,1.1-0.1c0,0,0.1,0,0.1,0c0.1,0,0.1,0,0.2,0.1c2.1,0.7,15.5,6.6,28.4,35.8c0,0,12.4,22.5-6.9,41.7
					c-0.6,0.7-1.2,1.3-1.9,1.9c-11.6,9.9-23.4,16.3-35,19.1c-10.8,2.6-18.6,1.4-22.3,0.5c-0.2-0.1-0.5-0.1-0.7-0.2
					c-0.9-0.2-1.4-0.5-1.5-0.5c-0.1-0.1-1.8-0.9-3.2-2.6c-1.9-2.4-2.6-5.4-1.9-9c0.6-3.4,3.5-9.1,4.1-10c0.3-0.5,0.4-1.1,0.2-1.7
					c-0.6-1.8-2.7-2.7-3.6-3c-0.5-0.2-1-0.2-1.4,0.1c-8.6,4-12.9,7.2-15.1,9.2c-2.3,2.1-2.9,3.6-3,4.1c-0.9,2.8-0.7,5.7,0.4,8.7
					c0.9,2.3,2.4,4.6,4.4,6.8c3.4,3.7,7.2,6,7.4,6.1c0,0,0,0,0,0c2.6,1.4,5.4,2.6,8.4,3.5c0.4,0.1,0.9,0.2,1.3,0.4c0,0,0,0,0,0
					c6.4,1.6,13.8,2.1,22,1.3c6.5-0.6,13.5-2,20.8-4.1c1.5-0.4,3-0.9,4.5-1.4c0,0,0,0,0,0c2.2-0.7,4.3-1.4,6.3-2.1
					c1.4-0.5,2.7-1,3.9-1.5c32.1-13.3,39.9-34.3,41.8-42.7c0.6,3,1.4,5.9,2.3,8.6c0.3,0.9,0.9,1.5,1.7,1.9c0.5,0.4,1.2,0.7,1.9,0.8
					c0.7,0.1,1.3-0.1,1.9-0.4l5-2.6c1.6-0.8,2.6-2.5,2.4-4.2c-0.4-4.1-0.6-7.7-0.7-10.9c0.1-12,1.3-18,1.6-19.3
					c9.4-12,14.6-12.3,15-12.2c0.1,0,0.2,0.1,0.2,0.1c0,0.1,0,0.1,0.1,0.1c0.7,1.1,0.5,3.3,0.3,4c0,0,0,0,0,0.1
					c-0.6,4,0.9,5,1.7,5.2c0,0,0.1,0,0.1,0c1.1,0.3,2.3,0.8,11.3-6.3l-0.3,0.6c-5.6,14.4-4.3,25.5-3.7,27.5
					c1.9,6.3,5.6,9.5,10.4,12.4c1,0.6,2.2,1.1,3,1.4c0.3,0.1,0.5,0.2,0.6,0.2c5.5,2,12.1,2,19.1-0.2c5.2-1.6,9.6-4.9,9.7-5
					c4.7-3.7,7.3-6.6,8.7-8.6c0.6,3.3,2.1,6.3,5,8.4c0.3,0.2,1.4,1.1,3.3,1.8h0c2.1,0.8,5.6,1.6,10.1,0.9c4.9-0.8,10.1-3.1,15.5-6.9
					c1.6-1,3.6-2.3,6.1-3.9c0.7,6,1.5,10.7,2.2,12.8c0.3,1.1,1.2,1.9,2.4,2.1c0.3,0.1,0.7,0.1,1,0c3.3-0.5,7.8-3.4,13.8-8.7
					c1.6-1.4,3-2.7,4.2-3.9c0.5,3.3,1.1,6.4,1.9,9.2c0.4,1.3,1.4,2.2,2.7,2.5c0.7,0.1,1.3,0.1,2-0.2l5.2-2c1.6-0.6,2.7-2.2,2.9-3.9
					c0.6-10,2.2-20.1,4.6-30.1c0.1-0.6,0.3-1.2,0.5-1.8c6.7-5.4,10.5-7.7,12.6-8.8c0.6-0.3,1.3,0.1,1.3,0.8c0,2.2-0.3,7.2-1.6,17.8
					c-1.1,9.1-2.4,18.7-2.9,22.4c-0.2,1.6,0.8,3.2,2.4,3.5h0c0.5,0.1,1.1,0.1,1.6-0.1c2-0.7,3.1-1.3,3.9-1.8
					c0.1-0.1,0.3-0.1,0.4-0.2c0.9-0.5,1.6-1.3,1.9-2.3c2.5-7.6,6.9-22.2,10-32.6c5.8-4.5,9.3-6.8,11.3-7.9c0.7-0.4,1.6,0.2,1.5,1.1
					c-1.4,10.3-9.4,41.9-9.5,42.2c-0.2,0.6,0,1.2,0.4,1.7c0.3,0.3,0.7,0.6,1.1,0.7c0.2,0,0.3,0,0.5,0c3.1-0.2,7.2-2.6,7.6-2.9
					c0.3-0.2,0.6-0.5,0.7-0.8c7.4-15.9,13.3-31.4,16.6-40.7c2-5.6,3.1-9.8,3-11.3C404.6,70.2,403.7,69,402.9,68.4z M243.8,76.5
					c0.1,0.2,0.9,0.7,1.2,1.2c0.5,0.9,0.4,2.3-0.2,3.6c-0.9,2-2.8,3.6-5.2,4.3c-1.4,0.4-5.1-0.1-7.8-0.6
					C234.1,82.6,238.3,78.8,243.8,76.5z M282.7,115.7c-0.2,0-1.2,0.1-2.4-0.3c-0.5-0.2-1-0.5-1.4-0.9c-0.1-0.1-1.3-1.4-2-4.1
					c-1.4-5.3,0.2-11.5,1.8-15.7c0.1-0.3,3-7.5,7.5-12.5c3.1-3.2,6.4-4.5,8.1-5c0.8-0.2,1.7-0.1,2.5,0.1c0.1,0,0.4,0.1,0.7,0.3
					c-0.9,10.9-0.5,21.8,0.1,29.3c0,0.5,0.1,1.1,0.1,1.6C290.9,112.7,285.5,115.2,282.7,115.7z"/>
			</g>
			<g>
				<path fill="#7CDBF8" d="M219.4,74c0,0,0.1,0,0.1,0C219.5,73.9,219.5,73.9,219.4,74z"/>
			</g>
		</g>
	</g>
	<g>
		<path fill="#FFFFFF" d="M84,250.5c-0.6,0-1.3-0.3-1.7-0.7c-0.9-0.9-0.8-2.4,0.1-3.3c6.3-5.9,12.4-12.2,18.2-18.7
			c0.9-1,2.3-1.1,3.3-0.2c1,0.9,1.1,2.3,0.2,3.3c-5.8,6.6-12,13-18.5,19C85.2,250.3,84.6,250.5,84,250.5z"/>
	</g>
	<g>
		<path fill="#FFFFFF" d="M26.5,204.4c-0.8,0-1.6-0.4-2-1.2c-0.7-1.1-0.3-2.6,0.9-3.2c6.4-3.7,12.1-8.3,17.1-13.8
			c0.9-1,2.4-1,3.3-0.2c1,0.9,1,2.4,0.2,3.3c-5.3,5.8-11.4,10.8-18.2,14.7C27.3,204.3,26.9,204.4,26.5,204.4z"/>
	</g>
	<g>
		<path fill="#FFFFFF" d="M8.5,148.5c-2.1,0-4.2-0.1-6.3-0.2c-1.3-0.1-2.3-1.2-2.2-2.5c0.1-1.3,1.2-2.3,2.5-2.2
			c5.6,0.3,11.3,0.2,16.8-0.4c1.3-0.2,2.5,0.8,2.6,2.1c0.1,1.3-0.8,2.5-2.1,2.6C16.1,148.3,12.3,148.5,8.5,148.5z"/>
	</g>
	<g>
		<path fill="#FFFFFF" d="M36.9,100.7c-0.4,0-0.7-0.1-1.1-0.3c-7.6-3.8-15-8.2-22.1-12.9c-1.1-0.7-1.4-2.2-0.7-3.3
			c0.7-1.1,2.2-1.4,3.3-0.7c6.9,4.6,14.2,8.8,21.6,12.6c1.2,0.6,1.6,2,1,3.2C38.6,100.3,37.8,100.7,36.9,100.7z"/>
	</g>
	<g>
		<path fill="#FFFFFF" d="M68,50.3c-0.7,0-1.4-0.3-1.8-0.9C61.8,44.1,57,39,52,34.3c-0.9-0.9-1-2.4-0.1-3.3c0.9-0.9,2.4-1,3.3-0.1
			c5.2,4.9,10.1,10.1,14.6,15.6c0.8,1,0.7,2.5-0.3,3.3C69,50.2,68.5,50.3,68,50.3z"/>
	</g>
	<g>
		<path fill="#FFFFFF" d="M104.5,24c-0.2,0-0.4,0-0.6-0.1c-1-0.3-1.8-1.2-1.8-2.3c0-1.4,0-2.8,0-4.2c0-0.2,0-0.5,0-0.7
			c-1.7,0-3.4,0.2-5.1,0.6c-1.1,0.2-2.2-0.4-2.6-1.5c-0.4-1.1,0-2.3,1-2.9l6.7-4c-0.1-2.1-0.3-4-0.5-5.8c-0.1-1,0.4-2,1.3-2.4
			c0.9-0.5,2-0.3,2.7,0.4c1.2,1.2,2.4,2.4,3.5,3.6l7.3-4.4c1-0.6,2.3-0.4,3,0.5c0.7,0.9,0.7,2.2,0,3c-1.9,2.2-3.6,4.5-5.3,6.8
			c1.2,1.6,2.4,3.2,3.5,4.8c0.6,0.9,0.5,2-0.1,2.8c-0.7,0.8-1.7,1.1-2.7,0.7c-1.6-0.7-3.3-1.2-5.1-1.6c-1,1.7-2,3.5-3,5.3
			C106.1,23.5,105.3,24,104.5,24z M106.8,12.2c0.1,0,0.3,0,0.4,0c0.3-0.5,0.6-0.9,0.9-1.4c0,0,0-0.1-0.1-0.1l-1.2,0.7
			C106.8,11.8,106.8,12,106.8,12.2z"/>
	</g>
	<g>
		<path fill="#FFFFFF" d="M175.1,53.6c-0.7,0-1.4-0.3-1.9-0.9c-3.8-4.9-6.7-10.4-8.6-16.3c-0.4-1.2,0.3-2.6,1.5-3
			c1.2-0.4,2.6,0.3,3,1.5c1.7,5.4,4.4,10.4,7.9,14.9c0.8,1,0.6,2.5-0.4,3.3C176.1,53.5,175.6,53.6,175.1,53.6z"/>
	</g>
	<g>
		<path fill="#FFFFFF" d="M252.1,53.8c-1.2,0-2.2-0.9-2.3-2.1c-0.7-6.7-0.9-13.5-0.6-20.2c0.1-1.3,1.1-2.3,2.5-2.2
			c1.3,0.1,2.3,1.2,2.2,2.5c-0.3,6.5-0.1,13,0.6,19.5c0.1,1.3-0.8,2.4-2.1,2.6C252.3,53.7,252.2,53.8,252.1,53.8z"/>
	</g>
	<g>
		<path fill="#FFFFFF" d="M329.4,48c-0.3,0-0.6-0.1-0.9-0.2c-1.2-0.5-1.8-1.9-1.3-3.1l7-17.2c0.5-1.2,1.9-1.8,3.1-1.3
			c1.2,0.5,1.8,1.9,1.3,3.1l-7,17.2C331.2,47.4,330.3,48,329.4,48z"/>
	</g>
	<g>
		<path fill="#FFFFFF" d="M389.5,55.2c-0.5,0-1.1-0.2-1.5-0.6c-1-0.8-1.1-2.3-0.3-3.3c3.9-4.6,7.7-9.4,11.2-14.2
			c0.8-1.1,2.2-1.3,3.3-0.5c1,0.8,1.3,2.2,0.5,3.3c-3.6,5-7.5,9.8-11.4,14.5C390.8,54.9,390.1,55.2,389.5,55.2z"/>
	</g>
	<g>
		<path fill="#FFFFFF" d="M469.1,84.6c-1,0-1.9-0.6-2.2-1.7c-0.4-1.2,0.3-2.6,1.5-2.9l26.2-8.2c1.2-0.4,2.6,0.3,2.9,1.5
			c0.4,1.2-0.3,2.6-1.5,2.9l-26.2,8.2C469.6,84.6,469.3,84.6,469.1,84.6z"/>
	</g>
	<g>
		<path fill="#FFFFFF" d="M488.6,143.8c-0.7,0-1.4-0.3-1.9-0.9c-1.3-1.7-2.6-3.3-4-4.8c-2.2,1.2-4.3,2.6-6.8,4.1
			c-1,0.6-2.3,0.4-3.1-0.5c-0.7-0.9-0.7-2.2,0.1-3.1c1.6-1.7,3.1-3.4,4.4-5.3c-1.1-0.5-2.4-1-3.1-1.3c-1.3-0.5-2.6-1-2.6-2.7
			c0-0.7,0.3-1.4,0.9-1.8c0.5-0.4,1.3-0.6,2-0.5c2.1,0.4,4.3,0.7,6.5,1c1.2-2,2.2-4.1,3.1-6.3c0.4-1,1.5-1.6,2.6-1.4
			c1.1,0.2,1.9,1.2,1.9,2.3c0,1.9,0.1,3.7,0.3,5.6c1.9-0.1,3.8-0.2,5.7-0.5c1.2-0.2,2.3,0.6,2.6,1.8c0.3,1.2-0.4,2.4-1.6,2.8
			c-1.9,0.6-3.9,1.4-5.9,2.3c0.4,2.1,0.8,4.2,1.4,6.3c0.3,1.1-0.2,2.2-1.2,2.7C489.3,143.8,489,143.8,488.6,143.8z"/>
	</g>
	<g>
		<path fill="#FFFFFF" d="M468.9,177.2c-0.6,0-1.2-0.2-1.6-0.7c-3.6-3.5-14-10-20.5-11.5c-1.3-0.3-2-1.6-1.8-2.8
			c0.3-1.3,1.6-2.1,2.8-1.8c7.6,1.8,18.7,8.9,22.7,12.8c0.9,0.9,0.9,2.4,0,3.3C470.1,176.9,469.5,177.2,468.9,177.2z"/>
	</g>
	<g>
		<path fill="#FFFFFF" d="M427.9,215.6C427.9,215.6,427.9,215.6,427.9,215.6c-1.6,0-2.5-1.2-2.8-1.7c-3.7-5.1-8.6-9.5-14-12.7
			c-1.1-0.7-1.5-2.1-0.8-3.2s2.1-1.5,3.2-0.8c5.6,3.3,10.6,7.8,14.6,12.9c0.3,0,0.7,0,1,0.1c1.2,0.5,1.9,1.7,1.7,3
			C430.4,214.6,429.2,215.6,427.9,215.6z"/>
	</g>
	<g>
		<path fill="#FFFFFF" d="M22.8,273.3c-0.5,0-1-0.1-1.4-0.4c-0.9-0.7-1.2-1.9-0.8-2.9c0.7-1.5,1.3-2.9,2-4.4
			c-0.6-0.4-1.3-0.8-1.9-1.1c-0.9-0.5-1.4-1.6-1.1-2.6c0.2-1,1.1-1.8,2.2-1.8c1.2,0,2.3-0.1,3.5-0.1c1.1-2.3,2.2-4.5,3.3-6.8
			c0.5-0.9,1.5-1.4,2.5-1.3c1,0.2,1.8,1,2,2c0.3,1.8,0.6,3.6,0.9,5.4c1.4-0.2,2.6-0.4,3.9-0.6c1.2-0.2,2.3,0.5,2.7,1.6
			c0.4,1.2-0.2,2.4-1.3,2.9c-1.1,0.5-2.5,1.2-4.1,2.1c0.3,1.6,0.7,3.2,1,4.7c0.2,1-0.2,2-1.1,2.5c-0.8,0.5-1.9,0.5-2.7-0.2
			c-1.2-1-2.5-1.9-3.8-2.9c-1.7,1.2-3.1,2.3-4,3.2C24,273,23.4,273.3,22.8,273.3z"/>
	</g>
</g>
</svg>
