<svg xmlns="http://www.w3.org/2000/svg" viewBox="0 0 612 509.9"><path fill="#D3957D" d="M109.4 351.3l-.7-7-4-4.5s-4.3-7-4.3-7.3l.5-8 1.7-9.7 14.6 6 5.2 12-1 15.8-12 2.7z"/><path fill="#D3A789" d="M151 325l9-11.5 49-22.2 3.5-7.2s-28.5 3.3-30.7 4.2S144 310 144 310s0 14.8 7 15z"/><path fill="#403942" d="M248.8 403l8.2 20 8.5 46.3-1.3 21 .3 19h-14l-24-58.4-3-43M160.5 389L142 367.3v-10l20.6.6 23 14.4M26.3 465.8l10-49L54 387l43.8-27.8-67.5 150h-4"/><path fill="#403942" d="M226 376h-51.8l-85-12.8 23.6-8 32.6-.3 28.8 9.8H203"/><path fill="#403942" d="M216 374l5.3 4.8c.4-.2 2.5-2 3-2.2-.8-.4-5.5-4.2-6.2-4.6-.4.2-1.8 1.8-2 2z"/><path fill="#D3A789" d="M307.3 288.8l-7.4-11.4 32.4-26.8 23.7-17 6.5 3-1.5 5 3 2s13 14.5 17 23.6l6.4 4.4 2 4.7-2.3 5 1.8 7 2 5.5s-19 13.6-37 43.4l-4.7.4 7.7-10.7 6.4-9.7 14.5-15.2 9.2-10.6-1-8.5-10-19-17.2-21.3-2-.2-6 8-19.8 19-4.7 2-8.7 5.8-5.4 1.3-3.2 3-2.2-.6 1.6 1 .2 5.5-1 1.3z"/><path fill="#403942" d="M456 170h4.4v4.7H456z"/><path fill="#D3957D" d="M439 148.8v26.7L370.3 246l-9.7-9.4s84.4-85 78.6-87.8z"/><path fill="#403942" d="M478.6 112.2h6.3v35.2h-6.4z"/><path fill="#D3957D" d="M111.7 351.8l.2 1 31-.6 1-3.8-19.8-3.6-12.7 6.8 4.4-6.3-1-4.4-1.6-13.2-11.6-7"/><path fill="#EFC2A0" d="M297.6 282l3.7-.8 3.7 3.5 8 14.6-.5 4.5-41 33.5-8.2-6.7"/><g fill="#D3957D"><path d="M293.4 250.6l12.8-6 3.4 23.4-8.6 12-3.7 5-8.5-5"/><path d="M297.4 285.8l-9.2-5.7 4.7-29.8 13.6-6.4L310 268l-8.6 12-4 5.8zm-8-6.2l7.7 4.8 3.5-5L309 268l-3.2-22.6-12 5.6-4.5 28.8z"/></g><path fill="#EFC2A0" d="M226.4 374.6s122.2-103.3 130-105.4l9.6 2.3v3.5l-.3 3.8-11 9.6-.8 14.5 2 16.4-7.2 12-12.5 4.8-14-3.8-10.8 5.8-30.2 36L253 414l-28-35 1.4-4.4zM360.3 240.6l15.4-16 59.5-61.8.8-12.2 18.8-34.2 1.7 1 .5 21.3-1.4 3.6 20.6-4.8 2.2 11.3-15 18.5-5.3 4.4-7.8.3-6.3 9.4-44.8 73.3-13.8 24.4-15-23-10.6-13.4"/><path fill="#D3957D" d="M323.4 195.6l1.8 1.3 1.8 1.2c-17.6 22-23.7 43-25.5 56.5-1.6 11.8-.7 20.3-.2 23.2l3.6 1c15.8-4.7 31.2-16.3 46.6-35.5l.2-.4c1-1.2 2.7-3.5 5.4-3.7l10.3-11c-1-1.5-2.5-2.6-4.2-3.3-1-.2-1.3-1-1.6-1.8-.2-1 .2-1.6.7-2.2 4.2-3.6 6.5-8.7 6.5-14 0-10.2-8.4-18.4-18.4-18.4h-.2c-1 0-2-1-2.2-2-.7-5.4-3.4-10.3-7.4-14-.4-.5-.7-1.2-.7-2s.5-1.2 1-1.7c4.7-3.7 7.4-9.3 7.4-15.3 0-10.5-8.7-19.2-19.2-19.2-3 0-5.6.7-8.3 1.8-1 .4-2 .2-2.6-.2-.7-.6-1-1.5-.7-2.4.4-1.6.7-3.4.7-5 0-10-8.3-18.2-18.3-18.2-1.2 0-2.4.2-3.7.4-.7.2-1.3 0-2-.4s-1-1-1-1.8c0-6.4-5-11.3-11-11.3-3.5 0-6.4 1.3-8.4 3.6l-.6 4.6-2-.2c-.2 1-.4 2-.4 3 0 6 4.2 10.6 9.8 11.3.7 0 1.3.4 1.6 1 .4.8.4 1.4.2 2-.7 2-1 4.3-1 6.4 0 8.4 5.5 15.5 13.5 17.7.8.2 1.4.7 1.7 1.3.2.7.2 1.3-.2 2-1 2-1.8 4-1.8 6.3 0 7 5.4 12.3 12.3 12.5 1 0 1.8.7 2 1.6s0 1.8-.4 2.5c-4.7 4.4-7.4 10.4-7.4 17 0 2.6.4 5.3 1.3 7.7l19.2-1c.8-.2 1.2-.7 1.7-1z"/><path fill="#D3957D" d="M304.8 279.7l-4-1.3v-.3c-.4-2.2-1.4-11 .2-23.3 1.8-13.4 7.6-34 25.2-56.4l-2.8-2c-.4.3-1 .6-1.8.6l-19.6 1v-.4c-1-2.5-1.5-5.2-1.5-8 0-6.5 2.7-12.7 7.5-17.3.4-.6.5-1.3.3-2s-.8-1.2-1.5-1.2c-7.3 0-12.8-5.7-12.8-13 0-2 .6-4 2-6.4.2-.5.3-1 0-1.6 0-.4-.5-.8-1-1-8.3-2.3-14-9.7-14-18 0-2 .3-4.3 1-6.5.2-.6.2-1-.2-1.6v-.2c-.2-.4-.7-.8-1.2-.8-6-.7-10.3-5.7-10.3-11.7 0-1 .2-2 .5-3.2v-.3h1.5l.6.2.4-3.8h-.8l.8-.8c2.2-2.4 5.2-3.7 8.6-3.7 6.4 0 11.7 5.2 11.7 11.7v.2c0 .6.2 1 .7 1.4.6.4 1 .5 1.6.4h.6c1-.3 2.2-.5 3.4-.5 10.4 0 18.8 8.3 18.8 18.7 0 1.7-.3 3.5-.7 5 0 .8 0 1.5.6 2 .3.3 1.2.6 2 .2 3-1.4 5.6-2 8.4-2 10.7 0 19.7 9 19.7 19.8 0 6.2-2.8 12-7.6 15.6-.3.4-.6 1-.6 1.4 0 .6.2 1 .5 1.4 4 4 6.7 9 7.4 14.4.2 1 1 1.6 1.7 1.6h.3c10.4 0 18.8 8.4 18.8 18.8 0 5.6-2.3 10.8-6.5 14.4-.4.6-.7 1-.6 1.8 0 .8.5 1.3 1 1.4 2 .7 3.4 1.8 4.6 3.5l.2.4-1 1-9.6 10.2h-.3c-2.3.3-3.7 2-4.8 3.3l-.2.2c0 .2 0 .3-.2.3v.2c-15.5 19.2-31 31-47 35.7v.3zm-3-2l3 1c16-4.8 31-16.4 46.2-35.3 0-.2 0-.3.2-.3l.4-.5c1-1.3 2.7-3.3 5.2-3.6l9.5-10.3.3-.3c-1-1.4-2.3-2.3-3.8-2.8-1-.2-1.6-1-2-2s.4-2 .8-2.7v-.2c4-3.4 6.4-8.4 6.4-13.7 0-9.7-8-17.7-17.8-17.7h-.2c-1.3 0-2.4-1-2.7-2.4-.6-5.2-3.2-10-7.2-14-.4-.4-.7-1.2-.7-2 0-1 .7-1.8 1-2 4.6-3.6 7.2-9 7.2-15 0-10-8.6-18.6-18.7-18.6-2.6 0-5.2.6-8 1.7-1 .5-2 .5-3-.2-1-.8-1-2-1-3 .5-1.5.8-3.2.8-4.8 0-9.8-8-17.8-17.8-17.8-1 0-2 .2-3.2.4h-.5c0 .2-.3.2-.5.2-.6 0-1-.2-1.7-.6-.7-.5-1-1.2-1-2.2v-.5c0-6-5-10.7-10.8-10.7-3 0-5.6 1-7.6 3v.3l-.7 5h-2l-.3 2.5c0 5.5 4 10 9.4 10.7.8 0 1.6.6 2 1.4.4.7.4 1.5 0 2.4-.6 2-1 4.3-1 6 0 8 5.5 15 13.3 17.3 1 .3 1.8 1 2 1.7.3 1 .2 1.7-.3 2.4-1.2 2-1.7 4-1.7 6 0 6.6 5 11.8 11.8 12 1 0 2.2.8 2.5 2 .2 1 0 2-.5 2.8-4.8 4.5-7.3 10.4-7.3 16.7 0 2.4.4 5 1.2 7.2l18.8-1c.7 0 1-.4 1.5-.8l.3-.3 4.3 3.3-.3.4c-17.8 22.3-23.6 43-25.4 56.3-1.6 11.6-.7 20-.3 22.6z"/><path fill="#AA5B3F" d="M298.6 189.6c0-7.4 3-13.8 8-18.5-8 0-14.5-6.6-14.5-14.6 0-2.7.8-5 2-7.4-8.6-2.2-15-10.3-15-20 0-2.4.3-4.8 1.2-7-6.7-.7-11.8-6.5-11.8-13.4v-1c-.7 0-1.6-.3-2.2-.8v1.8c0 7 4.7 13.2 11.4 15.2-.4 1.8-.7 3.6-.7 5.4 0 9.4 5.7 17.6 14.2 21.2-.7 2-1 4-1 6 0 7.8 5 14.3 12.2 16.3-3.8 5-5.8 10.7-5.8 17 0 3 .4 5.6 1.3 8l2-.2c-1-2.3-1.4-5-1.4-8zM282 95c7.3 0 13.3 6 13.3 13.5v.4c1.3-.3 3-.5 4.2-.5 11.4 0 20.5 9.2 20.5 20.5 0 2-.2 3.8-1 5.6 3-1.3 6-2 9.3-2 11.8 0 21.4 9.6 21.4 21.4 0 7-3 13-8.3 17 4.2 4 7 9.4 8 15.4h.2c11.4 0 20.8 9.2 20.8 20.8 0 6.3-3 12-7.4 16 2.2.6 4 2 5.4 3.7l1.6-1.7c-1-1-1.8-2-3-2.7 3.7-4.2 6-9.6 6-15.2 0-12-9.5-22-21.3-22.8-1-5-3.4-9.4-6.7-13 4.7-4.5 7-10.5 7-17 0-13-10.6-23.7-23.6-23.7-2.2 0-4.2 0-6.3.8v-2.2c0-12.5-10.2-22.8-22.7-22.8h-2c-1-7.6-7.6-13.6-15.6-13.6-4.7 0-9 2.2-11.8 5.6l1.7 1.3c2.7-3 6.2-5 10.2-5z"/><path fill="#AA5B3F" d="M368.6 227.3l-.2-.2c-1.4-1.7-3-3-5.2-3.6h-.4l.4-.4c4.6-4 7.3-9.7 7.3-15.7 0-11.3-9.2-20.5-20.5-20.5h-.4v-.2c-1-5.8-3.7-11.2-8-15.3l-.2-.2h.2c5.3-4.2 8.2-10.2 8.2-17 0-11.6-9.5-21-21.2-21-3.2 0-6 .5-9 2l-.7.2v-.6c.7-1.6 1-3.3 1-5.5 0-11-9-20.2-20.3-20.2-1.4 0-3 .2-4.2.4h-.3v-.7c0-7.3-6-13.2-13.2-13.2-4 0-7.5 1.8-9.8 5l-.2.2-.2-.2c-.4-.4-1-1-1.7-1.3v-.4c3.2-3.6 7.6-5.7 12-5.7 8 0 14.7 5.7 16 13.5h1.7c12.7 0 23 10.3 23 23v2c1.8-.7 3.6-1 6-1 13.2 0 24 10.8 24 24 0 6.5-2.6 12.6-7 17 3 3.4 5.3 7.8 6.5 12.7 12 .8 21.3 10.8 21.3 23 0 5.3-2 10.7-5.7 15 1 .7 1.8 1.5 2.7 2.7l-2 2.3zm-5-4.3c2 .7 3.7 1.8 5 3.5l1.2-1.2c-1-1-1.8-2-2.7-2.4l-.2-.3.2-.2c3.7-4.4 5.7-9.7 5.7-15 0-12-9.2-22-21-22.5h-.2v-.2c-1-5-3.4-9.4-6.6-12.8l-.3-.2.2-.2c4.5-4.3 7-10.3 7-16.8 0-13-10.5-23.4-23.4-23.4-2.4 0-4.3.3-6.2 1h-.3v-2.6c0-12.4-10-22.5-22.4-22.5h-2.2v-.2c-1-7.5-7.7-13.3-15.4-13.3-4.3 0-8.4 2-11.5 5.3l1.4 1c2.4-3.2 6-5 10-5 7.5 0 13.7 6 13.7 13.7v.2c1.2-.3 2.7-.5 4-.5 11.5 0 20.8 9.3 20.8 20.8 0 2-.2 3.6-.7 5 2.8-1 5.6-1.7 8.7-1.7 12 0 21.7 9.7 21.7 21.7 0 6.8-3 12.8-8 17 4 4 7 9.4 7.8 15 11.6 0 21 9.5 21 21 0 6-2.8 11.7-7.3 15.7zM300.8 189.6c0-6.5 2.7-12.5 7.4-17 .7-.7 1-1.6.4-2.5-.2-.8-1-1.2-2-1.5-7-.2-12.3-5.8-12.3-12.5 0-2.2.7-4.5 1.8-6.3.5-.7.5-1.3.3-2s-1-1-1.6-1.3c-8-2.2-13.6-9.4-13.6-17.6 0-2.2.5-4.2 1.2-6.3.2-.7.2-1.3-.2-2s-1-1-1.6-1c-5.6-.8-9.8-5.5-9.8-11.3 0-1 .2-2.2.4-3h-.2l-1 2.6-1.7-.4v1c0 6.8 5.2 12.4 12 13.3-1 2.2-1.4 4.7-1.4 7 0 9.7 6.5 17.5 15.2 20-1.3 2.2-2 4.7-2 7.4 0 8 6.5 14.6 14.5 14.8-5 4.7-8 11.4-8 18.5 0 3 .4 5.6 1.3 8l2.5-.2c-.5-2-1.2-4.5-1.2-7.4z"/><path fill="#AA5B3F" d="M282 97.4c6.2 0 11 5 11 11.2v.2c0 .7.3 1.3 1 1.8s1.3.7 2 .4c1.3-.2 2.5-.4 3.8-.4 10 0 18.3 8.3 18.3 18.3 0 1.7 0 3.3-.6 4.8-.2 1 0 1.8.7 2.5s1.7.7 2.6.2c2.7-1.3 5.4-1.8 8.3-1.8 10.4 0 19 8.5 19 19.2 0 6-2.6 11.3-7.3 15-.4.5-1 1.2-1 2s.3 1.2.8 1.7c4 3.6 6.5 8.7 7.4 14 0 1.2 1 2 2 2h.3c10 0 18.3 8.4 18.3 18.4 0 5.5-2.5 10.6-6.5 14.2-.6.4-.8 1.3-.6 2.2.2 1 .7 1.6 1.6 1.8 1.8.4 3.4 1.8 4.2 3.4.4-.7 1-1 1.6-1.8-1.3-1.8-3-3-5.4-3.8 4.5-3.8 7.4-9.4 7.4-16 0-11.3-9.4-20.7-20.8-20.7h-.2c-1-6-3.8-11.4-8-15.4 5-4 8.3-10.2 8.3-17 0-12-9.5-21.5-21.3-21.5-3.4 0-6.5.7-9.2 2 .4-1.8 1-3.8 1-5.6 0-11.5-9.3-20.6-20.6-20.6-1.7 0-3 .2-4.3.4v-.4c0-7.4-6-13.4-13.4-13.4-4 0-7.6 1.8-10 4.5.8.7 1.5 1 1.7 1.3 1.6-2 4.5-3.4 8-3.4z"/><path fill="#D3957D" d="M267.6 102c.7-1.4 1.3-2.6 2.2-3.7-2.5-1.8-5.8-3.8-9.2-5.6.3 2 1.2 6.3 7 9.2zM273.8 101.2l-.2-.2c-1 1.3-2 2.7-2.5 4.5l2 .2.8-4.5z"/><path fill="#D3957D" d="M269.6 102.8c.4-1 1.3-2.2 2-3-.4-.5-1-1-1.8-1.4-1 1-1.8 2.2-2.2 3.6.6 0 1.3.3 2 .8z"/><path fill="#D3957D" d="M271 105.4c.5-1.8 1.4-3 2.6-4.5-.2-.3-1-.8-1.8-1.4-1 1-1.6 2-2 3l2 .8-1 2z"/><path fill="#AA5B3F" d="M256.4 90.5c1.3.7 3 1.3 4.5 2V92l-5-2c-.2 1.7-1.8 11.5 10.3 16.7 0-1 .2-1.6.4-2.5-11.6-3.7-10.3-13.7-10.3-13.7zM269 105c-.8-.2-1.7-.4-2.3-.7-.2 1-.4 1.6-.4 2.5.7.2 1.3.7 2.2 1 0-1 .2-2 .4-2.8z"/><path fill="#AA5B3F" d="M271 105.4c-.8 0-1.4-.2-2-.4-.3 1-.5 1.8-.5 2.7l1.6.4 1-2.6zM266.7 104.3c.2-1 .7-1.8 1-2.7-6-3-6.8-7-6.8-9.2-1.7-1-3-1.6-4.6-2 0 0-1.3 10 10.3 14z"/><path fill="#AA5B3F" d="M267.6 102l-1 2.6 2.3.7c0-1 .3-1.6.8-2.2-1-.7-1.6-1-2.2-1z"/><path fill="#AA5B3F" d="M271.6 103.2l-2-.7-1 2.2 2 .4 1-1.8z"/><path fill="#EFC2A0" d="M436.2 156l15.4 7.5.2 6-4 .2.2.2h2c1 0 1.8 0 3-.3l1.7-28.8v-2.3h1V117c-1.2.4-2 1-3.2 1.8-4 3-7.4 7-9.4 11.6-4.8 10.5-6.8 21.4-7.5 28l.4.3.2-2.8z"/><path fill="#D3957D" d="M441 129.6c2.3-5 6-9.4 10.4-12.5 1.3-1 3-1.7 4.5-2.4V112c-2 1-4 2-6 3.2-4.6 3.4-8.4 8-10.8 13.4-4.2 9.2-6.3 18-7.4 24 0 .3-1 5.5-1 9.3l2.4-2.6c.5-6.4 2.5-18.2 8-29.8zM451 172.4c-.5.7-.8 1.6-1.2 2.2h.7c1 0 2.2 0 3-.2v-2.2l-2.6.2zM453.6 174.5c.7 0 1.3-.2 2-.4l-2 .5z"/><path fill="#D3957D" d="M435.5 158.4c.7-6.5 2.7-17.2 7.6-28 2.3-4.6 5.5-8.6 9.5-11.5 1-.8 2-1.4 3-2v-2.4c-1.5.7-3 1.6-4.4 2.5-4 3.5-7.7 7.7-10.2 12.6-5.4 11.4-7.4 23.2-8 30l1.8-2 1 .8zM453.2 170l-3 .2h-2l1 .7 2 .8-.2.7c.7 0 1.6 0 2.5-.2l-.3-2.3c-.3 0-.3 0 0 0z"/><path fill="#FBFCFA" d="M539.2 115c-.7 3.6-1.3 7-2.2 10.7l-1.6 7.4 7.4-.6-3.6-17.4zM495 124.4v-7c0-2.4-2.3-4.6-5-4.4l-5 .4v17l4.8-.4c2.7-.2 5-3 5-5.6zM475.3 161c-3.4 4-7.8 9-15 11.6v.2c1.8-.4 3.6-1 5.4-2 4.4-1.7 7-6 9.6-9.8z"/><path fill="#FBFCFA" d="M460.3 113.3v2h-.2v23c4.6-.4 9-1.6 13-3 1.2-.5 2.8-1 4.3-.5.4.2 1 .4 1.3.7v-9.2m.3 0v-4.8c-.2 0-.3-.2-.3-.3V109.4c0-.7.4-1 1-1l10.2-1.2h1c5.6 0 10 4.5 10 10v7c0 6-4.8 11.4-10.8 12l-5 .5v18.7c0 .7-.5 1-1.2 1l-3.8.5h-.2s-.4 0-.7-.2l-.2-.4-2.4 3.4-1 1c0 .3 0 .3-.3.5-2.5 3.8-5 8-9.6 10-1.8 1-3.6 1.4-5.4 2v74l141-13V66L460.4 82.5v30.3m96.5-11.5c.2-.7.7-1 1-1.3l4.3-.5c.4 0 1 .2 1 .7l11.5 29v-30c0-.6.4-1 1-1l4-.4s.6 0 .8.2.4.4.4 1v46.6c0 .7-.4 1-1 1l-3.5.5c-.4 0-1 0-1-.6L563 115.8v31.7c0 .7-.3 1-1 1l-3.8.5h-.2s-.4 0-.7-.2c-.2-.2-.4-.4-.4-1v-46.6zm-31.2 49.6l9.6-47.6c0-.4.4-1 1-1l5-.3c.7 0 1 0 1 .8l10 45.6c0 .2 0 .7-.3 1 0 0-.3.3-.8.3l-4 .4c-.7 0-1 0-1-.8l-2.6-11.4-9.4 1-2.5 12c0 .4-.4 1-1 1l-3.7.3h-.2s-.7 0-1-.3c0-.3-.3-.7 0-1zm-20.6-44.5c0-.4.2-1 1-1l3.7-.3s.6 0 .8.2.4.4.4 1v41.4l10.3-1h1s.3.5.3 1v3.8c0 .7-.4 1-1 1l-15.3 1.7h-.2s-.4 0-.7 0c-.2-.3-.4-.5-.4-1v-46.7zm74.2 58.8c-30.8 1-61.6 6.4-91 16-2.8 1-4-3.8-1.2-4.7 30-9.6 61-15 92.2-16 3 0 3 4.5 0 4.8z"/><path fill="#403942" d="M458 138.5v-22.3l-2 1v21.6c.5 0 1.2 0 2-.3zM458 113.7v-2.5c-.6.2-1.5.4-2 .7v2.4c.5-.3 1.2-.5 2-.7zM458 173.6c-.6.2-1.5.4-2 .7.5-.3 1.2-.5 2-.7z"/><path fill="#403942" d="M458 116.2v-2.5c-.6.2-1.5.4-2 1v2.4c.5-.4 1.2-.6 2-.8zM460.3 138.3v-22.8c-.7.2-1.6.4-2.2.7v22.6c.8-.3 1.4-.3 2.3-.5zM460.3 110.8l-2.2.4v2.5c.8-.2 1.7-.4 2.3-.7v-2.2zM460.3 172.7c-.7.2-1.6.4-2.2.7v.2c.8-.2 1.7-.4 2.3-.7v-.3z"/><path fill="#403942" d="M460.3 115.5v-2.2c-.7.2-1.6.4-2.2.7v2.5c.8-.8 1.4-1 2.3-1zM481 151.7v3l1.7-.3v-8l-.7 2c-.5 1.3-.7 2.4-1 3.3zM481.8 141.2c.7 2.5.7 5 0 7.6l.7-2v-11c0-.6.4-1 1-1l1.2-.2V133h-1s-.5 0-.8-.2c-.3-.2-.5-.4-.5-1v-8c-.4-1-1-2-1.6-3v5c.6 2 1.2 4.3 1.2 6.6.5 3 .2 6-.4 8.8z"/><path fill="#403942" d="M482.4 132.5c-.2-2.2-.7-4.2-1.3-6.5v13l.8 2.2c.6-3 1-5.8.6-8.7zM480 136.7v-6.3c-.2-1.3-.7-2.7-1-4v9.2c.3.4.5.7 1 1zM483.8 143c.7-2.5 1-5 1-7.4h-1v7.4zM484.7 131.8c-.2-1.6-.4-3-1-4.7v5l1-.2zM480 119.3l-1-1.3v3.8c.3.7.8 1.3 1 2v-4.5z"/><path fill="#403942" d="M480 123.5l-1-2v5c.3 1.2.8 2.6 1 4v-7zM482.7 154.6l-1.6.2v-3c0 1-.6 2-1 2.8v1.6l3.8-.4V143c-.2 1.4-.7 2.6-1 4v7.6zM480.2 132.7l-.2-2.2v6.3l.2.2v-4.3zM484.7 134.5l-1 .2c-.8 0-1.2.4-1.2 1v11c.4-1.3 1-2.5 1-3.8v-7.2h1.2v-1.3zM484.7 131.8h-1v-5c0-1-.6-2-1-3v8l.4 1h2v-.6c-.3-.2-.3-.2-.3-.4zM481 120.8l-1-1.8v4.2c.4 1 1 1.8 1 2.7v-5.2z"/><path fill="#403942" d="M480.2 137.2c.2.4.4.7.4 1 .2 0 .2.6.4.8v-13c-.2-1-.7-1.8-1-2.7v9c.2 1.7.2 3.3.2 5z"/><path fill="#403942" d="M604.8 62c-.4-.5-1-.8-1.8-.5L457.6 78.3c-1 .2-2 1-2 2.2v31.7c.7-.2 1.6-.7 2.2-.7.7-.2 1.6-.4 2.2-.4V82.6l141-16.3v168l-140.8 13v-74l-2.2.8-2.2.4V250c0 .6.2 1.2.7 1.5.4.4 1 .7 1.6.7h.3l145.4-13.4c1 0 2-1 2-2.2v-173c0-.6-.2-1.3-1-1.7z"/><path fill="#403942" d="M491 107h-1.2l-10 1c-.8 0-1.2.5-1.2 1.2v8.5l1 1.3 1.2 1.8c.7 1 1 2 1.6 3 .4 1 1 2 1 3.2.5 1.6.8 3 1 4.7V135.5c0 2.6-.4 5-1 7.5v12.6l-4 .4v-1.6c0 .7-.6 1.3-1 2l.2.4c.2.2.4.2.7.2h.2l3.8-.4c.7 0 1-.4 1-1v-19l5.2-.3c6-.7 11-6 11-12v-6.8c.5-6-4-10.5-9.6-10.5zm-6 6.7l5-.4c2.7-.2 5 1.8 5 4.5v7c0 2.6-2.6 5.3-5.2 5.5l-5 .4v-17zM510.8 105.2c-.2-.2-.4-.2-1-.2l-3.7.4c-.6 0-1 .4-1 1v46.8l.4 1h1l15.2-1.5c.7 0 1-.4 1-1v-4s0-.6-.3-.8c-.2-.3-.4-.3-1-.3l-10.2 1V106c.2 0 0-.6-.2-.8zM527 152l4-.3c.3 0 .8-.4.8-1l2.5-12 9.4-1 2.5 11.5c.2.7.7 1 1 1l4-.5c.3 0 .8-.2 1-.4.2-.2.2-.7.2-1l-9.8-45.5c-.2-.7-.7-1-1-1l-5.2.5c-.4 0-1 .4-1 1l-9.3 47.5c0 .4 0 .7.3 1 0 0 .4.3.8.3zm8.4-19c.4-2.4 1-4.8 1.6-7.3.7-3.8 1.6-7 2.2-10.7l3.8 17.2-7.6 1zM558.4 148.8s.2 0 0 0l3.8-.4c.7 0 1-.4 1-1v-31.6l12.4 30.6c.2.4.7.7 1 .7l3.5-.3c.8 0 1.2-.4 1.2-1V98.8c0-.3-.2-.8-.4-1s-.4-.2-1-.2l-3.7.4c-.6 0-1 .4-1 1v30l-11.4-29c-.2-.4-.7-.7-1-.7l-4.3.4c-.7 0-1 .3-1 1v46.7c0 .2 0 .7.3 1h.8zM488.5 181c29.5-9.7 60-14.8 91-16 3 0 3-5 0-5-31.4 1-62.6 6.4-92.3 16.2-3 1-1.6 5.6 1.3 4.7z"/><path fill="#EFC2A0" d="M456 143.2h-.8V141l-1.6 28.8 2.5-.4v-26.2zM476.6 139.8l-.7-1c-.3 0-1 .3-1.4.5-4.7 1.8-9.4 3-14.3 3.6v24.7c5-2.5 8.5-6 11.4-9.4l.2-.4c0-.5.6-1 .8-1.4 2-3 3.6-6.3 5-9.2.2-3-.3-5.6-1.2-7.6z"/><path fill="#EFC2A0" d="M472 158s-.3 0-.3.3l.7-.7c.2-.4.7-.7 1-1 2.6-3.2 4-6.4 4.4-9.3-1 3-3 6-5 9.2l-1 1.4zM456 143.2v26c.8 0 1.5-.3 2-.6V143c-.8.2-1.5.2-2 .2zM460.3 143l-2.2.2V169c1-.3 1.7-.8 2.3-1v-25z"/><path fill="#D3957D" d="M453.6 174.5zM453.2 170h.2-.2zM456 141v-2.3h-1v2.2h1zM456 171.8l-2.3.4h-.2l.2 2.2h.2c.6 0 1.2-.2 2-.4v-2.2zM453.2 170c-.3 0-.3 0 0 0v2.2l.2-2.2h-.2z"/><path fill="#D3957D" d="M453.4 172.2c.7 0 1.6-.2 2.2-.4l-2.2.4zM479 155.2l-2.3 3.8c-.2.4-.4 1-1 1.3 0 .2 0 .4-.3.7l.4-.4c.2-.4.7-.7 1-1 .8-1 1.5-2 2.4-3.5v-.3l-.3-.5z"/><path fill="#D3957D" d="M475.3 161l.4-.7c.2-.4.4-1 1-1.3.8-1.3 1.5-2.7 2-3.8v-3.8c-.8 2.5-2 4.7-4 6.7l-1.2 1.7c-2.2 3.8-4.7 7.6-8.7 9.2l-4.5 1.7v2c7-2.7 11.4-7.6 15-11.7z"/><path fill="#D3957D" d="M473.5 159.7c-3 3.8-7 8-13.2 10.5v.4c1.6-.4 3-1 4.5-1.8 3.8-1.5 6.2-5.3 8.7-9zM456 171.8v2.2c.8-.2 1.5-.4 2-.7V171c-.8.5-1.5.8-2 .8z"/><path fill="#D3957D" d="M458 171l-2 .8c.5 0 1.2-.3 2-.7zM460.3 170.5c-.7.2-1.6.4-2.2.7v2.2c1-.2 1.7-.4 2.3-.7v-2.2z"/><path fill="#D3957D" d="M458 171c.8 0 1.7 0 2.3-.3v-.4c-.7.4-1.5.6-2.2.8zM481 150.6v1c.5-.8.8-2 1-2.8-.5.4-.7 1-1 1.8z"/><path fill="#D3957D" d="M481.8 148.8c.4-2.5.7-5.7-.2-8.3-.2 1-1.7 2.5-.5 3.6v6.6c.3-.7.5-1.4.8-1.8z"/><path fill="#D3957D" d="M481 139v5l.8-3c-.3-.5-.5-1.4-.7-2zM480 153l-1 2.2v1l1-2V153zM479.5 141.4l.4-2.5v-2.3c-.3-.4-.8-1-1.2-1v4c.3.4.5 1 .7 1.7z"/><path fill="#D3957D" d="M480 147.4l-.2.7c-.2 1.2-.4 2.3-1 3.5v3.8c.5-.7.8-1.6 1.2-2.2v-5.6zM480 139l-.4 2.4c.2 1 .4 2 .4 3V139zM479.7 148l.2-.6v-1c-.3.6-.3 1-.3 1.7zM481 150.6l-1 2.5v1.4c.4-1 1-1.8 1-2.7v-1zM480 136.7v2.2l.2-2c-.2 0-.2 0-.2-.3z"/><path fill="#D3957D" d="M481 144c0 1.2-.6 2.3-1 3.5v5.6l1-2.4V144z"/><path fill="#D3957D" d="M480 146.3v1c.4-1 1-2 1-3.3v-5c0-.3 0-.8-.3-1l-.4-1-.2 2v7.3zM453.4 170c1 0 1.6-.2 2.5-.4-1 0-1.7.2-2.6.4zM453.2 172.2h0z"/><path fill="#D3957D" d="M456 169.5l-2.6.4-.2 2h.2c1 0 1.6 0 2.2-.3v-2.2h.3zM471.5 158.4c-3 3.4-6.3 7-11.4 9.4v.4c1.2-.4 2.3-1 3.7-1.3 3.3-1.7 5.8-5 7.8-8.6zM474.6 158c-.4.6-1 1.2-1 2 .3-.8.8-1.2 1.2-1.7 1.8-2 3-4.2 4-6.7v-1.3c-1.3 2.5-2.6 5-4.2 7.6zM458 168.6c-.6.2-1.5.4-2 .7l2-.4v-.4z"/><path fill="#D3957D" d="M456 169.5v2.2c.8-.2 1.5-.4 2-.7v-2.2l-2 .7zM458 168.6v.2c.8-.2 1.7-.4 2.3-.7v-.3c-.7.5-1.5.7-2.2 1zM460.3 168.2c-.7.2-1.6.4-2.2.7v2c1 0 1.7-.3 2.3-.8v-2zM479.5 141.4l-.7-1.8v4.5l.7-2.6zM479 150v1.4l.8-3.4-1 2z"/><path fill="#D3957D" d="M479 150c0-.6.6-1.2.8-2l.2-1.7v-2c0-1-.2-2-.4-3l-.7 2.4v6.4zM480 144.3v0z"/><path fill="#EFC2A0" d="M364.7 244.4c3.8 4.5 7 8.5 10 12.5 3.2 2.8 5.7 6.6 6.8 10.6l3.8 7.4c8-14.5 17.4-29.5 26.4-44 11.8-19 24-38.4 33.3-57-4.5-1-8.5-3-11.8-6.7l-.2-.4c-.2 0-.2-.3-.4-.3-22.3 22.8-41 42.2-60 62 .5 1.2.5 2.6.5 3.7 0 5.7-3.6 10.2-8.3 12zM368.3 233.4c-2.2 2.5-4.5 5-7 7.4 4-.7 6.8-3.8 7-7.4z"/><path fill="#EFC2A0" d="M363 242.6c.3.7 1 1.3 1.5 1.8 5-1.8 8.3-6.5 8.3-11.8 0-1.3-.2-2.5-.4-3.6l-1.8 2 .2 1.6c0 4.8-3.4 9-8 10zM374.5 257c2.5 3.7 4.7 7 6.7 10.8-1-4.2-3.5-7.8-6.7-10.7z"/><path fill="#EFC2A0" d="M361.4 240.6s0 .2 0 0l1 1.6c.3.2.3.4.5.4 4.4-1 7.5-5 7.5-9.8 0-.4 0-1-.2-1.6l-2.2 2.2c0 3.6-2.8 6.7-6.6 7.2zM435.7 163.3l-.2.2.2.2v-.4zM446.7 169.8h.2-.3zM447 169.8c.5.2 1 .2 1.2.2l-.2-.2h-1zM433 167.5c3.5 3.6 7.5 5.6 12 6.7l1-2-3-.7-1.5.7-5.4-4v-.4l-1.4-1.3-.7-.7-2 1.8c.3 0 .3.2.5.2.3-.7.6-.5.6-.3zM449 171l-.8-.8c-.4 0-.7 0-1-.2l2 1zM446.5 169.8L443 171c1 .3 2 .8 3 .8l1-2.2-.5.2zM435 166l1.2 1.3c-.2-1-.2-2.2-.2-3.4l-.2-.3-1.6 1.6.7.7z"/><path fill="#D3957D" d="M386.2 278l1 2.6c8.6-15.4 18.4-31.5 28.2-47 12.3-19.6 24.8-39.7 34.4-59h-2.5c-17 33.4-42.4 69-61 103.3zM430.8 165c-.2-.8-.2-1.7-.2-3-22.8 23.2-45 46.4-63.8 66.2.4.7 4-2 4.6-1.5 19.2-20.3 37.8-39.5 59.4-61.6zM357 239c.8 0 1.4.2 2.3.4 3-3 5.8-6.3 8.7-9.2-.2-1-.7-1.6-1-2.2l-10.4 11h.5z"/><path fill="#D3957D" d="M370 228.5l1.7-1.8c-.4-.7-1-1.3-1.3-2l-1.6 1.6c.2 1 .6 1.5 1 2.2z"/><path fill="#D3957D" d="M368 230.3l2-1.8c-.3-.7-.8-1.3-1.2-2-.4.7-1 1-1.6 1.8l1 2zM430.8 165l2-2c0-1 0-2 .2-3.5l-2.5 2.5c.3 1.3.3 2.2.3 3zM448.3 172.2l-1 2.2 2.4.2 1-2.2c-.7 0-1.6 0-2.4-.2zM449 171c0 .3-.3 1-.6 1.5h2.5v-.7l-2-1z"/><path fill="#D3957D" d="M435.5 158.4l-.7-.7-1.8 1.8c-.2 1.3-.2 2.5-.2 3.4l2.5-2.6.2-2zM411.6 231.2c-9.2 14.5-18.4 29.6-26.4 44l1 3c18.8-34 44.4-70 61-103.5-.8 0-1.5-.2-2-.4-9.7 18.5-21.7 38-33.6 57zM371.8 311.4v.2c-2 2.2-3.6 4.5-5.4 7-1 .6-2.4 1.4-4 2.6l-6.6 9.6-.8 2.7 4.4-3c11.4-7.3 13-13.5 15.2-21.3l.7-2c-1 1.3-2 2.7-3.5 4.2zM432.4 167c-.4-.3-1-.5-1-1-.3-.2-.3-.4-.3-1-21.6 22.2-40 41.4-59.3 61.7.4.7-3.6 6-3.4 6.7 18.5-20 41.5-43.8 64-66.5z"/><path fill="#D3957D" d="M361 240.6h.5c2.2-2.5 4.5-5 7-7.4v-.7c0-1-.3-1.6-.5-2.2-3 3-5.8 6-8.7 9.2l1.8 1zM372.3 229c-.2-1-.4-1.6-1-2.2l-1.7 1.8c.4 1 .7 1.6.7 2.5 1-.7 1.6-1.4 2-2z"/><path fill="#D3957D" d="M368.3 232.5v.7l2.2-2.2c-.2-1-.4-1.8-.7-2.5l-1.8 1.8c.3.7.3 1.6.3 2.2zM361.4 240.6h-.4c0 .2 0 .2.4 0 0 .2 0 0 0 0zM447 169.8s0 .2 0 0zM432.4 167c.4-.8 1-1.2 1.8-2h-1v-2c-.8.6-1.4 1.2-2 2v1c.3.4.8.6 1.2 1zM447.4 170h-.2l-1 2.2c.6.2 1.5.2 2.4.2l.7-1.6-2-.8z"/><path fill="#D3957D" d="M433 164.8l1.2.2 1-1.3v-.4-2.7c-.8 1-1.5 1.6-2.4 2.5 0 1.2 0 1.8.3 1.8z"/><path fill="#EFC2A0" d="M436.4 159.5l11.4 10.5 4-.2-.2-6-15.4-7.6s-.2 1.3-.2 3l.4.3zM436.4 164.4c3 3 6.5 5 10.5 5.6h1l-11.4-10.5 1.6 1.6c-1 1-1.6 1.7-2.2 2.6v.4l.4.4zM436.2 167.8l5.4 4 1.6-.7c-2.5-.8-5-2-7-4v.8z"/><path fill="#EFC2A0" d="M446.7 169.8c-4-.7-7.6-2.5-10.5-5.6l-.7-.7c0 1.3 0 2.5.2 3.4 2 1.7 4.5 3 7 4l3.3-1.4.7.2zM436 158.8v1c.2 0 .4-.3.7-.6l-.7-.4zM447 169.8zM436.4 159.5l-.7.7v3.4c.7-1 1.6-1.6 2.2-2.5l-1.6-1.5z"/><path fill="#D3957D" d="M119 356.7h.7-.7zM117 357h.4-.4z"/><path fill="#AA5B3F" d="M110.3 352.7l2.2-.4c-1.8-2.2-2.2-4.5-2.2-7v-1.8l-1-.8c-4.6-4-7.5-9.8-7.5-16 0-9 6-17 14.7-19.8l1.3-.5.2-1.3c.7-3.4 1.8-6.7 3.8-9.6l2.3-4.3h-4l-.5-.4-.3.5c-2.2 0-3.4-.7-5-2.3s-3-3-3-5.2c0-3.6 2.5-6.7 5.8-7.8l4.3-1.4-3-2.6c-4.3-3.6-6.8-8.4-6.8-13.8 0-10 8.3-18.3 18.3-18.3h2.2l.2-2c.7-5.3 3.4-10.2 7.4-14l2.2-2.2-2-1.6c-4.7-3.6-7.6-8.8-7.6-14.8 0-10.5 8.7-19.2 19.2-19.2 3 0 5.6.7 8.3 1.8l4.5 2.2-1.3-5c-.5-1.5-.8-3.3-.8-4.8 0-10 8.3-18.3 18.3-18.3 1.3 0 2.5.3 3.8.5l3 .7v-3c0-6.4 5-11.3 11-11.3 6.4 0 11.3 5 11.3 11s-4.2 10.6-9.8 11.3l-3 .2 1.2 2.7c.7 2 1 4.2 1 6.3 0 3-.6 5.8-2 8.5l-2 3.6 4-.2h1.2c8.3 0 15.6 4.2 20 10.5l2.6-.3.2.3 2.8-.2v-.2c-5-8.4-13.5-14-23-14.8 1-2.4 1.3-4.8 1.3-7.2 0-1.7 0-3.5-.5-5.3 6.8-2 11.4-8.2 11.4-15.3 0-8.6-7.2-15.8-16-16-8 0-14.5 5.7-15.7 13.6h-2c-12.7 0-23 10.3-23 23v2c-2-.5-4-1-6-1-6.4 0-12.4 2.5-17 7s-7 10.5-7 16.8 2.6 12.4 7.2 17c-3 3.3-5.4 8-6.6 12.8-12 1-21.3 11-21.3 23 0 5.5 2 11 5.7 15-3.5 2.4-5.7 6.4-5.7 10.6 0 3.4 1.3 6.5 3.8 9 1.8 1.8 4 2.8 5.5 3.3-1 2.3-1.8 4.7-2.4 6.8-10 3.6-16.8 13.4-16.8 23.8 0 7.2 3 14 8.3 18.8 0 2.6.5 5 1.4 7.6h1.2l1.2-.3M115.2 357.2s.3 0 0 0c.3 0 0 0 0 0z"/><path fill="#EFC2A0" d="M324.5 196.3zM200.6 203.5l-2.2.2 2.2-.2c0 .2 0 .2 0 0z"/><path fill="#EFC2A0" d="M296.3 280.7l-.2-1.3c0-.4-2-10.5 0-26 2-13.7 7.7-35 25-57.3l-19 1.2-2.6.2-2.2.2-72 4.2-2.6.2H220l-20 1.4 4.6 8c7 12 20.3 34.2 22.8 50 3.8 24.3-9.2 28.8-9.8 29h-.2c-.2 0-3.6 1-7.8 1.6 1.8 9.2 7 18.3 13.6 24 .7.5 1.4.5 2 1.2.8.4 1.2 1 2 1.4 6.6 5 14 9 19.3 11 8.7 3.7 14.8 7 22.2 8 4-3 9.4-9.5 13.4-12.6.8-.4 1.2-1 2-1.3.6-.4 1-1 1.7-1.3 8.7-7 17.4-13.8 26-21.2-2.6-7-6.6-13.6-9.7-18.3l-5.7-2.3z"/><path fill="#D3957D" d="M298.6 279.4l3.4 1c.2-.6 1-1 1.6-1.2l.7-.2-3.6-1c-.4-3.2-1.6-11.7.2-23.3 2-13.6 7.7-34.4 25.4-56.5l-1.8-1.3c-35 43-26 82.4-26 82.4zM322.7 195c-.4.4-1 1-1 1.6l2.8-.2-1.8-1.4zM200.6 203.3v0z"/><path fill="#D3957D" d="M302 280.5l-3.4-1s-9-39.4 26-83.2l-3 .2c-17.4 22.3-23.2 43.6-25.2 57.4-2.2 15.5 0 25.4.2 25.8l.2 1.3 6 2c-.2 0-.2-.3-.4-.6-.4-.5-.7-1.2-.4-2zM202.6 290.8c-.2 0-.4.4-.7 1 .6-.3 1.5-.6 2-1h-1.4z"/><path fill="#D3957D" d="M227.6 261.4c-2.5-16-15.6-38.2-22.8-50-2-3.3-4-6.7-4.4-8L220 202c-4.4-6.3-11.6-10.2-19.8-10.2h-1l-4 .2 1.7-3.6c1.2-2.7 2-5.6 2-8.5 0-2.3-.3-4.3-1-6.4l-1-2.7 2.8-.3c5.6-.7 9.8-5.4 9.8-11.2 0-6.3-5-11.2-11.2-11.2-6.3 0-11.2 5-11.2 11.2v3.2l-3-.8c-1.2-.3-2.4-.5-3.7-.5-10 0-18.3 8.3-18.3 18.3 0 1.8.2 3.4.7 5l1.2 4.8-4.5-2.2c-2.7-1.3-5.4-1.8-8.3-1.8-10.5 0-19.2 8.5-19.2 19.2 0 6 2.7 11.4 7.4 15.2l2 1.6-2 1.8c-4 3.6-6.5 8.7-7.4 14l-.2 2h-2.2c-10 0-18.3 8.4-18.3 18.4 0 5.4 2.5 10.5 6.5 14l3 2.8-4 1c-3.3 1.2-5.7 4.3-5.7 8 0 2 1 4 2.5 5.7 1.6 1.6 3.6 2.5 5.8 2.5h.2l4.2-.2-2.2 3.6c-1.8 3-3 6.3-3.8 9.6l-.2 1.3-1.3.5c-8.7 2.7-14.7 10.7-14.7 20 0 6.2 2.7 12 7.6 15.8l1 .7v2c0 2.5.3 4.7 1.5 6.7 4.4-.7 10.8-1.3 18.2-1.3 3.4 0 6.3.2 9 .4l4.4-.7c1.3-12.6 3.8-23.8 11-33.2 5.7-7.6 19.6-13.2 32.7-18.5l12-5v.5l.7-.4 1.2-.5 1.3-.7h.3v-.4c.3 0 .2-.3.2-.4l1.4-.6 1-.6 1.3-.6c.5-.3 1-.3 1.4 0l.6.3c0 .2.3.3.4.4l.2.2h.2l.2.3.2 1c4.2-.7 7.6-1.6 7.8-1.6h.2c.4 0 13.6-4.8 9.8-29zM121 356.5H122h-1zM138.2 356.5c.4 0 1 0 1.3.2-.4-.2-.8-.2-1.3-.2zM143 350.2l-4.4.7c1.3 0 3 0 4.2.3.3-.4.3-.8.3-1zM130.6 356c-.2 0-.2 0 0 0h1-1zM125.5 356.3h1-1zM133 356.3h1.2-1.3zM123.3 356.3H124.2h-1zM128 356h1-1zM141 356.7l1.5.2c-.5 0-1-.3-1.6-.3zM135.6 356.3h1.3-1.4z"/><path fill="#FBFCFA" d="M317.4 352.7zM252.8 421c2.5 10.3 5.4 25.2 7.6 41.5-2.2-16.2-5.3-31-7.6-41.5l-.7-2.2.8 2.2zM328 337l-9.3 13.5c7-.7 12.7-5.4 14.5-12.3-1 0-2.2-.2-3.4-.4l-2-.7z"/><path fill="#FBFCFA" d="M340.8 337.3l-.7.2-1.7.4h-1c-.3 0-.6 0-1 .3h-1c-1.7 8.3-9.3 14.5-18 14.5h-.2l-1.5 2.2h1.8c9.2 0 17.2-6 20-14.7 4.4-.4 8.4-2 12-4.5 1-2 2.2-3.8 3.6-5.8-3 3-6.8 5.6-11 7-.3 0-.7.3-1.2.3zM317 352.7h.3v-.4l-.2.4z"/><path fill="#FBFCFA" d="M333.2 338.2c-1.8 7-7.6 11.6-14.5 12.3l-1.3 2v.4c9 0 16.3-6.4 18-14.6h1c-1.2-.2-2-.2-3.2-.2zM338.4 338h-1 1zM340.8 337.3l-.7.2.8-.2zM355 327c-2 2.7-4 5-6.8 6.7-2 1.3-4 2.2-6 3 4.2-1.2 8-3.7 11-6.8.4-1 1-2 1.7-3 0 .2 0 0 0 0zM362.3 316.5c1.6-2.2 3-4.2 5-6.5-1.4 1-3 2.2-4.6 3-.2 1.3-.4 2.4-.4 3.5zM382 281c0-.2 0-.4.3-.7l-.2-.4v1zM374.3 294.2c0 1 0 1.6-.2 2.5.5-1 1.2-2.5 2-3.8 0-.3 0-.5.3-.8l-2 2z"/><path fill="#FBFCFA" d="M372 293v1.2c0 7.8-4.8 14.7-11.7 17.4v.2c0 3.8-.7 7-2.2 10.5l4-5.6c.3-1 .5-2.2.5-3.4 1.6-1 3-1.8 4.5-3l4.2-5c.7-2.5 1.6-5 3-8.3v-2.5l2-1.8c1.7-3.8 3.7-7.4 5.7-11.2v-1c-.6-1.4-1-3-1.7-4.3 0 6.4-3.3 12.6-8.2 17zM355 327s0 .2 0 0c.3-.7.8-1.3 1.2-2 0 0 0-.2-.2-.2-.2 1-.7 1.5-1 2.2z"/><path fill="#FBFCFA" d="M382 281l-6 11.2c3-3.2 5-7.2 6-11.2zM371.4 305l.2-.3c1.3-2.5 2.2-5 2.7-7.8-1.3 2.8-2.2 5.4-3 8zM357 322.3c0 1-.6 1.8-1 2.7 0 0 0 .2.2.2.4-.7 1-1.3 1.3-2 0-.4-.2-.7-.4-1zM358 244s.2 0 0 0l-.2-.3.2.4zM319.2 335.7c-1.6.4-3 1.8-4 3l-8 8c1.8 1.5 4 2.4 6.3 3l9.8-14.3c-1.5 0-2.8 0-4 .3zM304 350.2c2 1.6 4.2 3 6.7 3.8l1.3-2c-2.5-.7-4.7-1.8-6.5-3.4l-1.5 1.6z"/><path fill="#FBFCFA" d="M305.5 348.4c2 1.6 4 2.7 6.5 3.4l1.3-2c-2.5-.7-4.5-1.6-6.3-3l-1.5 1.6zM326.5 336.6l-1-.4-9.7 14h1.3v2-2h1.4l9.2-13.5h-1zM313 354.5l2.6.4 1.6-2.3c-1 0-1.8 0-2.7-.2l-1.4 2z"/><path fill="#FBFCFA" d="M317.4 350.5H316l-1.2 2c1 .2 1.8.2 2.7.2l.2-.4v-1.8h-.3z"/><path fill="#FBFCFA" d="M317.4 352.2l1.3-2-1.3.2v1.8zM323.2 335.7l-9.8 14.3c1 .2 1.6.4 2.5.4l9.5-14-2.3-.7zM384.4 286c-.3-1-.6-2-1-2.8l.2-.3-1-2.8c-.3.2-.3.4-.5.7-.2 1.3-2.3 3.7-5 6.4 2.2-3.4 3.5-7.5 3.5-11.7l-3-6c.6 1.8.2 1.7-.5 0-1.8-3.5-3.8-6.6-6-9.7-2-2-4.6-3.6-7.5-4.5 3 1 5.6 2.5 7.8 4.5l-4-5.4c-1.3-1.8-2.7-3.4-4.2-5l-3.7-4.6-1-1v.3h-.2l.2-.2h-.2c-.2-.3-.4-.3-.7-.3-.7 0-1.8 1.3-2.5 2l-.2.4c-7 8.8-14 16.2-21.2 22-1 1.3-1.6 2.7-1.8 4.2v2.6c0-1-.2-1.8 0-2.6 0-1.6.8-3 1.7-4.2l-3.8 3c-6 4.5-12 7.7-18 10.2l-3.2 1.2h-.3-.2l1.8 2.8c2 3.4 4.8 8 6.8 13.2 3-2.7 6.3-5 9.4-7.8l1.7-1.6h.2l2-1.6c1-1.2 2.2-2 3-3l-1.7-4.2c.7 1.3 1 3 1.8 4.2.7-.4 1-1 1.8-1.6.7-.3 1-1 1.8-1.5l9.7-8.5c3-2.5 6.4-5.4 10.8-6.5 4.7-1 10.5 1 12 6 1.7 5.4-2.4 9.4-6 13-1.5 1.3-3 3-4 4.5-2.8 4.5-2 10-1.5 16 .2 1.7.4 3.5.4 5 .2-.7.7-1 1.3-1.3 1-.4 2-1 3-1.6-.7.6-1.6 1-2.6 1.6-.7.2-1 .7-1.3 1.3.3 2.4.3 4.8 0 7.3 0 1.3-.3 2.7-.8 4l.4.7c.2-.2.4-.4.4-1 1.6-3 2.3-6.5 2.3-10.3 5-2 8.8-6 10.6-11 1.8.4 3.5.5 4 0 1.4-1.7 2.8-3 4-4l.8-1.6c0 .7-.3 1.2-.8 1.7 2.7-2.5 5-4.2 7-5-.6-2.2-1-4-1.6-5.7zm-55.2-12.8zm35-19.7c.4 0 1 .3 1.4.5l-1.5-.5c0-.7-.2-1.3-.4-2l.5 2zm5 39.8v-.2s0-.3.2-.5l.3.7h-.4zm6 6.8c.5-1.3 1-2.8 2-4.5l-2 4.6zM310.7 353.8c.7.2 1.6.4 2.2.7l1.2-2-2.5-.4-1 1.8z"/><path fill="#FBFCFA" d="M312 352c.7.2 1.6.4 2.5.4l1.3-2c-1 0-1.6-.2-2.5-.4l-1.3 2zM290.3 449l.2-1.6c-.4.4-.4 1-.2 1.6zM261.8 477.3c-.4-5-1-9.8-1.6-14.7.7 4.7 1 9.6 1.6 14.7zM262 479.6v-1.3c-.2.4-.2.8 0 1.3zM164 362.7c.6.2 1 .4 1.7 1-.7-.5-1-.7-1.8-1zM152.3 358.7l1.6.4c-.6 0-1 0-1.7-.3zM161 361.4l1.6.7-1.6-.6zM175 369c-.8-.7-1.7-1-2.6-1.8 1 .5 1.8 1 2.7 1.8z"/><g fill="#FBFCFA"><path d="M222 352c-1.6 5.6-5.3 10.2-10 12.8 3.7 1.3 7.5 3.4 11.5 5.8 3.2-2.5 6.5-5 10-7.4.8-.4 1.4-1 2-1.3l-12.8-12.6c-.2 1-.2 1.8-.7 2.7z"/><path d="M223 346.4l14 14c9.5-7 19-14.4 29-22-6.6-1-13.5-3.4-21-6.3-5.5-2-12.8-5.6-19.6-10.7l.3-.4c-.7-.5-1-1-1.8-1.4-3 3.8-3 4-.4.3-.6-.5-1-1-1.6-1.3-7-6-13.4-13.8-16-23.5-.6.2-1 .7-1.7 1 0 3 0 5-1.3 6-.7.4-1.3.7-2 .7h-1c-2.4 2.3-2.3 2.3 0-.2 0-.2.3-.4.8-.2.7 0 1.6-.2 2-.7 1.3-1.2 1-3.2 1-6.4l-2 1v.6l-1.8.8c-.3 0-.3.2-.3.4-1 .2-2 .7-2.7 1.6-4 3.7-4 3.6 0-.2 1-.7 1.8-1.3 2.7-1.6v-.4c-3.4 1.6-7 3-11 4.5-12.6 5-25.8 10.5-31 17.2-6.4 8.5-8.6 18.3-10 30 2.7-.3 5.4-.5 8.3-.5 17 .3 32.7 4.8 46.3 13 1 .3 8.5-.6 2.5.5 1.3.2 2.7.7 4 1 5.7-2.4 5.8-2 0 0l3 1.2c4.8-2.7 8.4-14.8 8.4-14.8l.3-3c0-.2 0 1.8-.3 3l15 11.7c.8-.4 1.4-1 2-1.3l-14.3-14zm.8-23.2c-2 2.6-4.7 4.7-7.6 6.3 2.8-1.8 5.4-4 7.6-6.3zm-15 7l1.7 1c2 1.4 3.8 3.2 5 5.3-1.2-2-2.8-3.6-4.8-5l-2-1.3zm9.4 14.5v.2L196 322.6l22.2 22zm0 3l.2-1.7c0 .7 0 1.3-.2 1.8zm-24.6-24.5v.7-.8zm27 21v-.2l-3-2.6v-.3.2l2.8 2.5c-.7-6-.5-6 .2 0l2 1.7v.6l-2-2z"/><path d="M147.8 349.8l-.2 2.5C158.3 354 168 358 176 363c3-1 8.2-2 15-2 3.3 0 7 .2 11.3 1-13.6-8.2-29.5-12.6-46.2-12.6-2.6 0-5.5.2-8.2.4z"/></g><path fill="#FBFCFA" d="M166.8 364c.7.3 1 .8 1.8 1l-1.8-1zM148.3 357.8l-1-.2 1 .2zM149.6 358c.4 0 1 .3 1.6.5l-1.6-.4zM158 360.5l1.7.7c-.5-.5-1-.5-1.6-.7zM155.2 359.6l1.6.4c-.5-.2-1-.4-1.6-.4zM169.5 365.4c.7.4 1 .7 1.8 1-.5 0-1-.5-1.8-1z"/><path fill="#D3A789" d="M356.2 329.7c-.4.7-1 1-1.6 1.8-4 6.5-7.6 13-10.3 18.5l.4 3 2.2-1c0-.7-.3-1.3-.3-1.8 3-6 6.5-12.5 10.5-18.8l-1-1.6c.3 0 .3 0 0 0z"/><path fill="#D3A789" d="M355 331.2c.3-.7 1-1 1.5-1.8l-.2-.2-1.4 2zM359 325.4c7.2-5 9-9.4 10.8-15.2-3 4-6.5 8.5-9.6 13l-1 2.2zM365 248.4l3.5 4.5c2.2 1 4.2 2.4 6 4-3-4-6.3-8.2-10-12.4l-1.2.4c.8 1 1.2 2.3 1.6 3.4z"/><path fill="#D3A789" d="M359 325.2v.2c.5-.7.8-1.3 1.2-2.2l-1.3 2zM361 243.5l4 5c-.5-1.2-1-2.6-1.7-3.7.4 0 .7-.2 1-.4-.3-.7-1-1.3-1.5-1.8-1 .2-1.8.4-2.7.4.5.2.7.2 1 .5zM372.8 258.4c2.5 3.4 4.5 6.7 6.5 10.3-1.2-4-3.4-7.6-6.5-10.3zM360.3 243c1 0 1.8-.2 2.7-.4-.2-.2-.2-.4-.4-.4l-1.3-1.3-1.6 1.5c.3 0 .6.3.6.5zM358.5 328.6l-.7-1-1.6 2h.2l1 1.7 2.4-3.8-1.3 1zM373.4 306c-.4 2-1 3.8-1.6 5.4 1-1.6 2.5-3 3.6-4.2l1.6-5.4c-1 1.3-2.5 2.6-3.6 4.2z"/><path fill="#D3A789" d="M356.2 329.2l.2.2c.4-.7 1-1.3 1.6-2l-.2-.4c-.7 1-1 1.6-1.6 2.2zM358.2 241.5c.4-.4 1-1 1.8-1h1.2c-.8-.3-1.2-.8-2-1l-1.7 1.8c.3.2.5.2.7.2z"/><path fill="#D3A789" d="M359 325.2l-1.4 2 .2.4c.4-.7 1-1.3 1.3-2.2v-.2zM360.3 240.8h-.2c-.6 0-1.2.2-1.7 1 .4 0 1 .3 1.6.8l1.5-1.6s-.2 0-.2-.2c-.4-.2-.6 0-1 0zM246 330c7.2 3 14.8 5.5 22.4 6.6l2.5-2c-7.5-1-15.3-3-24-6.7-5.4-2.3-12.5-5.7-19.2-10.6l-1 2c6 4.5 12.6 8 19.3 10.7zM306.2 284l-3.6-1c3 4.7 7 11.4 9.8 18.3.7-.4 1-1 1.8-1.6-2-5.5-5-11-8-15.6zM204 293.3l.8-.4h-.7v.3z"/><path fill="#D3A789" d="M227.5 321c.4-.8 0-3 .3-3.6-.7-.4-1-1-1.8-1.3-.4.8-2.7 1.4-3 2l4.5 3z"/><path fill="#D3A789" d="M223 316.6c.6.4 1 1 1.7 1.6.4-.7 1-1.3 1-2-.6-.4-1-1-1.7-1.6-.2.7-.7 1.3-1 2zM302 280.3s0 .2 0 0l2.2.7 3.8-1-3.8-1.2-.7.2c-.6.2-1.3.7-1.5 1.3zM304.2 281.2l-2.2-.7c-.2.7-.2 1.3.2 2l.4.7 3.6 1-2-3zM144.7 357.2c-.2 0-.7 0-1-.2.3.2.8.2 1 .2z"/><path fill="#FBFCFA" d="M348.8 335c-3.8 2.4-7.6 3.8-11.7 4.5h-.5l-.2.7c-2.6 8.4-10.2 14-19 14h-.3l.3-.4h-2-.2.2l-1.4-.4-2-.6-.8-.4-.3.4c-2.4-1-4.2-2-5.7-3.4l-.7-.7-.7.7c-12.4 13.2-23.3 28-33.4 42l-.7 1-.5.6c0 .2-.2.3-.3.5l-.2-.2-.6 1-1.2 1.6-.7.8.3.2-2 2.7c-2.8 4.2-6 8.5-8.8 12.8l-.3.4v.4c.4 1 .8 2.3 1 3.4l1 3.4c5.7 25 9 47.6 10 67.5 0 9 0 16-.3 22.2l-.2 1H302v-1.5l-.7-2.2-.7-2-.6-1.8-.2-.7h-2.5c-11 0-20.2-9-20.2-20.2 0-9.4 6.5-17.4 15.6-19.5l2-.4-1.7-1.3c-2.3-1.6-3.5-4.3-3-6.8l.8-5.4v-.5l.2-.8 13.4-70.6c.4-1.7 1.4-3.2 3-4.2 2.4-1.7 15.5-10.6 35.3-18.4l.7-.3v-.6l-.4-3c.2-.3.4-.7.4-1 1.7-4 4-8.3 6.8-12.8l2-3.5-3.4 2z"/><path fill="#D3A789" d="M386.4 291.5c-2 1-4.5 3-7 5-1 2-1.7 3.7-2 5.2 4.8-5.4 9.3-8.7 12-9l-3-9.7-1.4 2.7c0 2 .7 3.8 1.4 5.8zM329.4 271c.4-1.7 1-3.2 2-4.6-7 5.8-15.2 10.7-23.7 13.6l3.4 1c6.4-2.2 12.4-5.8 18.4-10zM367 310c-1.6 2-3.4 4.2-5 6.5-.3 2.5-1 4.7-2 6.7 3.2-4.7 6.6-9 9.7-13 .2-.7.4-1.6.7-2.2l.7-2.7c-1 1.8-2.3 3.4-4 4.7zM368.7 252.8c-1-1.6-2.5-3-3.6-4.5.5 1 .8 2.2 1 3.4l2.7 1zM371.2 260c2.2 3 4.2 6.3 6 9.6-1-3.8-3-7-6-9.6z"/><path fill="#D3A789" d="M362.3 316.5l-4 5.6c-.2.3-.2.8-.4 1l1 2c.4-.7 1-1 1.3-1.8.8-2 1.5-4.2 2-6.7zM367 310c1.6-1.3 3-3 4.2-5l.2-.3-4.4 5.3zM359.8 243c1.3 2 2.2 4.2 3 6.5 1.7 1.8 3 3.6 4.3 5 2 1 4 2.3 5.7 4-1.3-2-2.7-4-4.2-5.7-1-.4-1.8-1-2.7-1-.2-1.2-.7-2.3-1-3.5-1.2-1.6-2.6-3-4-5 0 0-.3-.3-.3-.6-.2.3-.5.3-.7.3z"/><path fill="#D3A789" d="M359 245l4 4.5c-.8-2.2-2-4.5-3.2-6.5h.4c-.2-.2-.4-.4-.7-.4l-1.6 1.6c.5.2 1 .4 1 .8zM357.8 323.2c.2-.2.2-.7.4-1-.2 0-.4.6-.4 1-.2-.2 0-.2 0 0zM375 300.6c-.7 1.8-1 3.6-1.8 5.4 1.3-1.6 2.5-3 3.6-4l2-5c-1 .7-2.5 2.3-3.8 3.6zM355 327.5c.5.7.8 1 1.2 1.8.4-.7 1-1.3 1.3-2.2l-1-1.7-1.4 2.2zM356.2 325c-.4.7-1 1.3-1.3 2.2v.4l1.4-2c0-.4-.2-.4-.2-.6z"/><path fill="#D3A789" d="M371.6 304.4l-.4.7-.7 2.8c-.2.7-.4 1.6-.7 2.2 1-1.6 2.5-3 3.6-4.2.4-1.6 1-3.4 1.8-5.4-1.3 1.6-2.4 2.7-3.6 4zM356.5 325.4c.4.7.7 1 1 1.8l1.4-2-1.2-2-1.3 2.2z"/><path fill="#D3A789" d="M371.2 305.3l.4-.7-.2.2c-.2 0-.2.3-.2.5zM356.2 325l.2.4 1.3-2.2v-.2l-1.5 2zM357.8 244h.4l1.6-1.5c-.4-.4-1-.7-1.6-1l-.2.3c-.4.6-.4 1.4-.2 2zM245.2 332.4c7.4 3 14.3 5 20.8 6.3 1-.7 1.6-1.3 2.5-1.8-7.6-1.2-15.2-3.7-22.3-6.6-6.7-2.7-14.7-7.8-20.5-12.2-.4.7-.6 2-1 2.5 6.8 4.8 15 9.2 20.5 11.7zM309.6 285.2l-3.4-1c3 4.4 5.6 10.4 7.6 16 .7-.4 1.6-1.4 2.3-2-1.8-4.8-4.4-9.4-6.4-13z"/><path fill="#D3A789" d="M225.3 321.2c.4-.7 1-1 1.3-1.8-.7-.4-1-1-1.8-1.3-.4.8-1 1.4-1.3 2 .7.3 1.2.8 1.8 1.2z"/><path fill="#D3A789" d="M223.6 320c.4-.8 1-1.2 1.3-2-.8-.3-1.2-.8-2-1.5-.3.7-.8 1.3-1.2 1.8.6.7 1 1 1.8 1.6zM311.3 281.2l-3.4-1c-1.2.3-2.6.8-4 1l4 1c1 0 2.2-.5 3.3-1z"/><path fill="#D3A789" d="M307.8 282.3l-3.6-1.3 2 3 3.4 1.2c-.7-1-1.4-2-1.8-3zM145.4 357.4h-.4c0-.2.2 0 .4 0zM147.2 357.6h-.4.4z"/><path fill="#F2CEB6" d="M313 510h1.7s0-.3-.2-.3l-1.4.2zM476.8 510c1.3-3.6 2-6 3.2-10 1.6.5 5-.3 7-.3 9 0 14-8.3 14-17.4 0-9-8.5-17-17.3-17.2-2 16.2-7.5 32.3-15.5 45h8.6zM315.2 507.6c-.4-.7-1.5-2.8-1.7-3.5-6.7-12-12.5-24.3-14.3-39-.4 0-1.3-.2-1.7-.4v1.8c-9.2 0-16.5 7.4-16.5 16.5s6.8 17.6 16 17.6c1.7 0 3 1 4.5.6.7 2.7 2.6 3 3.5 5.5l.7 2c.2.4 0 1 .2 1.5l8.6-.4h.2c-.3-.5 1-1.5.4-2.2z"/><path fill="#D3957D" d="M489.6 462.7l-4.3 1.2c-.2 0-.6 0-1 .2-.3.8-.3 1.3-.3 2 9 .4 16 7.6 16 16.5 0 9.2-7.5 16.5-16.6 16.5-1.8 0-3.4-.2-5-.7-1 3.8-2 7.6-3.7 11.4h4.6l2-6h1.8c11.7 0 21.3-9.4 21.3-21.2 0-9.4-6.3-17.4-14.7-20zM305.8 508.8l-.7-2-2.4-8c-1.6.4-3 .7-5 .7-9 0-16.4-7.4-16.4-16.5s7.4-16.5 16.5-16.5v-1.8c-.7-.2-1.6-.7-2.2-1-.4 0-1 0-1-.3-.5-.2-1.2-.4-1.7-1-9.4 2.3-16.3 10.6-16.3 20.6 0 11.6 9.4 21.2 21.2 21.2h1.8c.4 1.3 1 2.5 1.3 3.8l.7 2.2s0-.2 0 0h4.9c-.5-1-.6-1-.6-1.4z"/><path fill="#EFC2A0" d="M229 381.5l1 1-1-1zM233.4 385.5c7.8 7.8 13.4 17.4 17 28-3.6-10.6-9.2-20.2-17-28zM334.8 288.8zM334.8 288.8l3 1-1.2-2.8-1.8 1.8zM343.3 296.4l2.7 5.8 2.7-4-5.4-1.8zM340.4 295.5l-3-1 6 12 1.2-2c-1.3-3.2-3-6-4.2-9zM334.8 288.8c-.7.7-1.3 1-2 1.8l3.4 1-1.4-2.8z"/><path fill="#EFC2A0" d="M334.8 288.8c.4 1 1 1.8 1.3 3l3 .8c-.4-1-1-1.8-1.3-3l-3-.8zM344.4 308.7c.4.7 1 1.6 1 2.2l1.7-2.3-1-2.2-1.6 2.2z"/><path fill="#EFC2A0" d="M340.6 290.8l-3-1 1.4 3 3 1-1.4-3zM332.6 290.6c-.7.7-1.3 1-2 1.8l6.7 2.2c-.4-1-1-1.8-1.3-3l-3.4-1zM346 306.5c-.4-.7-1-1.6-1-2.2l-1.4 2c.4.7 1 1.6 1 2.2l1.4-2zM299 331.2l-3.5 1.6 1 .2v2c.8-.2 1.7-.7 2.3-1 0-1.2 0-2 .3-2.8zM301 332.8c0-.4.3-1 .3-1.6v-1c-.7.3-1.6.6-2.2 1v2.7c.5-.5 1.2-1 2-1.2zM298.6 334.2v-.2c-.7.2-1.6.7-2.2 1 0 .8 0 1.5.2 2 .7 0 1.3-.3 2.2-.8l-.2-2z"/><path fill="#EFC2A0" d="M365 273.8c-.8-2.5-4.3-3.6-6.8-3-3.4.8-6.3 3.2-8.7 5.5l-11 9.4c-.6.4-1 1-1.7 1.6l1 2.7 3 1c.4.8 1 1.7 1.3 2.8l-2.8-1-3-.8c.5 1 1 1.8 1.4 3l3 .8c1.4 3 3 6 4.3 9l1 2c.4.8 1 1.7 1 2.3l-1.5 2.3c-.4-.7-1-1.6-1-2.2-.5-.6-1-1.5-1.2-2-2-4-4-8-5.8-12.2l-6.7-2.2c-4.2 3.6-8.5 7-12.7 10.7-.6.4-1.2 1-1.7 1.6-.7.3-1.3 1-2 1.5-8.3 6.7-16.3 13.2-24 19.7-.8.4-1.4 1-2 1.6-.6.4-1.2 1-1.7 1.6-3 2.2-5.6 4.5-8.5 6.7-.8.8-1.7 1.4-2.6 2l-2.7 2c-10.7 8.6-21.4 16.6-31.7 24.2l-1.8 1.3-1.8 1.3-9.4 6.7 5.4 4.2c9.6 8.3 17 18.5 21.7 30.4l10-14c.3-.7.8-1.3 1.2-1.8l1.3-1.8c10.5-15 21.7-29.5 34-43 .4-.6 1-1 1.6-1.7l1.7-1.8c2.7-2.8 5-5.5 8-8 1.6-1.4 3.4-3.2 5.8-4 3-1 5.6-.5 8.3 0l2 .8h.2c1 .2 1.6.4 2.2.7h.4c4.7 1 10 0 14.7-3 3-2 5-4.8 6.7-7.7.4-1 1-1.8 1-2.7.3-.6.5-1.5.5-2v-1.4c.2-3-.2-6.5-.7-9.8l-.7-5.6c0-2 0-4 .3-6 .4-2.5 1-5 2.7-7.4 1.3-1.8 3-3.6 4.7-5 3-4 5-6.3 4.2-9zM296.5 337l-.2-2v-.8-1.3c-.4 0-.7 0-1-.3 1.2-.4 2.4-1 3.5-1.6.6-.3 1.5-.6 2-1 0 .2.3.7 0 1v1.7l-2.3 1v.3c0 .7 0 1.3.2 2-.8.4-1.5.8-2.4 1zm49.6-34.8l-2.7-5.8 5.6 1.8-2.8 4z"/><path fill="#D3957D" d="M284.3 327.2l-1.6-1.6c-4 3-7.8 6.3-11.8 9.4l3.3.4 10-8.2zM312.5 301.5l-26 21.2c.3.7 1 1 1.5 1.6l25.5-20.5-1-2.3zM284.3 327.2c.7-.4 1-1 1.8-1.3-.3-.5-1-1.2-1.5-1.7-.7.4-1 1-1.8 1.3.5.5 1.2 1 1.6 1.6zM286 325.7c.8-.4 1.2-1 2-1.3-.8-.4-1.2-1-1.7-1.6-.7.4-1 1-1.8 1.3l1.6 1.7zM225.6 371.7l9.6-7-1.6-1.5-10 7.4 2 1zM252 419s0-.2 0 0c0-1-.3-2-.6-3l.7 3zM341.5 334.8c5-1.8 9.4-5 12.3-9.4l-.2-.4c-2.7 4.5-7.2 8-12 9.8zM340.4 335l-.7.2.7-.2zM338 335.7l-.8.2c.3-.3.7-.3 1-.3zM334 286.6l-1-2.2c-1 1-2.2 1.8-3 2.7l2.4 1c.4-.5.8-1 1.5-1.4zM337.5 338h-1c.3.2.5 0 1 0zM340.2 337.5l-1.8.4c.6-.3 1-.3 1.8-.5zM342.2 336.8c-.4.2-1 .2-1 .4 0 0 .5 0 1-.4z"/><path fill="#D3957D" d="M335.7 285c-.2-.7-.7-1.3-1-2.2-.6.4-1 1-1.7 1.6.2.7.7 1.6 1 2.2.3-.5 1-1 1.7-1.6zM353.6 325l.2.4 1.3-2.2c0-.2 0-.4-.3-.7l-1 2.5z"/><path fill="#D3957D" d="M354.8 323l-1.3 2.2c.4.7.7 1 1 1.8l1.4-2.2c-.5-.7-.8-1.4-1.2-1.8zM335.7 285c.7-.4 1-1 1.8-1.6-.2-.7-.7-1.3-1-2.2-.6.4-1 1-1.7 1.6.2 1 .4 1.5 1 2.2zM355.6 319.4c-.2 1-.4 2-1 3 .3 0 .3.3.5.6.5-1 1-1.6 1.2-2.5l-.6-1zM238.7 362c10.3-7.5 20.3-15 30.2-23-1 0-2 0-3.2-.3l-28.8 22 1.7 1.4zM325.6 290.6c-3 2.7-6.3 5-9.4 7.8.2.7.7 1.6 1 2.2 3.7-3 7.3-6.3 11-9.2l-2.6-.8zM304 350.2l1.6-1.6c-.7-.4-1-1-1.6-1.6l-1.6 1.6c.5.5 1 1.2 1.6 1.6z"/><path fill="#D3957D" d="M305.5 348.4l1.6-1.6c-.6-.4-1-1-1.5-1.6l-1.6 1.6c.4.8 1 1.2 1.5 1.6zM235.2 364.8c.7-.4 1-1 1.8-1.3l-1.6-1.6c-.7.3-1.3.8-1.8 1.2l1.6 1.6zM332 288l-2.4-1c-.7.7-1.3 1-2 1.8l2.5 1c.8-.8 1.4-1.2 2-2zM325.4 336.4l1 .4 1.2.4 1.3-2c-.8-.2-1.7-.4-2.3-.7l-1.3 2zM356 295.7l-1-.4-.3 2.2 1.3-1.8zM237 363.4l1.8-1.3-1.6-1.5-1.8 1.3 1.6 1.6zM268.5 391.3l-1.3 1.8 1.6 1.7 1.3-1.8-1.5-1.7z"/><path fill="#D3957D" d="M324.5 333.7l-1.3 2c.7.2 1.6.4 2.2.7l1.3-2-2.2-.7zM327.6 288.8c-.7.7-1.3 1-2 1.8l2.5 1c.8-.8 1.4-1.2 2-2l-2.4-.8zM271.6 337.3c1-.7 1.8-1.3 2.5-2-1 0-2-.2-3.3-.4-1 .6-1.6 1.2-2.5 2 1.4-.2 2.3 0 3.4.3zM314.2 300c-.7.4-1 1-1.8 1.6.2.7.4 1.6 1 2.2.6-.4 1.2-1 1.7-1.6 0-1-.3-1.6-.8-2.2z"/><path fill="#D3957D" d="M269 339c1-.6 2-1.2 2.6-2-1 0-2.2 0-3-.3-1 .7-1.7 1.3-2.6 1.8 1 .3 2 .6 3 .6zM316.3 298.4c-.7.4-1.3 1-1.8 1.6.2.7.7 1.6 1 2.2.6-.4 1.2-1 1.7-1.6-.5-.6-.7-1.5-1-2.2zM286 328.6c-.6-.4-1-1-1.7-1.6-3.4 2.7-6.7 5.4-10.3 8l3.4.2 8.7-6.6zM314 306c-.2-.7-.4-1.6-.7-2.2l-25.5 20.5c.7.4 1 1 1.8 1.3 8-6.2 16.2-13 24.4-19.6zM288 327.2c-.8-.4-1.2-1-2-1.6-.6.4-1 1-1.7 1.3.4.3 1 1 1.8 1.5.8-.4 1.4-.8 2-1.3z"/><path fill="#D3957D" d="M290 325.7c-.8-.4-1.4-1-2-1.3-.6.4-1 1-1.7 1.3.7.4 1 1 1.8 1.6.6-.5 1.2-1.2 2-1.6zM227.6 373.2l9.4-6.7-1.6-1.6c-3 2.4-6.5 4.6-9.6 6.8l1.8 1.4zM250.4 413.4c.2 1 .7 1.8 1 2.7l-1-2.6zM334.8 288.8c-.2-.7-.7-1.3-1-2.2-.3.4-1 1-1.5 1.3l2.5.8zM339.7 335.3l-1.6.4 1.7-.4zM341.5 334.8c-.4.2-.7.2-1 .2l1-.2zM337.2 335.7h-1 1zM349.3 276.3c2.5-2.2 5.4-4.7 8.7-5.4 2.7-.8 6 .3 6.7 2.8 1 2.7-1.3 5-4.7 8.3-1.6 1.7-3.4 3.5-4.7 5.2-1.6 2.2-2.5 5-2.7 7.4l2.2.7c.2-2.5 1-4.7 2.5-6.7 3.6-5.4 11.6-9.2 9.8-15.4-1-3.6-5.5-5.4-9.3-4.5s-7 3.4-9.6 5.8c-3.3 3-6.8 5.8-10.4 9l1 2c3.3-3 7-6 10.7-9.2z"/><path fill="#D3957D" d="M334.8 288.8c.7-.4 1-1 1.8-1.6-.2-.7-.7-1.3-1-2.2-.6.4-1.2 1-1.7 1.6 0 .6.3 1.5.8 2.2zM336.6 287.2c.7-.4 1-1 1.8-1.6-.2-.7-.7-1.3-1-2.2-.6.4-1 1-1.7 1.6.2.7.7 1.6 1 2.2zM353.8 317.6c0 .7-.2 1.6-.4 2.2.4 1 1 1.8 1.6 2.5l1-3c-.8-1-1.4-2-2-3-.2.4-.2 1-.2 1.3zM240.5 363.6c10.5-7.6 21-16 31.7-24-1 0-2-.3-3-.5-10 7.7-20.2 15.5-30.3 23l1.5 1.6zM328 291.5l-11 9.2c0 .7.3 1.6.6 2.2l12.7-10.8-2.2-.7zM304 343.5l-1.6 1.8c.4.7 1 1 1.6 1.8l1.6-1.5c-.7-1-1.2-1.3-1.6-2zM236.7 366.3l1.8-1.3-1.6-1.6c-.8.4-1.2 1-2 1.3l1.7 1.6zM264.2 393.6l1.6 1.6 1.3-1.8-1.5-1.6-1.3 1.8zM332 288l-2 1.7 2.6 1 2-2-2.5-.8zM326.7 334.4c.7.2 1.6.4 2.2.7l1.2-2c-.7 0-1.6-.3-2.2-.6l-1.3 2zM352.7 301l2.2-3.2v-2.2l-2-.7c-.6 1.6-.6 3.6-.3 6z"/><path fill="#D3957D" d="M238.5 365c.7-.4 1-1 1.8-1.3l-1.6-1.6c-.7.5-1 1-1.8 1.4l1.5 1.6zM267 393.3l1.4-1.8-1.6-1.6-1.3 1.7 1.6 1.6zM326.7 334.4l1.3-2h-.2l-2-.7-1.3 2c1 .2 1.6.5 2.2.7zM330 289.7c-.6.7-1.2 1-2 1.8l2.6 1 2-2-2.5-.8zM277.6 335.3c-1 0-2.2 0-3.4-.2l-2.5 2c1 .3 2.2.3 3.4.3.8-.5 1.7-1 2.6-2zM315 302.2c-.6.4-1.2 1-1.7 1.6.2 1 .4 1.6.7 2.2.7-.4 1.3-1 2-1.6-.4-.6-.6-1.5-1-2.2z"/><path fill="#D3957D" d="M272.3 339.5l2.7-2-3.4-.2c-1 .7-1.8 1.3-2.5 2l3.3.2zM317 300.6c-.8.4-1.4 1-2 1.6l.8 2.2c.7-.4 1.3-1 1.8-1.6 0-.6-.2-1.5-.7-2.2z"/><path fill="#403942" d="M437.5 467.7c-15.6 2.7-33.3 7.6-52.5 7.6-24.8 0-52-7.2-69.6-5-.7.2-1.3-.3-2.2-.6l-2.2-.7c-2.5-.7-4.7-1.6-7-2.5.3 3.8-1.3 7.6-.4 11.4.2.8-.2 1.8 0 2.7 2.6 8.7 7.3 16.8 11.6 24.3.4.7-.2 1 0 1.8.4.7 1.6 1 2 2 .2.2 2.5.8 2.8 1h143.4c8.5-12.7 16.5-21 16.5-47.4-10.3 3.2-25.5 2.4-42.5 5.3z"/><path fill="#231F20" d="M483 466.2V465c-.3 0-.8 0-1.2.3-2 16.5-8.8 31.4-17 44.6h4.3c8-12.7 13-27.5 15-43.6l-1-.2z"/><path fill="#231F20" d="M483 466.2h1l.2-1.8-1 .2v1.6zM463 509.8h3c8.2-13 14.3-28.4 16.4-45-.7.3-2.2.6-3 1-2 16.4-8.2 31.3-16.5 44zM319.4 509c-.4-.7-1-1.3-1.3-2.2-.3-.7-.8-1.3-1-2-4.2-7.4-7.8-15.6-10-24.3-.5-.4-.8-1.3-.8-2v-.2c-1-3.8-1.6-7.4-2.2-11.4-1-.3-1.6-.8-2.5-1s-1.6-.7-2.5-1c1.6 14.8 6.3 28.5 13 40.5.4.7 1 1.3 1 2 .5.7 1 1.3 1.4 2.2 0 0 0 .2.2.2h5.4c-.4-.3-.4-.7-.6-1z"/><path fill="#231F20" d="M306 478.4c0 1 .2 1.6.7 2l-.7-2.5v.4z"/><path fill="#B53D3A" d="M348.2 361.4c-.2-1.8-.4-3.4-.7-4.7-.7.2-1.6.4-2.2 1l.7 5.3 2.2-1.6zM298.2 452.3l.2-7.8c-.7 5-1 10-1 15.2l1 .4-.2-7.7zM484.7 452.3c0 2.5 0 5-.2 7.4l1-.2c0-3.8-.3-7.4-.8-11v3.8zM412.7 474l-34 1h6.5c9.5.3 18.8 0 27.5-1zM379.2 355c-4 .8-8 1.7-11.8 2.8 3.6-1 7.4-1.6 11.2-2l.6-.7zM344.6 369c-2.5 1.6-4.7 3.4-7 5l7-4.6v-.4zM349 366.3c-.8.4-1.4 1-2.3 1.3v1c.7-.5 1.3-.8 2.2-1.2v-1z"/><path fill="#B53D3A" d="M347 368.5v-1l-2 1.4v.6l2-1zM366.7 355.8c5-1.6 10-2.7 15.2-3.4l2.4-2.5c-13 1-25.2 5-36 11.3 0 .4 0 .7.2 1 5.6-2.7 11.7-5 18-6.5zM344 364c-3.2 2-6 4.3-9 6.8 3-2.2 6-4 9.2-5.8-.3-.5-.3-.7-.3-1zM348.4 362.5c0-.4 0-.7-.2-1l-2.2 1.2c0 .2 0 .7.2 1 .7-.5 1.3-.7 2.2-1.2z"/><path fill="#B53D3A" d="M346.2 363.6c0-.4 0-.7-.2-1l-2 1.4v1l2.2-1.4zM482.2 460h1c0-4-.3-8-.8-12v4c0 3 0 5.7-.2 8zM432.8 363c15.4 8.7 28 22 37 38.2 8 13.6 13 29.7 15 47-.8-18-5.7-35-14-49.5-3.3-5.6-7.3-10.7-11.5-15.4-7.7-8.7-16.6-15.4-26.5-20.3zM366.7 355.8c-6.3 1.6-12.5 3.8-18.3 6.7 0 .4 0 1 .2 1.3 5.6-3.3 11.7-6 18-8z"/><path fill="#B53D3A" d="M348.4 364c0-.5 0-1-.2-1.4l-2.2 1 .2 1.7c1-.5 1.5-1 2.2-1.4z"/><path fill="#B53D3A" d="M346.2 363.6l-2.2 1 .2 1.7c.7-.4 1.3-1 2-1.3.2-.2 0-1 0-1.4zM382 352.5c-5.2.7-10.4 1.8-15.3 3.4 4.7-1.2 9.6-2 14.5-2.6l.7-1zM348.4 364l-2.2 1.2c0 .2 0 .7.2 1 .7-.5 1.3-.8 2.2-1.2 0-.5 0-.7-.2-1zM367.4 357.8c-6.5 1.6-12.7 4-18.8 7 0 .5 0 1 .2 1.4 6-3.5 12-6.4 18.6-8.4zM478.6 370c-.2-.8-.7-1.7-1.6-2.4-28.8-17.6-67.7-20.3-78.4-20.8l4.2 3.6 3.4 3 1.3 1 2.5 2 1.3 1 4.2 3.5 17.2 14.2 1 1.3c0 .4 8.8 54 6.2 93.8 17-3 30.7-6.7 40-9.4l2-.8c.3-2.7.3-5.4.3-8v-4c.4 3.8.7 7.8.7 11.8.4-.2 1-.2 1.3-.4.2-2.5.2-5 .2-7.4v-4c-1.8-17.4-7-33.3-15-47-8.7-16.4-21.7-29.6-37-38.3 10 4.8 19 11.5 26.5 20 4.5 4.7 8.3 9.8 11.6 15.4C479 413 483.8 430 484.4 448c.4 3.6.7 7.4.7 11l2.3-.8c.4-.2 1-.4 1.6-.4 1.5-.4 2.4-2 2-3.6l-12.4-84zM347.5 356.7l.7 4.7c11-6.3 23.2-10.3 36-11.4l2.5-2.5c-14.6 1.6-27.8 5-39.2 9.2z"/><path fill="#B53D3A" d="M349 367.4l-2.3 1c-.7.5-1.3 1-2.2 1.4-2.5 1.3-4.7 3-7 4.7 2.3-1.8 4.6-3.6 7-5l-.2-2c.7-.3 1.3-.8 2.2-1 0-.2 0-.7-.2-1l-2 1.4-.2-1.7c-3 1.8-6.2 3.8-9 5.8 2.8-2.4 5.7-4.6 8.8-6.6.7-.4 1.3-1 2-1.3l-.7-5.3-2 1c-17 6.4-28.7 14-33.6 17.5-.7.4-1 1.3-1.3 2.2l-7 37.5-7.6 39.4c-.2 1.3.4 2.7 1.6 3.4l.4.2 1.8.7c0-5 .4-10.3 1-15.2V460l2.3 1 2.2 1c3 1 5.8 2 9 2.8l2 .7 2.3.7c11.8 3.4 24 5.8 37 7.4-.3-4.2-.3-10.5 0-17.6v-2.5-2.5-2.5-4.2c.3-5 .8-10.5 1-16 1.8-24.7 4.2-49.5 4.5-51.3 0-.4.2-1 .7-1.3l16.3-17 2.5-2.7c-3.8.4-7.6 1-11.2 2-6.5 2-12.7 5-18.5 8.5.6.3.6.5.6 1z"/><path fill="#B53D3A" d="M348.4 364c0 .3 0 .6.2 1 6-3 12.3-5.4 18.8-7 3.8-1.2 7.8-2.3 11.8-2.8l1.8-2c-5 .4-9.8 1.3-14.5 2.5-6.2 2-12.3 4.8-18 8.2zM349 366.3c0-.4 0-1-.3-1.3l-2.2 1 .2 1.7 2.2-1.4zM346.4 366c-.7.5-1.3 1-2.2 1.2l.2 1.8c.7-.4 1.3-1 2-1.3.2-.5.2-1.2 0-1.6z"/><path fill="#962424" d="M389 345l2-1.7c.3-.4.8-.7 1.5-.7-17 1-32.4 5-45.3 9.6l.2 2.2c12-4.4 26-8 41.7-9.3z"/><path fill="#962424" d="M395.8 344.6c1 0 48.2.2 82.4 21.2 1.3 1 2.5 2.2 2.7 4l12.6 84.2c.4 2.7-1 5.4-3.8 6.3l-2.2.7v1.3l1.8.4 1-.4c3.7-1.3 6-5 5.2-8.7L483 369.4c-.5-2.2-2-4.2-4-5.6-34.5-21.2-81.4-21.4-83.4-21.4-1 0-2.2 0-3.4.2l1.6.4 2 1.6zM293.6 462v-2.3c-1-1.3-1.8-3-1.6-5l1-5c-.3.2-.5.4-1 .4-.7 0-1-.3-1.3-.8l-1 5.4c-.6 3 .8 6.3 3.5 7.8.2-.3.4-.3.4-.5zM304 377.3l-13.4 70.4c.2-.2.4-.4 1-.4s1 .4 1.2 1l13.4-70.5c.2-1.3 1-2.7 2.2-3.6 4.5-3 17-11.2 34.6-18l-.2-2.6c-17.6 7-30.4 15-35.5 18.5-1.8 1.2-3 3-3.3 5.3z"/><path fill="#962424" d="M292 450c.3 0 .6-.3.8-.5l.2-1.6c-.2-.5-.7-1-1.3-1-.4 0-.7.2-1 .4v1.6c0 .4.5 1 1.2 1zM345 355c.8 0 1.4-.3 2.3-.8l-.2-2.2c-.6.2-1.5.4-2 1v2zM343 356c.8-.2 1.4-.7 2.3-1l-.2-2c-.6 0-1.5.3-2 .8-.2.5-.2 1.3 0 2.2zM297.5 462v2.4l1.6.7v-2.6c-.6 0-1-.3-1.5-.5zM487.6 462v-1.2l-2.2.7v2.4l4.2-1.4-2-.7zM295.3 463.5V462v-1s-.2 0-.2-.2c-.6-.2-1.2-.7-2-1.3V462h-.3c.4 0 1 .6 1.6.8 0 .5.5.5 1 .7zM484 464.4c.4-.2 1-.2 1.3-.4v-2-.4l-1 .4c0 .8 0 1.5-.3 2.4z"/><path fill="#962424" d="M297.5 462l-2.2-1v2.5c.7.2 1.6.7 2.2 1v-2.6zM435.3 473.5c-22 3.6-48.7 5.6-76.8 2.7 0 1-.7 1.8-1.8 2h-.4c-1 0-2-.7-2.2-1.8v-.7c-12.6-1.6-25.3-3.8-38-7.6l-.8 2.3c21.7 6.3 45 9.4 70 9.4 19 0 37.2-2 52.8-4.5-.2 0-.4.2-1 0-.8 0-1.7-.8-1.7-1.7zM439.8 473.3c0 1-.7 1.8-1.6 2 17.2-3 31.5-6.5 41.3-9.4l.2-2.6c-9.6 3-23.2 6.5-40 9.4v.5zM311.6 467l-8-2.7.2 2.5c2.5 1 4.7 1.6 7 2.5.3-1 .5-1.8.8-2.3z"/><path fill="#962424" d="M313.8 467.5l-.7 2.2 2.3.7c.2-1 .4-1.6.7-2.2l-2.2-.7z"/><path fill="#962424" d="M311 469l2 .8.8-2.2-2.2-.7c-.3.5-.5 1.4-.7 2zM481.8 465c.4-.2 1-.2 1.3-.4V462c-.3.3-.6.3-1 .5l-.2 2.5zM298.8 462.4l.2 2.7c1 .3 1.6.8 2.5 1l-.2-2.5-2.5-1z"/><path fill="#962424" d="M483 464.6l1.2-.2.2-2.5c-.4 0-1 0-1 .3-.3.7-.3 1.6-.3 2.3zM479.7 463.5l-.2 2.5 2.5-.7.2-2.5c-1 0-1.8.2-2.5.7zM303.5 464c-1 0-1.6-.6-2.5-.8l.2 2.5c1 .2 1.6.7 2.5 1l-.2-2.6zM477 367.7c1 .4 1.4 1.3 1.7 2.5l12.7 84.2c.2 1.6-.7 3-2.2 3.6-.4.2-1 .4-1.6.4v2.5l2.2-.8c2.5-1 4-3.6 3.8-6.3L481 369.6c-.3-1.6-1.4-3-2.8-4-34.2-21-81.5-21.2-82.4-21.2l3 2.2c10.6.6 49.5 3.3 78.3 21zM386.6 347.6l2.5-2.5c-15.5 1.4-29.6 5-41.7 9.5l.2 2.2c11.4-4.2 24.6-7.6 39-9zM306.2 377.5L292.8 448c.2.3 0 1-.2 1.5l-1 5c-.3 2 .3 3.7 1.7 5 .2-15 2.7-29 7.6-42.2 0-.7.3-1.3.6-1.8l7-37.5c.3-1 .8-1.6 1.4-2.2 5-3.4 16.8-11 33.5-17.6l-.2-2.2c-17.6 7-30 15-34.6 18-1.4.8-2.3 2-2.5 3.5z"/><path fill="#962424" d="M292.8 447.8l-.2 1.6c.2-.2.4-1 .2-1.6zM347.5 356.7l-.2-2.2c-.7.2-1.6.4-2.2 1l.3 2 2.2-.8z"/><path fill="#962424" d="M343.3 358.3c.7-.2 1.3-.7 2.2-1l-.2-2c-.7 0-1.6.3-2.2.8 0 .7.3 1.4.3 2.3zM298.6 460l-1-.5v2.5c.3.2.8.4 1.2.4-.2-.7-.2-1.6-.2-2.5zM485.3 459.2v2.5c1-.2 1.6-.4 2.2-.7v-2.5c-.6.3-1.3.5-2.2.7zM294.8 461s.2 0 .2.2v-2.5c-1-.7-1.8-2-1.6-3.4l7.6-39.5-.7 1.8c-4.7 13-7.4 27.2-7.6 42.2.8.3 1.4.8 2 1.2zM484.4 459.5c0 1 0 1.6-.2 2.5l1-.4V459c0 .2-.3.5-.8.5z"/><path fill="#962424" d="M297.5 462v-2.6l-1.8-.7-.4-.2v2.5c.6.5 1.3.7 2.2 1zM412.7 474c-8.7 1-18 1.3-27.7 1.3h-6.5l-20.3.7v.2c28 2.7 54.7.7 76.8-2.7v-.2l-22.3.7zM439.8 473c16.5-3 30.4-6.6 40-9.5l.2-2.5c-9.2 3-23 6.5-40 9.4-.2 1-.2 1.6-.2 2.5zM316.5 466.2l-.4 2.2c12.8 3.6 25.6 6 38 7.6v-2.2c-13.4-1.8-25.7-4.3-37.5-7.6zM312 464.8l-9-3c0 1 .3 1.7.3 2.6l8 2.7c.5-.8.7-1.5.7-2.2zM314.2 465.5l-.4 2.2 2.2.7c.2-1 .4-1.6.4-2.2-.6-.3-1.5-.5-2.2-.7z"/><path fill="#962424" d="M313.8 467.5c.2-1 .4-1.6.4-2.2-.7-.2-1.6-.4-2.2-.7l-.4 2.2c.6.5 1.3.5 2.2.7zM482 462.6l1-.4v-.4-2l-.8.2-.2 2.6zM298.6 460c0 .8 0 1.5.2 2.4 1 .2 1.6.7 2.5 1l-.2-2.6c-.8-.2-1.7-.5-2.4-1zM483 462v.3c.5-.2 1-.2 1.2-.4l.2-2.6c-.4.2-1 .2-1.3.4v2z"/><path fill="#962424" d="M482 462.6l.2-2.5-2.2.8-.2 2.5c.6-.3 1.5-.5 2.2-.7zM300.8 460.8l.2 2.5c1 .2 1.6.7 2.5 1l-.2-2.6c-1-.2-1.6-.5-2.5-1z"/><path fill="#B53D3A" d="M395 349.8l-2.3-2-1.8 1.8h.6l3.3.2zM390.2 355c4 0 8 .3 12 1l-1.2-1c-3-.5-6.3-.8-9.6-.8-1.8 0-3.4 0-5 .2l-1 1c1.7-.3 3.2-.3 4.8-.3z"/><path fill="#B53D3A" d="M391.5 352l6.5.2-3-2.5h-4l-2.2 2.2h2.7zM429.3 378.2l-23.5-19.4-3.4-2.7c-4-.3-8-.8-12-.8-1.7 0-3.2 0-4.8.2L383 358 363.5 378c-.7 5.8-4 41.5-5.4 68.8 0 1 0 2-.2 3 0 1 0 2-.2 2.8v5.7c-.2 6.7 0 12.3.4 16 6.7.6 13.6 1 20.8 1.2l34-1c7.8-.8 15.4-2 22.6-3 2.6-37.3-5-86.6-6-93.5z"/><path fill="#B53D3A" d="M401 354.7l-1.7-1.6-1.3-1c-2-.2-4.2-.2-6.5-.2h-3l-.8 1-1.6 1.5 5.2-.2 10 .7zM435 473c0-.6 0-1 .3-1.7-7 1-14.5 2.2-22.6 3l22.3-1v-.2zM358.2 476l20.3-.7c-7-.2-13.8-.7-20.8-1.3l.2 1.6c.5.2.2.2.2.4z"/><path fill="#962424" d="M392.4 342.4zM438.2 475.3s-.2 0 0 0c-.2 0 0 0 0 0zM403 350.5l-4.3-3.6h-3-.6l4 3c1.2 0 2.6.2 4 .5zM387.7 349.8l2.5-2.5-3.4.2-2.5 2.5 3.4-.2zM355.6 457c-.7-.2-1-.7-1.8-1h-.4c-.2 7.3-.2 13.5.2 17.5l2.2.2c-.5-3.7-.5-9.8-.2-16.7zM359 376.6c0 1.8-2.6 26.6-4.4 51.4 0 3 .2 5.4 0 7-.2 3.5.2 6 1.3 8.4 1.5-29.5 5.3-66.6 5.3-66.6l18.3-19-3.6.4-16.3 17c-.3.5-.6 1-.6 1.4zM431.3 376.8s9.2 53.8 6.3 93.8l2.2-.4c2.7-39.8-6.3-93.4-6.3-93.8s-.4-1-1-1.3l-17-14.2c-2-.4-3.5-1-5.2-1.3l21 17.3zM355.8 450.7c-1-.7-1.6-1.6-2.2-2.5v2.5c.7.4 1.6 1 2.2 1v-1zM353.8 456c.7.3 1 .8 1.8 1v-2.5c-.7-.4-1.6-1-2.2-1v2.4h.4zM354.7 435c.2-1.7.2-4 0-7l-1 16c.5 1.2 1.4 2.4 2 3.5l.3-4c-1-2.4-1.6-5-1.3-8.4z"/><path fill="#962424" d="M355.6 454.5V452c-.7-.4-1.6-1-2.2-1v2.4l2.2 1zM355.8 450.7c0-1 0-2 .2-3-1-1.2-1.6-2.3-2-3.7l-.2 4.2c.4.8 1 1.7 2 2.5zM382 355.4l.8-.7-3.6.4-.7.8 3.6-.4zM406.7 356.5c1.6.2 3 .7 4.7 1l-1.3-1.2-4.6-1 1.3 1.2z"/><path fill="#962424" d="M382 355.4c-1 0-2.4.2-3.5.4l-2.5 2.7 3.6-.4 2.5-2.6zM415.6 361l-4.2-3.4-4.7-1 3.6 3.2c1.8.3 3.6.7 5.3 1.2zM406.3 353.4l-3.4-3c-1.4 0-2.8 0-4-.3l3 2.8c1.4 0 3 0 4.3.6zM385.3 352.2l2.2-2.5-3.4.2-2.4 2.4c1.4-.2 2.6-.2 3.7-.2z"/><path fill="#962424" d="M407.6 354.5l-1.3-1-4.2-.8 1.4 1c1.3 0 3 .3 4.2.8zM384.6 353l.7-1-3.4.2-.8.7h3.4z"/><path fill="#962424" d="M384.6 353h-3.4l-1.8 2 3.6-.3 1.6-1.8zM405.4 355.4c1.6.2 3 .7 4.7 1l-2.4-2-4.5-.8 2.4 1.8zM389 345h3.5c1 0 2.2-.3 3.4-.3l-2-1.6c-.5-.3-1-.3-1.7-.3-.4 0-1 .2-1.6.7L389 345zM356.2 476l-2.2-.2c0 .2 0 .4.2.7.2 1 1 1.8 2.2 1.8h.4c1-.2 1.6-1 1.8-2-1 0-1.7 0-2.4-.3zM437.3 473l-2.2.5c.3 1 1 1.8 2 1.8h1c1-.2 1.6-1 1.6-2v-.7c-.7.3-1.4.5-2.3.5zM390.2 347.3l2.5-2.5-3.4.2-2.5 2.5c1-.2 2.3-.2 3.4-.2z"/><path fill="#962424" d="M395.8 347h3l-3-2.3c-1 0-2.2 0-3.4.2l2.7 2h.8zM437.3 473c.7 0 1.6 0 2.2-.3l.2-2.5-2.2.4c0 1 0 1.8-.2 2.5zM355.8 473.8l-2.2-.2.2 2.2 2.2.2-.2-2.2zM435.3 473.5l2-.4H435c.3.3.3.5.3.5zM356.2 476l2.2.2v-.2h-2.2zM391 349.6l1.7-1.8 2.2 2 3.7.2-3.8-3h-5l-2.5 2.6c1.3.2 2.2.2 3.4 0zM355.8 473.8l2.2.2c-.4-3.6-.4-9.2-.4-16l-2.2-1c0 7 0 13 .4 16.8zM363.6 378l19.7-20.4-3.6.2-18.3 19s-3.8 37-5.4 66.6c.4 1 1.3 2.2 2 3 1.4-27 5-62.7 5.6-68.5z"/><path fill="#962424" d="M435.3 471.3l2.2-.4c3-40-6.3-94-6.3-94l-21-17.3-4.7-1 23.5 19.5c1.4 7 9 56.2 6.3 93zM357.8 453.2v-.7c-1-.7-1.6-1-2.2-1.8v1.3l.2.2c1 0 1.5.6 2 1zM358 450c0-1.2 0-2 .2-3.2-1-1-1.6-2-2-3l-.2 4c.5.5 1 1.4 2 2zM357.8 458v-2.4c-.7-.4-1.6-1-2.2-1v2.4c.6.4 1.3.7 2.2 1z"/><path fill="#962424" d="M357.8 453.2l-2-1-.2-.3v2.4c.7.4 1.6 1 2.2 1v-2.2zM358 450c-1-.8-1.6-1.4-2.2-2.3 0 1 0 2.2-.2 3 .7.8 1.3 1.4 2.2 2 .2-1 .2-2 .2-2.8zM402.2 355.8l4.5.7-1.3-1-4.2-.8 1 1zM386.4 354.3l-3.4.2-.7.7 3.4-.2.7-.7z"/><path fill="#962424" d="M405.8 358.7c1.6.2 3 .7 4.7 1l-3.6-3.2-4.6-.7 3.4 3zM383.3 357.6l2.5-2.5c-1 0-2.2.3-3.4.3l-2.5 2.5 3.3-.2zM402 352.7l-3-2.7-4-.2 3 2.5c1.3 0 2.7.2 4 .4zM388.6 352l2.2-2.2h-3.4l-2.2 2.5c1.2-.3 2.3-.3 3.4-.3z"/><path fill="#962424" d="M387.7 353l1-1c-1.2 0-2.3 0-3.5.2l-.7 1c1.2-.3 2.3-.3 3.2-.3zM403.4 353.6l-1.3-1c-1.2-.3-2.6-.3-4-.5l1.4 1.2c1 .2 2.6.4 4 .4z"/><path fill="#962424" d="M386.4 354.3l1.6-1.6c-1 0-2.2 0-3.4.2l-1.6 1.7 3.4-.4zM405.4 355.4l-2-1.8c-1.3-.2-2.7-.4-4-.4l1.8 1.6c1.3 0 2.6.3 4.2.6zM392.4 345zM437.3 473zM356.2 476zM395 347l-2.6-2.3-2.5 2.5c1.7 0 3.3-.3 5-.3zM435 473v.3h2.3l.2-2.2c-.7.3-1.6.3-2.2.5 0 .2 0 1-.2 1.6zM356.2 476h2.2v-.4l-.2-1.6-2.2-.2c-.2.8 0 1.5.2 2.2z"/><path fill="#231F20" d="M28.8 506.8c-.2-3-.4-5.8-.4-9v-3-5.4C28 443.2 39.6 375 107 358.7l3.8-1c-1-1.5-2.2-3.3-3-5l-2 .4c-25 6-45 19.8-59 40.3-11 16.3-18.4 37-21.8 61.2-3 20.8-2.5 40-1.3 54.8h5.5c-.3-1-.4-1.6-.4-2.5zM117.5 357c.4 0 1 0 1.3-.3h1.4c5.8-2.5 12-4.5 18.5-5.6-2.7 0-5.4-.3-8.3-.3-7.6 0-13.8.7-18.3 1.3 1 2 2.3 3.8 3.7 5h1.8z"/><path fill="#231F20" d="M113 357.4c-1.3-1.6-2.5-3.4-3-5-1 0-1.7 0-2.3.3.7 1.8 1.8 3.6 3 5 .5 0 1.4 0 2.3-.3z"/><path fill="#231F20" d="M115.5 357.2h.4c-1.7-1.6-3-3-3.7-5-1 0-1.6 0-2.2.3 1 2 2 3.6 3.2 5 .5 0 1.4-.3 2.3-.3-.3 0 0 0 0 0zM202.3 362l1.3.8 1.3-.2c-1 0-1.8-.3-2.7-.5zM262.2 485.3c2-2.7 3.5-7 3.5-10.5 0-4.7-2-9.2-5.4-12 .7 4.6-.6 11.7-.2 16.8"/><path fill="#231F20" d="M268 487.6c-1-25.7-5.8-51-9.8-67.7-.4-2.5-1.8-7-1.7-7-.2-1-2-4.6-2-5.5-1.8 1.8-3.8 1.6-5 3.6l2.6 7.8c.3.7-5.5 3.3-5.2 4 2.5 10.3 8.7 23.7 10.7 40 3.4 3 2.6 7.3 2.6 12 0 3.8 4.4 7 2.3 9.7.4 8.5.6 16.4 0 25h5.6c.2-7 .2-14 0-22z"/><path fill="#231F20" d="M251 412.6l-.7 1c.2.8.7 1.7 1 2.6 1.2-2 2.6-3.8 4-5.8-.3-1-.8-1.8-1-2.7l-3.3 5z"/><path fill="#403942" d="M107 358.7h.2-.2zM73.7 373.5c2.2-1.6 4.7-3 7-4.7-2.3 1.3-4.8 3-7 4.7zM108 358.5s0-.2 0 0c0-.2 0 0 0 0zM108.5 358.3H108.4zM109.6 358h0zM29.2 462.8c.4-3.8 1-7.6 1.6-11.4-.7 4-1 7.8-1.6 11.4zM64 381.3c3-3 6.4-5.4 9.7-7.8-3.6 2.2-6.7 5-9.6 7.8zM31.5 447.8c.7-3.8 1.6-7.6 2.5-11.4-1 3.6-2 7.4-2.5 11.4zM28 488v-3.4 3.4zM53.4 393.3c1.6-2.2 3.4-4.2 5-6.3-1.7 2-3.5 4-5 6.3zM38.6 421.3l3-7.4c-1.2 2.3-2 4.8-3 7.3zM45 406.7c1.7-3.6 3.7-7 6-10.3l-6 10.3zM85 366.8c2.6-1.3 5.3-2.7 8.2-3.8-3 1-6 2.4-8.3 3.8zM120 356.7h-1 1zM117.5 357h-.4 1c-.3-.3-.3 0-.5 0zM116 357zM112 357.6h.8-.7zM110.8 357.8h.4-.4zM116 357h-.7c.2.2.4.2.6 0zM113.4 357.4H113.5zM124 356.3H123.8zM121.3 356.5H121.3zM217 373.2l1 1h.4c-.4-.5-1-.7-1.5-1zM175 369z"/><path fill="#403942" d="M218.2 374.4l1.6 1.6 1-.7c-.8-.4-1.4-1-2.3-1.3 0 0-.3 0-.3.4zM28 488v-3.4c0-7 .5-14.3 1.2-21.7.4-4 1-7.7 1.6-11.5l.7-3.8c.7-3.8 1.6-7.6 2.5-11.4 1.3-5 3-10 4.7-15l3-7.4c1-2.6 2-4.8 3.3-7.2 1.8-3.6 3.8-7 6-10.3.7-1 1.6-2.2 2.2-3.4 1.6-2 3.4-4 5-6.2 2-2 3.7-4 5.7-5.8 2.8-3 6.2-5.4 9.5-7.8 2.2-1.6 4.7-3 7-4.7l4-2c2.6-1.3 5.3-2.7 8.2-3.8 4.2-1.8 9-3 13.8-4.2h.2c.2 0 .4 0 .7-.2h.2c.2 0 .4 0 .7-.2H110c-2.6.5-4 1-4 1-67.2 16.5-78.8 84.6-78.3 130.8.4-1 .4-1.3.4-1.8zM119 356.7zM116 357c.3 0 .6 0 1-.3-.4.2-.7.2-1 .2zM120.4 356.5h-.7H120.3zM118.8 356.7c-.4 0-1 0-1.3.2h.4c0-.3.6-.3.8-.3zM110.8 357.8h.4c.2 0 .7 0 1-.2h1l-2.4.2c-.3 0-.3 0 0 0-.3 0 0 0 0 0zM113.4 357.4h.7c.3 0 .8 0 1-.2l-2.2.2h.6zM116 357h-.5c0 .2.2.2.4 0zM129.7 356H129.6zM120.8 356.5h-.4.4zM124.2 356.3h1-1zM126.8 356.3h1-1zM122 356.5h1-1zM262.2 484.5c.4 8.5.4 8.7 0 0z"/><path fill="#403942" d="M218.4 374c-.4 0-1-.6-1.6-.8.7.3 1.2.5 1.6 1z"/><path fill="#403942" d="M202 368c4.8.8 9.7 2.6 15 5.3-5.3-3-10.2-4.5-15-5.4zM262.2 484.5l-.2-5 .2 5zM261.8 478.2v-1 1zM191 366.5c2 0 4 .2 6.6.4-13-1.7-22.3 1.7-22.6 2 0 0 6.3-2.5 16-2.5zM202 367.7l-2-.4c.6 0 1.2.4 2 .4 0 .2 0 .2 0 0zM200 367.4l-2.3-.4 2.2.4zM230 382.4l3.4 3-3.4-3zM229 381.5c-2-1.8-4-3.6-6.4-5 2 1.7 4.3 3.2 6.5 5zM220.7 375.2c-.7-.4-1.3-1-2-1.3.4.4 1.3.8 2 1.2zM220.7 375.2c.7.4 1.3 1 2 1.3l-2-1.3zM133 356.3h1.5H133zM123.3 356.3h.7-.7zM128 356h1.1-1zM121 356.5h0zM135.6 356.3c.4 0 1 0 1.8.2h-.4c-.6-.2-1-.2-1.4-.2zM125.5 356.3h1-1zM138.2 356.5l2 .2h-.7c-.4-.2-.8-.2-1.3-.2zM130.4 356h1.6H130.4zM142.5 357c-.4 0-1-.3-1.6-.3h-.3l1.8.2zM175 369c-.6-.8-1.3-1-2.4-1.8-.2-.2-1-.4-1-.7l-2-1-1-.8c-.7-.2-1-.7-1.8-1-.4 0-1-.5-1.3-.5-.7-.2-1 0-1.6-.6-.5-.2-1.4-.7-1.8-.7l-1.2-.6c-.4-.2-1 0-1.3-.3-.4 0-1-.3-1.6-.6l-1.2-.4c-.4-.2-1-.4-1.6-.4-.4-.2-1-.2-1.3-.4l-1.7-.4-1.3-.2-1.6-.4-1.3-.2-1-.2c4 .7 9.2 2.8 13.3 4.3 5.4 2 9.8 3.5 14.8 7zM142.5 357h0zM143.8 357.2c.2 0 .7 0 1 .2-.3-.2-.8-.2-1-.2zM147.2 357.6h-.4-.2.6zM145.4 357.4h-.4l1.6.2c-.5-.2-1-.2-1.2-.2zM28.8 506.8c-.2-3-.4-5.8-.4-9 0 3.2.2 6 .4 9zM28 489.4v0zM118.8 356.7zM127.7 356c.3 0 .3 0 0 0zM125.3 356.3s.2 0 0 0c.2 0 .2 0 0 0 .2 0 0 0 0 0zM142.5 357zM126.6 356.3h.2-.2zM139.8 356.5H141.4c-.7.2-1.2.2-1.6 0zM123 356.3c.3 0 .3 0 0 0zM134.2 356.3h1.2-1.2zM137 356.3h1.2c-.4.2-1 .2-1.3 0zM130.2 356h.2-.2zM129 356h1-1zM131.8 356h1c-.4.3-.8.3-1 0zM120.8 356.5s.2 0 0 0c.2 0 .2 0 0 0 .2 0 0 0 0 0z"/><path fill="#403942" d="M154 359.2l1.2.4c-.4-.2-1-.2-1.3-.4zM156.8 360c.4.3 1 .3 1.3.5l-1.2-.4zM160 361l1.2.4c-.6 0-1-.2-1.3-.4zM148.3 357.8l1.3.2-1.3-.2zM151.2 358.5l1.3.2-1.3-.2zM171.5 366.5l1 .7c-.5-.2-.8-.4-1-.7zM162.8 362c.4.3 1 .3 1.3.5-.5 0-1-.2-1.2-.4zM168.4 365l1 .7c0-.3-.6-.5-1-.7zM165.7 363.4c.4.2.7.4 1 .4-.3 0-.8-.2-1-.4zM143.4 357H144c-.4 0-1 0-1.3-.3.2.2.4.2.7.2zM146.5 357.6l-1-.2s.6 0 1 .2c-.2-.2 0-.2 0 0zM114.8 359.2l2.2-1c-.4-.3-1-.8-1-1.2h-.8c-.4 0-.7 0-1 .2h-1c.5 1 1 1.5 1.6 2zM206 382.8h3.2c-.4-.4-1-1-1.3-1-.7.2-1.4.6-2 1zM28 488v0zM108 358.3c.3 0 .5 0 .8-.2-.3.3-.5.3-.7.3zM109 358h.4-.4zM107.2 358.5c.2 0 .4 0 .7-.2l-.8.2zM110.5 357.8h-.4.5zM120 356.7h.3c-.2-.2-.4-.2-.4 0zM119 356.7c-.2 0-.2 0 0 0-.4 0-.7 0-1 .2 0-.3.6-.3 1-.3zM116 357c.3 0 .6 0 1-.3-.4.2-.7.2-1 .2zM113 357.4h-.4.4zM110.8 357.8s-.3 0 0 0c-.3 0-.3 0 0 0-.3 0 0 0 0 0zM111.2 357.8c.2 0 .7 0 1-.2-.5 0-.8 0-1 .2zM138.2 356.5h-.7.7zM120.4 356.5h.7-.6zM126.8 356.3s-.2 0 0 0h1-1zM133 356.3h-1.2 1zM124.2 356.3h0zM122 356.5h.8c-.2-.2-.4 0-1 0zM135.6 356.3h-1 1zM129.7 356h-.7.7zM141 356.7h-.8.7z"/><path fill="#403942" d="M143.6 357.2h-.4c.2-.3.4-.3.4 0zM146.5 357.6c0-.2-.2-.2 0 0-.2-.2 0-.2 0 0zM181.3 389.5c.2-1 .4-1.6.4-2.5l-1-.4.6 3zM209 382.8l.4.4c.2-.2.4-.2.4-.4h-.8z"/><path fill="#403942" d="M209.5 383c.7.5 1 1.2 1.8 1.7l2.7-2h-3.8c-.3 0-.5.4-.7.4zM180.7 386.4l.7 3-.7-3zM180.7 386.4h-1c.5.2.8 0 1 0zM143.8 387c-.7 0-1.6-.3-2.2-.5l-.4 2.2 2.2.4.4-2zM113 357.4h0z"/><path fill="#403942" d="M262 484.5v-5-1.4-.8c-.5-5-1-9.8-1.7-14.7-2-16.3-5-31-7.6-41.5l-.7-2-.7-3c-.2-.8-.7-1.7-1-2.6-3.5-10.5-9.3-20-17-28-1-1-2-2-3.3-3l-1-1c-2-1.7-4-3.5-6.4-4.8l-1.3 1c-.4-.8-1-1.2-1.6-1.7l-1.6-1.7-1-1c-5-2.8-10.3-4.6-15-5.5l-2.2-.4c-.7-.2-1.6-.2-2.2-.2-2.5-.2-4.7-.4-6.7-.4-9.7 0-16 2.5-16 2.5-8.7-6.3-18.5-9.6-28-11.4h-.6-.2c-.4 0-1-.3-1.6-.3l-1-.2h-1.1l-1.8-.2h-.7l-2.3-.2h-11.5c-2.2-.2-6.3-.5-6.3-.3h-1c-.4 0-.7 0-1 .2h-1c-.3 0-5.2.3-7.6.6H108.8s-.4 0-.7.2l-.8.2h-.2c-5 1-9.6 2.7-13.8 4.2-3 1-5.6 2.5-8.3 3.8l-4 2c-2.4 1.3-4.8 3-7 4.7-3.4 2.5-6.7 5-9.6 7.8-2 1.8-3.8 3.8-5.6 5.8-1.8 2-3.4 4-5 6.3-1 1-1.7 2.2-2.3 3.4-2.2 3.4-4.2 6.7-6 10.3-1 2.2-2.5 4.7-3.4 7-1 2.6-2 5-2.8 7.5-1.8 5-3.4 10-4.7 15-1 3.8-1.8 7.6-2.5 11.4l-.7 3.8c-.7 3.8-1 7.6-1.6 11.4-.7 7.6-1 14.7-1 21.7v4.8c0 7.6.3 14.5.8 20.5H262c.5-7.6.5-16 0-24.8z"/><path fill="#387BBF" d="M298.2 181c-28 34.3-61 42.8-99 11.7s-46-84-18-118.4 81.5-37 119.7-6 25.3 78.2-2.8 112.6z"/><path fill="#2C5FA8" d="M244.8 214.2c-15.2 0-30.8-6.7-47-19.7-39-31.7-47-86.2-18.2-121.5 14.7-18.3 37.3-28.6 62-28.6 21.8 0 43.2 7.8 60.6 22 18 14.8 26.4 34.5 24.3 57-1.8 19.3-11.4 40-26.6 58.8-17.5 21.3-36 32-55.2 32zm-3-165.3c-23.6 0-45 9.7-58.8 26.7-27.2 33.3-19.2 85 17.6 115.3 15.2 12.3 30 18.5 44 18.5 18 0 35.3-10.3 51.6-30.2 14.7-18 24-38.2 25.7-56.3 2-21.2-5.7-39-22.7-53.2-16.6-13.3-37-21-57.6-21z"/><path fill="none" d="M263 238.8h-.8c-19.4 0-35.3-14.3-35.3-32v-1h71v1c.2 17.7-15.7 32-35 32z"/><path fill="#D3957D" d="M184.7 189.2c-1.3.4-3 .7-4.2.7-8 0-14.5-6.6-14.5-14.6s6.5-14.5 14.5-14.5v-4-2l-5.4 1.2c-8.4 2.5-14.4 10-14.4 19.2 0 11 9 20 20 20h.3c1.2 4 2.6 7.7 4.4 11.5h6c-2.7-5.7-5-11.8-6.7-17.8zM179 159.3l.6 1.6s-6.3-.3-11 6l-3-1.2 7.8-6.5h5.5z"/><path fill="#EFC2A0" d="M261.8 259.3c-35.3 0-66.8-27-78.6-67.2-1 .3-1.8.3-2.7.3H179c-8-.7-14.4-7-15.3-15-.4-4.7 1-9.6 4.2-13.2 2.6-2.8 6.2-4.8 10.2-5.3V157c0-26.7 8.7-50.8 24.3-68C218 72.2 239 63 261.7 63c24.3 0 43.6 10.8 57 31.8 7 11.4 12 24.6 13.6 38.6l.2 2.2c1.8 14.5 2 29.3.7 43.8v.4c-1 8.3-2.7 16.3-5.4 23.7-13.3 36.6-36.3 55.8-66 55.8z"/><path fill="#D3957D" d="M261.8 65.5c25 0 42.7 11.2 55 30.6 7 11.5 11.5 24.4 13.3 37.6l.3 2.2c1.8 14.3 2 28.8.7 43v.5c-.7 7.8-2.5 15.6-5.4 23.2-11.8 32.2-32.4 54.3-64 54.3-35.8 0-66.2-28.4-77.2-67.7-1.3.5-3 .8-4.2.8H179c-7-.7-12.6-6-13.3-13-1-8.7 5.8-16.3 14.5-16.3V157c0-55 36.4-91.5 81.6-91.5m0-4.5c-23.5 0-45 9.4-61 26.6-7.8 8.7-14 18.8-18.3 30.4-4.5 11.8-6.7 25-6.7 39-3.8.8-7 2.8-9.6 5.7-3.6 4-5.4 9.4-4.7 15 1 9 8.3 16 17.2 17h2.8c12.8 40.2 44.5 67 80.5 67 30.8 0 54.5-19.7 68.3-57.2 3-7.8 4.7-16 5.6-24.3v-.4c1.2-14.7 1-29.5-.8-44.2l-.2-2.2c-1.8-14.3-6.7-28-14-39.5-6.8-10.6-15-19-24.4-24.2-10.5-6-22-8.8-34.8-8.8z"/><path fill="#CFAE84" d="M201.4 239.7"/><path fill="#D3957D" d="M292 189.2c-.5 0-1 0-1.2-.2-10.3-6.3-20.5-.2-21 0-1 .7-2.5.2-3-1s-.3-2.4.8-3c.4-.2 13-7.6 25.7 0 1 .7 1.3 2 1 3-.8.7-1.5 1.2-2.4 1.2z"/><path fill="#231F20" d="M310.4 166c-2.7 0-5-2.7-5-6.5 0-3.6 2-6.5 5-6.5s5 2.7 5 6.5c0 3.6-2.3 6.5-5 6.5z"/><path fill="#231F20" d="M310.4 166.2c-3 0-5-3-5-6.7 0-3.8 2-6.7 5-6.7s5 3 5 6.7c.2 3.8-2 6.7-5 6.7zm0-12.7c-2.7 0-4.5 2.7-4.5 6 0 3.6 2 6 4.4 6s4.5-2.7 4.5-6c0-3.6-2-6-4.6-6zM240 166.4c-2.8 0-5-2.7-5-6.5 0-3.7 2-6.6 5-6.6 2.6 0 4.8 2.7 4.8 6.5 0 3.5-2.3 6.4-5 6.4z"/><path fill="#231F20" d="M240 166.6c-3 0-5.2-3-5.2-6.7 0-4 2.2-6.8 5-6.8s5.2 3 5.2 6.7-2.2 6.6-5 6.6zm0-12.7c-2.8 0-4.6 2.6-4.6 6 0 3.5 2 6 4.5 6s4.4-2.8 4.4-6c0-3.6-2-6-4.5-6z"/><circle fill="none" cx="312.2" cy="157.7" r="1.8"/><circle fill="none" cx="243" cy="157.7" r="1.8"/><path fill="#EA7D96" d="M275.6 224.3c-6 0-12-1-17.6-3.4-1.3-.5-5-2.6-7-5.2-.8-1-.8-2.5.3-3 1-.8 2.5-.8 3 .3 1.4 2 4.3 3.5 5.2 4 9.4 3.7 20 4 29.5.8 1-.4 2.5.2 3 1.3.3 1.2-.3 2.6-1.4 3-4.7 1.4-10 2.3-15 2.3z"/><path fill="#D3957D" d="M184.4 189.4c-1.3.4-3 .7-4.2.7-8 0-14.5-6.4-14.5-14.4s6.5-14.5 14.5-14.5v-3.7-2c-2.7.4-4.5 1-5.4 1-8.5 2.6-14.5 10.2-14.5 19.3 0 11 9 20 20 20h.3c1.3 4 2.7 7.7 4.5 11.5h6c-2.8-5.5-5-11.3-6.6-17.6z"/><path fill="#387BBF" d="M274 80.4c24 .2 45.6 11.6 55.6 39 0 0 13.2-5.2-3.4-35.4-4.5-8.3-16-19.7-27.2-25.2-12.5-6-23.5-8.5-37-8.5s-48 5.6-73 28.4c-20.2 18.8-36 58.5-27.6 96 .2.7 4-9.6 4-9 2-4.4 11.4-8 11.4-8s13-78 97.2-77.3z"/><path fill="#2C5FA8" d="M161.2 177c-1 0-2-.8-2.2-2-4-17.8-3-37.2 3-56.2C167.8 102 177 86.6 187.4 77c25-23 59.6-29 74.4-29 14 0 25.5 2.7 38.2 8.7 12.2 6 23.6 18 28 26 7.6 14.2 10 25 7.6 32.3-1.8 4.7-5 6.3-5.4 6.3-.7.2-1 .2-1.8 0-.4-.2-1-.7-1-1.3-8.8-24-27.8-37-53.5-37.3h-1.2c-18.5 0-35 4-49 11.6-11 6.3-20.7 15-28.3 25.7-13.2 18.8-16.5 37.5-16.5 37.7-.2 1-.7 1.6-1.3 1.8-3.4 1.3-9.2 4.2-10.3 7l-.2.3c-.2.7-1 2-1.3 3-.5 1.4-1.2 2.6-1.7 3.7-.8 2.3-1.3 3.4-3 3.4zM262 52.4c-14.3 0-47.4 5.8-71.5 28-18 16.4-33.3 51.5-28.4 86.6.3-.3.5-.8.5-1 .2-.4.4-1 1-1.6 2-4 8.4-7 11.3-8.5 1-4.8 5-21.5 17-38.3 8-11.4 18-20.5 30-27.2 14.4-8.3 31.8-12.3 51-12.3h1c26.7.2 46.6 13.4 56.6 37.3.4-.4 1-1.3 1-2.2 1.4-4.2 1.4-12.5-7.3-28-4-7.7-15-19-26.3-24.4-11.6-6-22.3-8.5-35.7-8.5z"/><path fill="#D3957D" d="M184.4 189.4c-1.3.4-3 .7-4.2.7-8 0-14.5-6.4-14.5-14.4s6.5-14.5 14.5-14.5v-3.7-2c-2.7.4-4.5 1-5.4 1-8.5 2.6-14.5 10.2-14.5 19.3 0 11 9 20 20 20h.3c1.3 4 2.7 7.7 4.5 11.5h6c-2.6-5.5-4.8-11.3-6.6-17.6z"/><path fill="#FBFCFA" d="M295 206s-24.3 4-50 1c0 0 6.3 26 44 22.3-.2 0 0-11.5 6-23.4z"/><path fill="#403942" d="M248 211s14.8 8.4 40.8 5l-2.5 12c0 .3-32 4.3-38.2-17z"/><path fill="#EA7D96" d="M273.4 231.4c-14.7 0-22.3-6.7-26-12-4-6-4.4-12.2-4.6-12.4 0-.7.2-1.3.7-1.8.4-.4 1-.7 1.8-.7 6.3.7 12.7 1 19.7 1 16.5 0 29.5-2 29.7-2 1-.3 1.8 0 2.2.8s.6 1.6 0 2.5c-5.5 11.2-5.7 20-5.7 20.3 0 1.2-.7 2-1.8 2.3-6 1.4-11.4 2-16 2zm-25.7-22c1.3 5.7 6.7 17.5 25.5 17.5 4 0 8.5-.5 13.4-1.7.2-3 1-9.2 4.5-16.5-5 .7-14.6 1.8-26 1.8-6-.2-11.7-.4-17.3-1z"/><path fill="#B53D3A" d="M490 460c-20.8 7.2-111.5 35.2-195 1-2.5-1-3.8-3.6-3.4-6.3l14.7-77c.2-1.4 1-2.8 2.2-3.7 8.3-5.8 42.7-27.7 87.3-29.5 0 0 47.8 0 82.4 21.2 1.3 1 2.5 2.2 2.7 4l12.6 84.2c.4 2.6-1 5.2-3.6 6z"/><path fill="#962424" d="M385.3 479.8c-33.3 0-64-5.4-91-16.5-3.5-1.3-5.5-5.4-4.8-9l14.7-77c.4-2 1.6-3.8 3.4-5 9.4-6.4 43.8-28 88.4-29.6 2 0 49 .2 83.5 21.4 2 1.4 3.4 3.5 3.8 5.7L496 454c.7 3.7-1.6 7.3-5 8.6-12 3.8-54.8 17.2-105.7 17.2zm10.7-133c-43.6 2-76.8 22.7-86 29-.7.5-1 1.4-1.3 2.3L294 455.3c-.2 1.6.4 3 2 3.8 26.8 11 57 16.5 89.6 16.5 50.3 0 92.2-13.4 104-17.4 1.5-.3 2.4-2 2-3.5L479 370.3c-.2-1-.7-1.8-1.6-2.5-33.4-20.5-79.8-21-81.4-21z"/><path fill="#962424" d="M356.2 478.4c-1 0-2-.7-2.2-1.8-3-16 5-96.5 5-99.8 0-.4.3-1 .8-1.3l31.3-32.2c1-1 2.3-1 3.2-.2l39 32.3.8 1.3c0 .7 9.4 56.7 6 97 0 1.2-1 2-2.5 2-1.3 0-2.2-1.2-2-2.6 3-37-4.7-87.8-5.8-95L393 348 364 378c-1 8.6-8 83.2-5 98 0 1-.5 2.4-2 2.6-.3-.4-.3-.2-.6-.2z"/><g fill="#231F20"><path d="M199.7 367.2c0 2.4 0 .5 0 0zM232.7 377.3c-1.4-1.3-3-2.4-4.3-3.4-.8-1-3-3-4.8-3.4l-1-.5c-3.6-2.2-7.2-3.8-10.8-5.3 0 0-.2 0 0 0l-3-1c-1.3-.5-2.7-1-4-1.2-.2 0-.6 0-1 .3-.5-.2-1-.4-1.3-.7-4.2-.8-8-1-11.4-1-6.6 0-11.7 1-15 1.8-8-5.4-17.5-9-28.3-10.7v.3l-5-.7c-1.4-.3-3-.3-4.3-.5h-.2c-16.8-1.2-30.6 1.7-30.6 1.7l-.8 5.4c4.7-.7 9-1 13.3-1.4h13.7c8.3.2 14.4 1.3 17.3 2h.4c1 0 1.7.3 1.7.3h1c.5.3 1 .3 1.4.5l1.6.4c.4 0 1 0 1.3.3l1.6.7 1.2.4 1.6.7c.4.3 1 .3 1.3.5.8.2 1.2.4 2 1 .3 0 .6.3 1 .3.7.2 1 .7 1.8 1 .4 0 .7.3 1 .6l2 1c0 .3.6.5.8.8 1 .7 1.8 1 2.7 1.8.2 0 9.6-3.6 22.6-2h1.7v.2l2.2.4v0c4.8 1 9.7 2.7 14.8 5.4v.2l1.7 1 .6-.5s0 .2-.3.3l2 1.2c.7.4 1.3 1 2 1.3 0 0-.2 0-.3.2 2.2 1.3 4.2 3 6.5 5l.8.8 3.4 3c7.8 8 13.4 17.5 17.2 28l.7-1 3.5-4.8c-4.8-12-12.2-22.2-21.8-30.4z"/></g><path fill="#FBFCFA" d="M357.8 309.5"/><path fill="#D3957D" d="M448.5 172.7h2v2h-2zM342 276.7l-29.5 24.6-46 37.3-21.6 19-20 13.6 2.6 1.8 60.3-45.8 37.6-30.8 18-15"/><path fill="#D3957D" d="M369 272.4c-1.5-5-7.3-7-12-6-4.5 1-7.8 4-10.7 6.5-3.4 2.8-6.7 5.5-9.8 8.4.2.7.7 1.3 1 2.2l10.4-9c2.8-2.4 6-5 9.5-5.7 3.8-1 8.3.8 9.4 4.4.8 3-.7 5.5-3 8l-2.2 1-6 4.3s-5 4.4-3 17c0 1 .2 2 .3 2.8.5 3.4 1 6.7.8 9.8 0 2.8-.8 5-1.5 6.5-1.3 3-3.6 5.6-6.7 7.6-3 2-6.2 3.2-9.4 3.4h-3s-3.3-1.4-7-2.3c-2-.5-4-1-6-.7h-1.4v.2l-1 .3c-2.5 1-4.2 2.7-5.8 4l-.5.5h-.2l-1.8 2-5.5 5.5v.2l-1.5 1.7c-.5.3-1.2 1-1.7 1.7-12.2 13.2-23.3 27.5-33.7 42.3 0 0 0 .3-.2.4l-2.6 3.7-9.8 14 1 2.8c0 1 .6 1.8.8 2.7l11.2-16.2 2.7-3.8c10.7-15 21.7-29.7 34-43l3-3h.2l8-8c1-1 2.7-2.4 4-2.8 1.3-.4 2.7-.4 4 0 0 0 9.3 2.6 14.3 1.8.3 0 .7 0 .8-.3.7 0 1-.2 1.8-.4.3 0 .5 0 .8-.2.4 0 1 0 1-.3 2-.7 4.3-1.8 6-3 2.6-1.8 4.7-4 6.4-6.3h.2c5.2-7.2 3.5-17.7 3.5-17.7-.2-1.3-.4-2.7-.4-3.8-.7-6-1.4-12 1.5-16.2 1.2-1.6 2.6-3 4-4.5 3.7-3.5 7.7-7.3 6-13z"/><path fill="#D3A789" d="M270.7 334.8c-24-3.8-40-14.6-46.7-20.2-6.7-5.6-12.3-13-14-22 0-.5-.3-.7-.3-1 0-.8 0-1.2-.2-1.4l-1-.4c-.6-.2-1.2-.2-2 0l-2 1-2.3 1.2c-.7.4-1.6.7-2.5 1-3.8 2-8.3 3.7-12.5 5.5-13.4 5.4-27 11-32.8 18.5-7 9.3-9.6 20.4-11 33l-.3 1.6c1.5.2 4.8.7 4.7.5 1-11.5 4-24 10.4-32.6 5.2-6.7 18.4-12 31-17.2l11-4.5 2-.8c.7-.5 1.6-.8 2.2-1.2.7-.2 1-.7 1.8-1 2.5 10 8.7 17.5 16 23.6 17.6 14.8 43.8 20.2 43.8 20.2l5-3.8zM373.5 306c-1 1.2-2.5 2.6-3.6 4-.8 2.6-1.6 4.7-2.7 6.8l-4.5-1.4s-4 5.7-9.5 14.4l-.2.2-3.5 5.8-.2.2c-2.7 4.6-5 9-7 13v1.2s0 1.3.3 3.6c.7-.2 1.3-.4 2.2-1l-.4-2.8 2.6-5h2.5s5.2-9 10.3-17.2l.3-.2 7.5-10.5h.2c1.3-2 2.8-4 4.2-5.7.3-1.8.8-3.6 1.5-5.4z"/><path fill="#403942" d="M455.6 138.7l4.7-1.2v-55h-4.7"/><path fill="#D3957D" d="M443.4 124l5-6 1.4 1.8-5.4 5.5"/><path fill="#403942" d="M478.6 119.3h4v15.3h-4zM482.5 157l1.4-.3c.4 0 .8-.5.8-1v-8.5h-2.3v9.7z"/><path fill="#403942" d="M479.3 156.7h3.5V154l-1.6-2-1.8 3.4"/><path fill="#403942" d="M482.2 153.6l-1.8.5v-.4l.7-2h1.2"/><path fill="#EFC2A0" d="M473.3 156l-.6-2v-1.4h2.7"/><g><path fill="#D3957D" d="M481.2 147.8h1v4l-2-.8"/></g><g><path fill="#403942" d="M482 146.4s-.2 3.2-.6 4.8l.7 1.3 1.8-4.7-1.7-1.4z"/></g><g fill="#D3A789"><path d="M334.5 263c7.6-8.4 15-16.2 22-23.8-2.6.2-4.4 2.5-5.3 3.8l-.2.4c-15.4 19.2-30.8 30.8-46.7 35.5l3.8 1c8.5-3 16.3-7.7 23.4-13.5 1-1.3 2-2.7 3-3.6z"/><path d="M391.3 292.3c-1-4.2-2.5-8-4-11.8l-1 2.2h-.2l1.2-2.2-1-2.7-1.2-3v.3l-3-6-.4-1.2c-2-3.8-4.2-7-6.7-10.7h-.3c-7.2-10-15-17.4-15-17.4h-.5c-.6-.2-1.2-.4-2-.4h-.5c-7 7.6-14.5 15.4-22 23.7-1 .8-2 2-3.3 3.5h.2c-1 1.2-2 3-2.4 4.6 1.7-1 2.7-2 4-3 7-5.8 14.3-13 21.2-22 0 0 .2 0 .2-.3.7-1 1.6-2 2.5-2 .3 0 .5 0 .8.2v-.7h.8l4.8 5.2 5.3 7-1.6-1c1.5 2 3 3.7 4.2 5.5 3 2.5 5 5.8 6 9.6 1 2 2.2 4 3 6v-.2l.2.2c.7 1.3 1.3 2.7 1.8 4.2.2-1.6.4-3 .4-4.5 0 1.7-.2 3-.4 4.6l.2.3.8 2 .5 1.2c0 .2 0 .3.2.5.5 1.7 1.5 4.5 2.3 7.6-11 6.3-20 19.4-20 19.4l1.4 3 7.8-7.4v.5l1.7-2 8.8-8.3c1.4-1 2.6-1.5 3.4-1.6.7 0 1.3-.3 1.6-.8.4-.6.5-1.4.3-2zm-38-48.3l-.5.6-2 2.5 1.8-2.2.7-.8zm-10 11.4c-3 3.3-6.5 6.5-10 9.5 3.5-3 7-6.3 10-9.6zm44 38l-.8-1.7c.5 0 2.3-.2 2.6 1-.4 0-1 .3-1.8.7z"/></g><path fill="#D3957D" d="M481 139l-.8-1.8-.5-.7-1-1v-.2l-.2-.2v.2c-.3-.2-.7-.5-1-.5-1.6-.4-3.4 0-4.2.4-4.2 1.7-8.5 2.8-12.7 3.2-1 0-2.2.3-2.8.3l-2 .2h-.8v4.5c.2.2.6 0 1 0 .6 0 1.5 0 2-.3l2.3-.3c5-.4 9.6-1.5 14.3-3.3l1.3-.4s0 .2.6 1c1 2 1.3 4.6 1 7.3v-.3 1c-.4 1.3-.8 2.8-1.6 4.3l-6.6 8.4C458.7 172 447 170 447 170l-4.2 8.6c2-3.4 8.4-4.8 8.3-4.8 14.3.7 25.7-15 25.7-15l.5-1.6h.8l2.6-4.3 1.3-7.7-1-6.3z"/></svg>