<svg xmlns="http://www.w3.org/2000/svg" viewBox="0 0 612 509.9"><path fill="#74D3ED" d="M128.7 510c.8-1 .6-1.5.6-1.7l-2.5-12.3c0-.7 0-1.3.4-2 .4-.4 1-1 1.8-1l40.2-5c1.6-.2 3 1 3 2.2l1.5 12.7c0 .6 0 1.2-.4 2-.4.6-1 .8-1.8 1l-29 3.6h67.8c2.5-38.2.2-62.6.2-63.3l-4-16c0 .2.3 19.2-.3 43.3-.2 10.5-.7 23.2-1.6 36h49.8l-25.2-3.6c-1.3-.2-2.5-1.6-2.2-3l1.3-12.6c0-.7.4-1.3 1-1.8.8-.4 1.4-.7 2-.4l37.4 5.4c1.3.2 2.5 1.6 2.2 3l-1.4 12.6-.2.7h6c4.2-15 6.5-29.8 7.6-42 2.5-24.7 1-44 1-44l2.6-.3-212.4-44.2c-.2 32.2 16 91.4 28 130.4M71.5 378.8z"/><path fill="#74D3ED" d="M133.5 505.7l-1-7.6 35-4.2.8 7.6z"/><path fill="#74D3ED" d="M171.6 506.3c.7 0 1.3-.4 1.8-1 .4-.8.7-1.4.4-2l-1.6-12.8c-.2-1.6-1.6-2.5-3-2.2l-40 5c-.8 0-1.4.3-2 1-.3.4-.6 1.3-.3 2l1.5 12.7.2 1h13.8l29-3.7zm-1.8-15.4l1.6 12.6-40.2 5-1.6-12.8 40.2-5z"/><path fill="#74D3ED" d="M171.4 503.6l-1.6-12.7-40.2 4.8 1.6 12.7 40.2-5zm-4-9.8l1 7.6-35 4.2-.8-7.6 34.8-4.2zM265.4 498.5l-32-4.5-.8 7.4 32 4.5"/><path fill="#74D3ED" d="M269.7 509.2l1.3-12.7c.2-1.3-1-2.7-2.2-3l-37.3-5.3c-.7 0-1.3 0-2 .4s-1 1-1 1.8L227 503c0 1.4 1 2.8 2.3 3l25.2 3.6h15c.2 0 .2 0 .2-.4zm-2.5-.2l-37.3-5.4L231 491l37.3 5.3-1.3 12.7z"/><path fill="#74D3ED" d="M229.7 503.6L267 509l1.3-12.7L231 491l-1.3 12.6zm3.8-9.6l32.2 4.5-1 7.4-32-4.6.8-7.4z"/><path fill="#59B8E2" d="M278.4 510h2.7c4-14.8 6.4-29.4 7.5-41.4 2.5-25.2 1-45 1-45h-2.8s3.5 44-8.3 86.3z"/><path fill="#59B8E2" d="M283 468c-1 12.2-3.3 27-7.5 42h3c11.7-42.3 8.2-86.3 8.2-86.3l-2.7.2s1.5 19.3-1 44zM74.2 378.8h-2.7l2.7.4v-.4zM71.5 378.8h-2.7c-.2 21.7 6.5 57 20.3 105.2 2.8 9.2 5.2 18 7.7 26h2.7c-12-39.4-28.3-98.6-28-131.2z"/><path fill="#59B8E2" d="M102.4 510c-12-39.2-28.4-98.4-28.2-130.5l-2.7-.4c-.4 32.5 16 92 28 131.2h2.8v-.3zM206.2 474c.4-24.2.2-43.2.2-43.4H201c0 .4.7 41-1.8 79.3h5.4c1-12.8 1.4-25.6 1.6-36z"/><path fill="#403942" d="M104.8 317.6h-1c-2.6-.2-4.8-1.6-6.4-3.6-1.6-2-2.2-4.5-2-7 5-39.7 33.3-79.6 34.4-81.4 1.8-2.5 4.7-3.8 7.6-3.8 2 0 3.8.7 5.4 1.8 2 1.6 3.4 3.6 3.8 6 .4 2.5-.2 5-1.6 7-.2.3-26.8 37.6-30.8 72.7-.4 4-3.4 7-7.4 8-.6.3-1.3.3-2 .3z"/><path fill="#231F20" d="M137.4 224.4c1.3 0 2.7.4 3.8 1.3 3 2.2 3.6 6.3 1.6 9.4-.2.5-27.2 38.3-31.5 74-.4 3-2.5 5-5 5.8l-1.4.2h-1c-3.6-.4-6.3-3.8-5.8-7.4 4.7-39 32.6-78.6 33.7-80.2 1.4-2 3.4-3 5.4-3m0-5.3c-3.8 0-7.6 2-9.8 5-1 1.8-30 42.2-34.8 82.6-.4 3 .4 6.3 2.5 9 2 2.4 5 4 8 4.4h1.3c1 0 1.8 0 2.7-.2 5-1 8.7-5.4 9.4-10.3 4-34.2 30.2-71 30.4-71.5 2-2.7 2.8-5.8 2-9-.3-3-2-6-4.8-7.7-1.6-1.3-4-2.2-6.8-2.2z"/><path fill="#403942" d="M147 333.4c-4.2 0-8-3-9.2-7-9.2-39.2 3.8-86.3 4.2-88.3 1-4 5-6.8 9-6.8.8 0 1.7.2 2.4.4 2.5.7 4.5 2.2 5.6 4.5 1 2.3 1.6 4.8 1 7.2-.3.4-12.4 44.7-4.3 78.8 1 3.8-.7 7.8-4 10-1 .5-1.8 1-3 1.2l-1.7.2z"/><path fill="#231F20" d="M151.3 233.8c.7 0 1 0 1.8.2 3.7 1 5.7 4.7 4.8 8.3-.2.4-12.5 45.3-4.2 80.2.7 3-.7 5.8-3 7-.6.5-1.2.8-2 1-.3.2-1 .2-1.5.2-3 0-5.7-2-6.4-5-9.2-38.5 3.8-85.2 4.2-87 1-3 3.6-5 6.5-5m0-5.2c-5.4 0-10 3.6-11.6 8.7-.7 2-13.8 50-4.5 89.6 1.3 5.4 6 9.2 11.6 9.2 1 0 1.8 0 2.7-.2 1.3-.2 2.5-1 3.6-1.6 4.3-2.7 6.6-8 5.5-13-8-33.5 4-77 4-77.5 1-3 .4-6.3-1-9.2-1.7-3-4.3-5-7.2-5.6-.8-.5-2-.5-3-.5z"/><path fill="#403942" d="M50.3 262.2c-1 0-1.6 0-2.5-.2-1-.2-2-.7-3-1.3-2-1.3-3.5-3.6-4-6-.3-2.5 0-5 1.4-7 22.3-33.2 66-55.7 68-56.6 1.2-.6 2.6-1 4-1 3.7 0 6.8 2 8.4 5 1 2.3 1.3 4.8.7 7.2-.7 2.5-2.5 4.2-4.7 5.4-.4.2-41 21.2-60.8 50.5-1.7 2.6-4.6 4.2-7.5 4.2z"/><path fill="#231F20" d="M114.4 192.5c2.5 0 4.7 1.3 6 3.6 1.8 3.5.4 7.5-3 9-.3.2-41.7 21.4-61.8 51.4-1.3 2-3.4 3-5.6 3-.7 0-1 0-1.8-.3-.7 0-1.3-.3-2-.8-3-2-3.8-6.3-1.8-9.4 22-32.6 65-55 66.8-55.8 1.2-.3 2.3-.5 3.2-.5m0-5.4c-1.8 0-3.8.5-5.4 1.4-1.8 1-46 23.7-68.8 57.6-1.8 2.7-2.5 5.8-1.8 9s2.5 5.7 5 7.5c1.2.7 2.3 1.3 3.7 1.6 1 .3 2 .5 3.2.5 4 0 7.8-2 10-5.4 19.3-28.5 59.5-49.3 60-49.5 3-1.6 5-4 6-7s.7-6.2-.7-9c-2.4-4-6.4-6.4-11-6.4z"/><path fill="#403942" d="M73.3 295.7c-1 0-2-.2-3-.4-2.6-1-4.3-2.5-5.5-4.7-1-2.2-1.3-4.7-.4-7 13.2-38 49.4-71 51-72.2 1.7-1.6 4-2.5 6.2-2.5 2.7 0 5 1 7 3 1.5 1.8 2.4 4.2 2.4 6.7-.2 2.5-1.3 4.7-3 6.5-.5.2-34.5 31-46 64.3-1.3 3.7-5 6.2-8.7 6.2z"/><path fill="#231F20" d="M121.6 211.3c1.8 0 3.6.7 5 2.2 2.4 2.7 2 7-.5 9.4-.3 0-34.7 31.4-46.4 65.3-1 2.7-3.6 4.5-6.3 4.5-.7 0-1.6-.2-2.2-.4-3.5-1-5.3-5-4-8.5 13-37.4 48.8-69.8 50.4-71 1-1 2.6-1.7 4.2-1.7m0-5.4c-3 0-5.8 1-8 3-1.6 1.3-38.4 34.8-51.8 73.3-1 3-1 6.3.4 9.2 1.3 3 3.8 5 7 6 1.2.4 2.6.7 4 .7 5 0 9.5-3.4 11.3-8 11.2-32.6 44.7-63 45-63.2 2.6-2.2 4-5 4-8.3.3-3-.8-6.3-3-8.7-2.2-2.5-5.6-4-9-4z"/><path fill="#403942" d="M264.5 317h-2c-3.8-1-7-4-7.4-8-4-35.2-30.5-72.5-30.7-73-1.6-2-2-4.4-1.6-6.8.4-2.5 1.8-4.7 3.8-6 1.6-1 3.6-1.8 5.4-1.8 2.8 0 5.7 1.6 7.5 3.8 1 1.8 29.7 41.5 34.4 81.5 0 2.5-.5 5-2 7-1.7 2-4 3-6.4 3.5-.2-.3-.6 0-1 0z"/><path fill="#231F20" d="M232 224c2 0 4 1 5.5 2.7 1 1.6 29.3 41 33.7 80.2.4 3.5-2.2 6.8-5.8 7.3h-1s-.8 0-1.2-.2c-2.7-.6-5-2.8-5-5.7-4.3-35.7-31-73.7-31.6-74-2.2-2.8-1.6-7 1.6-9.3 1-.8 2.4-1 4-1m0-5.4c-2.6 0-5 .7-7 2.2-2.7 1.8-4.2 4.7-5 7.8-.3 3 .3 6.3 2 9 .3.3 26.5 37.2 30.5 71.4.7 5 4.5 9.2 9.4 10.3 1 .2 2 .2 2.8.2h1.3c3.2-.4 6-2 8-4.5s3-5.6 2.6-9c-4.7-40.3-33.5-81-34.8-82.5-2.3-3-6-5-9.7-5z"/><path fill="#403942" d="M222.5 332.8c-.7 0-1.6 0-2.2-.2-1-.2-2-.7-3-1-3.3-2.3-4.8-6.4-4-10.2 8-34.2-4-78.4-4-78.8-.8-2.5-.5-5 .8-7 1.2-2.3 3.2-4 5.7-4.6 1-.2 1.8-.4 2.5-.4 4.2 0 7.8 3 9 7 .6 2 13.5 49.3 4 88-.6 4.3-4.4 7.2-8.7 7.2z"/><path fill="#231F20" d="M218.3 233.2c3 0 5.6 2 6.5 5 .4 2 13.4 48.6 4.2 86.8-.7 3-3.6 5-6.5 5H221c-.8-.3-1.4-.5-2-1-2.3-1.6-3.7-4.2-3-7 8.3-35.2-4-79.8-4.2-80.3-1-3.6 1-7 4.7-8.3l1.8-.2m0-5.4c-1 0-2.2.2-3.4.4-3.2 1-5.7 3-7.2 5.6-1.6 3-2 6-1 9.2 0 .4 12 44 4 77.5-1.2 5 .8 10.3 5.3 13 1.2.7 2.6 1.3 3.7 1.6 1 .3 1.8.3 2.7.3 5.6 0 10.5-3.8 11.6-9.2 9.4-39.7-3.8-87.5-4.5-89.5-1.2-5-6-8.7-11.2-8.7z"/><path fill="#403942" d="M319.2 261.5c-3 0-6-1.6-7.8-4-19.7-29.3-60.3-50.3-60.8-50.5-2.2-1-3.8-3-4.7-5.4-.8-2.5-.8-5 .6-7 1.6-3.2 4.7-5.2 8.3-5.2 1.5 0 2.8.4 4 1 2 1 45.4 23.6 68 56.8 1.3 2 2 4.5 1.3 7-.4 2.4-1.8 4.4-4 6-1 .6-1.8 1-3 1.2h-2z"/><path fill="#231F20" d="M255 192c1 0 2 .3 3 .8 1.8 1 45 23.2 66.8 55.8 2 3 1.3 7-1.8 9.4l-2 1h-1.8c-2.2 0-4.2-1-5.6-2.8-20-30-61.4-51-62-51.4-3.3-1.8-4.6-5.8-2.8-9 1.4-2.4 4-3.7 6-3.7m0-5.3c-4.4 0-8.6 2.5-10.6 6.5-1.6 3-1.8 6-.7 9.2 1 3 3 5.6 6 7 .4 0 40.7 21 60 49.5 2 3.3 6 5.3 10 5.3 1 0 2-.2 3-.4 1.4-.5 2.6-1 3.7-1.7 2.7-1.8 4.5-4.5 5-7.6.8-3 0-6.3-1.7-9-22.8-33.6-67-56.6-68.8-57.5-2-1-3.8-1.5-5.8-1.5z"/><path fill="#403942" d="M296.2 295c-4 0-7.6-2.5-9-6.3-11.5-33.3-45.5-64-45.7-64.3-1.8-1.6-3-4-3-6.5-.3-2.6.6-5 2.4-6.8 1.7-2 4-3 6.8-3 2.2 0 4.5.8 6.3 2.4 1.7 1.3 38 34.4 51 72 1 2.6.7 5-.4 7.2s-3 4-5.4 4.7c-.7.5-1.8.5-3 .5z"/><path fill="#231F20" d="M248 210.8c1.6 0 3 .7 4.5 1.8 1.6 1.3 37.3 34 50.3 71 1 3.6-.7 7.4-4 8.5-.7.3-1.6.5-2.2.5-2.7 0-5.4-1.8-6.3-4.5-11.8-34-46.2-65.2-46.5-65.4-2.7-2.5-3-6.7-.4-9.4.8-1.7 2.8-2.4 4.6-2.4m0-5.3c-3.4 0-6.7 1.6-9 4s-3 5.4-3 8.7c.2 3 1.6 6.3 4 8.3.2.2 33.7 30.8 45 63.2 1.7 5 6.4 8 11.5 8 1.3 0 2.7-.2 4-.7 3-1 5.6-3 7-6 1.2-3 1.5-6.3.3-9.2-13.4-38.6-50.3-72-51.8-73.3-2.2-2-5-3-8-3z"/><path fill="#FBFCFA" d="M218.3 417c62.8 34.6 102.5 18.8 119.3 7.6 6-4 8.3-11 8-18.3-2.5-70.8-56-94.7-56-94.7s-4.8 24.3-24.4 47"/><path fill="#77787C" d="M289.5 440.7c-22.6 0-47-7-72.8-21.4l2.7-4.7c27 15 52.3 22 75.5 20.5 19-1 33-7.5 41-13 6.3-4 7-11.7 6.7-15.8-1.3-35.7-16-59-28.4-72-9.4-10.4-18.8-16.2-23.5-18.6-2 7.6-8.3 26.8-24 45l-4-3.7c19-22 23.6-45.7 23.6-46l.7-3.5 3.2 1.3c.7.2 14 6.3 28 21.4 12.6 13.8 28.3 38.2 29.6 75.5.2 9.2-3 16.5-9.2 20.5-8.7 5.8-23.2 12.7-43.8 13.8-1.5.7-3.3.7-5.3.7z"/><path fill="#74D3ED" d="M74 305s16-6.2 30-2.8c0 0 77.6-41.5 142.6-.2 0 0 26.4.2 49.4 12.3 0 0-6.7 16.5-21.2 36L160 430.6l-50.5-41.3s-12-20.5-23.2-33.5c0 .4-16.8-30.6-12.3-50.7z"/><path fill="#59B8E2" d="M159.8 434.2l-52.5-43-.2-.3c0-.3-12-20.6-22.7-33.2l-.2-.2v-.2C83 356 66.6 325.2 71 304.7l.2-1.3 1.3-.4c.4-.2 10.5-4 22-4 3 0 6 .2 8.6 1 5.8-3 38-18.4 77.3-18.4 24.8 0 47 6.3 66.6 18.3 4.7 0 28.6 1.2 49.8 12.6l2.2 1-1 2.3c0 .6-6.8 17-21.3 36.3l-.3.4-117 81.5zm-48.3-46.5l48.7 39.8 112.8-79c11-14.6 17.2-27.8 19.7-32.7-21.4-10.7-45.8-11-46-11h-.7l-.7-.3c-18.8-11.8-40.4-18-64.3-18-41 0-75.5 18.2-75.7 18.2l-1 .4h-.8c-2.5-.8-5.4-1-8.5-1-8 0-15.6 2.2-18.5 3-3 18 10.7 44.8 12.3 47.5 10 12 21 30.3 22.7 33.2z"/><path fill="#D3957D" d="M122.7 232.7c0 2.7 24 36.4 27.2 57.8 3.3 22.6 5.3 21 5.3 21l-3 2.2 30.7 24 41.3-34-4.2-5s-6.6-30 28-73.3"/><path fill="#AA5B3F" d="M183 341.3l-34.8-27.5 3.6-2.7c-1-2.8-2.7-8.4-4.5-20-2.2-14.7-15.2-36.4-22-48-4.6-7.6-5.2-9-5.2-10.3h5.5v-.4c.2 1 2.5 4.5 4.5 8 7.6 12.7 20.3 34 22.8 49.8 2.5 16.6 4.2 19.3 4.5 19.5-.4-.7-1.8-1-3-.2l3 4.2-.2.2 26.2 20.8 37.5-31-3-3.6v-.8c-.3-1.3-6.6-31.7 28.3-75.5l4.2 3.4c-30.8 38.7-28 66.2-27.5 70.5l5.4 6.7-45 37z"/><path fill="#231F20" d="M181.7 198c2 0 3.8 0 5.8.3l28.4 4.5c4 .7 6.8 4.5 6.4 8.5l-.7 6.7 39.5-17.6c-.7 11.4-5.6 22-13.8 30.2L213 266.8c-1 1-1.6 1.6-2.7 2.2-5.4 3.6-14.5 7.6-28.8 7.8-14.3-.4-23.5-4.5-28.8-7.8-1-.7-1.8-1.3-2.7-2.2l-34.2-36.2c-8-8-13-18.8-13.8-30.2l8 4 31.5 13.8-.7-6.7c-.4-4.2 2.5-8 6.5-8.5l28.4-4.5c2-.4 4-.6 6-.6m0 44l21.7-.5c3 0 5.4-2.2 5.6-5l3-23c.3-.8-.3-1.7-1.2-1.7l-26.8-5c-.7-.3-1.6-.3-2.2-.3s-1.6 0-2.2.2l-26.8 5c-1 .3-1.6 1-1.3 2l3 22.7c.3 3 2.6 5 5.5 5l21.7.5m0-49.5c-2.2 0-4.5.2-6.5.4l-28.4 4.4c-6.3 1-10.7 6-11.2 12l-23.2-10-7.8-3.8c-.7-.4-1.6-.4-2.5-.4-1 0-2 .2-2.8 1-1.6 1-2.5 2.8-2.5 4.6 1 12.7 6.3 24.6 15.2 33.5l34.3 36c1 1 2.2 2 3.6 3 5.7 3.7 15.8 8.4 31.4 8.6h.4c16-.5 26-5 31.5-8.8 1.3-1 2.5-1.8 3.6-3l34-36c9-8.8 14.6-21 15.3-33.4.2-1.8-.7-3.6-2.2-4.7-.8-.6-2-.8-3-.8-.7 0-1.6.2-2.2.4l-31 13.8c-.4-6-5-11-11.2-11.8l-28.4-4.5c-2.3-.3-4.5-.5-6.5-.5zM157 216.2l23.4-4.5 1.3-.2c.4 0 1 0 1.3.2l23.5 4.5-2.7 19.4c0 .2-.2.4-.4.4l-21.7.4-21.7-.4c-.2 0-.4-.2-.4-.4l-2.7-19.4z"/><path fill="#3B353D" d="M261.2 200.3L221.6 218l.7-6.7c.4-4.2-2.5-8-6.5-8.5l-28.4-4.5c-3.8-.7-7.6-.7-11.4 0l-28.4 4.5c-4.2.7-7 4.5-6.5 8.5l.8 6.7-31.5-13.8-8-4c.7 11.4 5.6 22 13.8 30.2l34.5 36.2c.7 1 1.6 1.6 2.7 2.2 5.4 3.6 14.5 7.6 28.8 7.8 14.3-.4 23.5-4.5 28.8-7.8 1-.7 1.8-1.3 2.7-2.2l34.4-36.2c7.4-8 12.3-18.7 13.2-30m-49.2 13l-3 23c-.5 2.8-2.8 4.8-5.7 5l-21.7.4-21.7-.4c-3 0-5.5-2.2-5.7-5l-3-23c-.3-.8.3-1.7 1.2-1.7l26.8-5c1.6-.3 3-.3 4.7 0l26.8 5c.8 0 1.5 1 1.2 1.8z"/><ellipse fill="#403942" cx="181.7" cy="138" rx="95.4" ry="99.6"/><path fill="#231F20" d="M181.7 240.3c-54 0-98-45.8-98-102.3s44-102.3 98-102.3 98 45.8 98 102.3-44 102.3-98 102.3zm0-199.2C130.5 41 89 84.5 89 138s41.5 97 92.7 97 92.7-43.7 92.7-97-41.6-97-92.7-97z"/><circle fill="#CE866A" cx="262.3" cy="176" r="14.5"/><circle fill="#CE866A" cx="100.8" cy="176" r="14.5"/><path fill="#D3957D" d="M181.7 259.5c-35 0-66.3-26.6-78.4-66.6h-2.5c-9.4 0-17.2-7.5-17.2-17 0-8.6 6.3-15.7 14.5-17v-1.2c0-26.6 8.8-50.7 24.4-68C137.8 73.2 158.8 64 181.6 64s43.8 9.2 59 26c15.6 17 24.3 41.2 24.3 67.8v1c8.2 1.4 14.4 8.6 14.4 17 0 9.5-7.6 17.3-17.2 17.3h-2.5c-11.7 40-43 66.5-78 66.5z"/><g><path fill="#AA5B3F" d="M181.7 66.8c44.7 0 81 36.4 81 91v3.7c8 0 14.4 6.5 14.4 14.5s-6.4 14.5-14.4 14.5c-1.6 0-3-.2-4.2-.7-11 39-41 67.2-76.6 67.2S116 229 105 189.8c-1.3.4-3 .7-4.2.7-8 0-14.5-6.5-14.5-14.5s6.5-14.5 14.5-14.5V158c0-55 36.2-91.2 81-91.2m0-5.4c-23.6 0-45.4 9.6-61 26.8-8 8.7-14.2 19-18.4 30.6-4.2 11.8-6.5 24.6-6.7 38.2-8.3 2.2-14.5 10-14.5 19 0 11 9 20 20 20h.3c12.7 40 44.7 66.5 80.4 66.5s67.4-26.6 80.3-66.6h.4c11 0 20-9 20-20 0-9.2-6-16.8-14.6-19 0-13.6-2.4-26.4-6.6-38.2-4.2-11.6-10.5-22-18.3-30.6-16.2-17.4-38-26.8-61.3-26.8z"/></g><g><path fill="#632C1D" d="M181 225c-3.8 0-7.8-.5-11.4-1.4l-3.6-1-4.7-1.4c-1.3-.4-2.2-2-1.8-3.4.4-1.3 2-2.2 3.4-1.8l4.6 1.3c1 .4 2.2.7 3.4 1 9.6 2.4 20 1.2 28.8-3.2 1.3-.6 3 0 3.6 1.2.7 1.3.2 3-1 3.6-6.7 3.3-14 5-21.4 5z"/></g><g><path fill="#AA5B3F" d="M193 191.4c-.4 0-1-.2-1.3-.4-10-6-20.3 0-20.3 0-1.3.7-3 .4-3.6-1-.7-1.2-.4-2.8 1-3.5.3-.2 13-7.6 25.8 0 1.3.7 1.8 2.5 1 3.6-.8 1-1.4 1.4-2.6 1.4z"/></g><g><path fill="#231F20" d="M223.2 192c-6.3 0-21.4-.8-29.7-10.2l-.2-.2c-.2-.4-8-10.7-8-30.2 0-6.7 3.6-19.7 17-22 .2 0 7.8-1.4 18.8-1.4 12.8 0 24.7 1.8 35.4 5 4 1.2 6.7 4.6 7 8.8.6 8.3 1 29.3-9.7 42.7-1 1-2.2 2.2-3.6 3-3.5 1.7-11.7 4.6-24.7 4.6h-2zM201 176c5.7 6.3 18.4 7 22.2 7h2c11.8 0 18.5-2.8 21-4h.2c8.7-10.8 8.3-29 7.6-36.3 0-.2-.2-.7-.4-.7-9.6-3-20.5-4.7-32.4-4.7-10 0-17 1-17.2 1-9.2 1.7-9.2 12.6-9.2 13 0 15 5.2 23.6 6 24.7zM140 192h-2c-13.3 0-21.3-2.8-25-4.6-1.5-.7-2.6-1.6-3.5-3-10.7-13.3-10.3-34.3-9.6-42.6 0-4.2 3-7.6 6.8-9 10.7-3.3 22.6-4.8 35.3-4.8 11 0 18.4 1.3 19 1.3 13.3 2.5 17 15.6 17 22 0 19.3-7.7 29.8-8 30.3l-.3.4c-8 9.2-23.6 10-29.8 10zm-1.7-9.3h1.8c4 0 16.6-.4 22.4-7 .7-1 6-9.3 6-24.2 0-.4-.2-11.4-9.4-13 0 0-7-1-17.2-1-11.8 0-22.8 1.5-32.4 4.6-.2 0-.4.5-.4.8-.7 7-1 25.2 7.6 36.2l.2.2c2.5 1 9.2 3.8 21 3.8l.5-.3z"/><path fill="#231F20" d="M167.8 138s12.7 2 27.2 0c0 0-5.4 3.8-5 16 0 0-9-1.2-17 0 0 0 1-11-5.2-16z"/><path fill="#231F20" d="M170 157.4l.2-3.4c.2-2.7 0-10.5-4-13.6l-8-6.5 10.3 1.7s5.6 1 13.2 1c4.5 0 9-.3 13.2-1l10.8-1.6-9 6s-4 3.5-4 14v3l-3-.4s-3.8-.7-8.7-.7c-2.6 0-5.3 0-7.5.6l-3.5.8zm11-6.4l6.5.2c.2-4.2 1-7.4 2.2-9.8-2.7.2-5.4.2-8 .2l-8-.2c1.6 3.4 2 7 2 9.6h5.3zM218.3 162.6c-2.7 0-4.7-2.7-4.7-6.3s2-6.3 4.7-6.3 4.7 2.7 4.7 6.3-2 6.3-4.7 6.3z"/><path fill="#231F20" d="M218.3 162.8c-3 0-5-3-5-6.7s2-6.6 5-6.6 5 3 5 6.7c0 4-2 6.8-5 6.8zm0-12.5c-2.5 0-4.5 2.7-4.5 6 0 3.4 2 6 4.5 6s4.5-2.7 4.5-6c-.3-3.5-2-6-4.5-6z"/><g><path fill="#231F20" d="M144.8 163c-2.7 0-4.7-2.7-4.7-6.3 0-3.6 2-6.3 4.8-6.3s4.7 2.7 4.7 6.3c0 3.6-2 6.3-4.7 6.3z"/><path fill="#231F20" d="M144.8 163.2c-3 0-5-3-5-6.7s2-6.7 5-6.7 5 3 5 6.7c0 3.8-2 6.7-5 6.7zm0-12.5c-2.5 0-4.5 2.7-4.5 6 0 3.4 2 6 4.5 6s4.5-2.7 4.5-6c0-3.5-2-6-4.5-6z"/></g><g><circle fill="none" cx="220.1" cy="154.3" r="1.8"/></g><g><circle fill="none" cx="146.6" cy="154.3" r="1.8"/></g></g><g><path fill="#403942" d="M261.2 200.5l-39.5 18 .7-6.8c.4-4.2-2.5-8-6.5-8.5l-28.5-4.5c-3.8-.7-7.6-.7-11.4 0l-28.3 4.5c-4.2.7-7 4.5-6.5 8.5l.7 6.7-31.6-13.8-8.3-4c.8 11.4 5.7 22 14 30.2l34.3 36.2c.7 1 1.6 1.6 2.7 2.2 5.4 3.6 14.5 7.6 28.8 7.8 14.3-.4 23.5-4.5 28.8-7.8 1-.7 1.8-1.3 2.7-2.2l34.4-36.2c7.7-8 12.6-19 13.5-30.3M212 213.7l-3 22.8c-.5 3-2.8 5-5.7 5l-21.7.5-21.7-.4c-3 0-5.5-2.2-5.7-5l-3-23c-.3-.8.3-1.7 1.2-1.7l26.8-5.2c1.6-.2 3-.2 4.7 0l26.8 5c.8.4 1.5 1 1.2 2z"/></g><g><path fill="#80DBF5" d="M203.8 430.6"/></g><g><path fill="#FBFCFA" d="M145.7 381c10.7-19.7 116.6-40.4 116.6-40.4 11.2 8 19 34.8 19 34.8-76.6 70.6-131.8 73-131.8 73C101.3 445 52 371 52 371c-22-34.3 4.8-56.2 4.8-56.2 4.7-4 9.6-6.7 14.5-8.5 0 0 33 12.5 49.6 68.3"/></g><g><path fill="#77787C" d="M149.5 451c-20.8-1.4-44-15.3-68.6-41-18.4-19-31-37.7-31-38-12-18.5-10-33.6-6.2-43.2 4-10.3 11.2-16 11.4-16.3 4.5-3.8 9.6-7 15.2-9h1l.8.3c1.3.4 34.4 13.6 51 70l-5 1.5c-14.3-48.7-41.5-63.7-47-66-4.6 2-8.8 4.4-12.6 7.7-1 1-24.6 21-4.2 52.7.4.7 48.7 72.8 95.2 76.2 1.6 0 15-1.2 36.4-10 20.8-8.4 53.6-25.8 92.2-61-1.8-5.7-8.3-24.2-16.5-31-42.2 8.4-106.3 25.4-113.7 38.8l-4.7-2.5c5-9 25.7-18.3 64-28.8 27.6-7.6 54.2-13 54.4-13l1-.2 1 .7c11.8 8.5 19.7 35 20 36.2 0 1 0 2-.8 2.7-40 36.8-74 54.6-95.5 63.3-23.3 9-37.3 9.6-38 9.6z"/></g><g><path fill="#80DBF5" d="M203.8 430.6s-2-47.4-12.5-90"/></g><g><path fill="#59B8E2" d="M201 430.8c0-.4-2-47.6-12.4-89.6l5-1.3c10.6 42.3 12.6 90 12.8 90.6l-5.3.2z"/></g><g><circle fill="#74D3ED" cx="250.2" cy="363.2" r="27.7"/><path fill="#59B8E2" d="M250.2 393.5c-16.8 0-30.4-13.6-30.4-30.4s13.6-30.3 30.4-30.3 30.4 13.6 30.4 30.4-13.8 30.5-30.4 30.5zm0-55.4c-13.8 0-25 11.3-25 25s11.2 25 25 25 25-11 25-25c-.2-13.7-11.3-25-25-25z"/><path fill="#FBFCFA" d="M248 351.3h5.4v39H248z"/><path fill="#FBFCFA" d="M240.2 366.5l-1.6-.4c-1-.8-1.6-2.4-.7-3.7l9.7-13.6c.4-.7 1-1 2-1 .7 0 1.6 0 2 .6l10.5 10.5c1 1 1 2.7 0 3.8s-2.7 1-3.8 0L250 354l-8 11c-.3 1-1 1.5-1.8 1.5z"/><g><path fill="#59B8E2" d="M250 393.5c-16.8 0-30.4-13.6-30.4-30.4s13.6-30.3 30.4-30.3 30.4 13.6 30.4 30.4-13.6 30.5-30.4 30.5zm0-55.4c-13.8 0-25 11.3-25 25s11.2 25 25 25 25-11 25-25-11-25-25-25z"/></g></g><g><path fill="#FBFCFA" d="M228.8 359c-.2 0-.7 0-1-.3-1.2-.4-2-2-1.5-3.4 5.4-14.3 18-16.5 18.8-16.5 1.7-.2 3 .7 3.2 2.2.2 1.6-.7 3-2.2 3-.4 0-10.3 2-14.5 13.3-.5 1-1.6 1.6-2.7 1.6z"/></g><g><path fill="#FBFCFA" d="M134.3 365.4c2.7.7 9.8 13.4 9.8 13.4 10.8-19.7 118-38.2 118-38.2 11.2 8 19 34.8 19 34.8-76.6 70.6-131.8 73-131.8 73s-57.2-57.2-62-59"/></g><g><path fill="#74D3ED" d="M278.6 373c-.7 0-1.6-.4-2-1-.2 0-15.6-18.4-29.7-22.2-1.2-.2-2-1.3-2-2.7s.8-2 2-2.4l8.2-2c1.3-.2 3-.4 4.5-.4 6.5 0 12.3 3 16 8.3 4.4 6.3 6.2 13.2 5.5 20 0 1.2-1 2-1.8 2.3l-.8.2z"/></g><g><path fill="#59B8E2" d="M259.6 344.8c5.4 0 10.5 2.5 13.6 7 3 4.8 5.8 10.8 5 18.4 0 0-15.8-19.2-31-23l8.4-2c1.6 0 3-.4 4-.4m0-5.3c-1.8 0-3.4.2-5 .7l-8.2 2c-2.5.4-4 2.7-4.2 5 0 2.6 1.6 4.8 4 5.2 11 3 24 16.3 28.4 21.4 1 1.3 2.5 2 4 2 .4 0 1 0 1.6-.2 2-.7 3.6-2.5 3.8-4.7.7-7.7-1.3-15.3-6-22-4.3-6-11-9.5-18.4-9.5z"/></g><path fill="#FBFCFA" d="M239.7 344.8l21.2 4.5 18.5 22-2 6-27.5-12.8"/><g><path fill="#77787C" d="M149.5 451h-.4c-.3 0-7.5-1.2-13-2.6-1.5-.4-2-2-1.7-3.6.4-1.3 1.8-2 3-1.6 4 1 9.3 2 11.7 2.2h.7c2.7-.2 16-1.8 36.2-9.8 20.4-8.3 52.6-25.5 90.6-60 1-.8 1-2 .7-3-6.7-13-14.3-19.2-20.5-22.8-3.8-2.2-16.3-2.2-20.5-1.3l-4 .7c-34 7.4-75 18.3-85 29-.5.7-1.4 1-2 1s-1.7-.5-2-1.2c-3.5-4.5-8-9.4-9.5-10h.2l.4-1.7c.4-2 3-2.7 4.2-1.3 1.8 1.6 3.6 3.6 5.4 5.8 1 1 2.5 1.3 3.6.4 16.3-10.7 60-21.7 88.7-28 4-.8 15.6-2 22.8 1 .3 0 .3.2.5.2 1.3.7 8.3 5 11.6 8.7 10.6 11.3 12.6 20.4 13 21.5.3 1 0 2-.6 2.7-40 37-74 54.7-95.4 63.4-24 9.7-37.8 10.3-38.5 10.3z"/></g><g><path fill="#D3957D" d="M151.3 358.2c-2-6-5-11.8-8.5-17.2-3.4-5-7.6-10.3-13.4-12-7.8-2.6-16 .8-23.5 4l-3 1.4c-4.2 1.8-9 4.2-10 8.7-.5 2-.3 4.3 0 6.4 1.4 6.3 3.7 12.5 6.6 18.3 3.6 7.6 8 15 15.2 19.2 2 1 4.2 2 6.5 2 3 0 5.8-1.2 8.5-2.6 7.6-4 15.4-9 20-16 1.4-2 2.6-4 2.6-6.4.2-1.7-.4-3.8-1-5.8z"/></g><g><path fill="#AA5B3F" d="M121.6 392h-.4c-2.5 0-5-1-7.8-2.5-8-5-13-13.4-16-20.3-3.5-7-5.5-13-6.8-19-.4-2.5-1-5-.2-7.6 1.6-6 8-9 11.4-10.5l3-1.2c6-2.7 12.2-5.4 18.7-5.4 2.2 0 4.5.4 6.5 1 7 2.6 11.8 8.8 14.7 13.3 3.6 5.6 6.5 11.6 8.7 18 .7 2 1.6 4.4 1.3 6.8-.2 2.5-1 5-3 7.6-5.3 8-13.5 13.3-21 17-2.4 1.6-5.6 3-9 3zm2.2-61.2c-5.4 0-11.2 2.5-16.5 5l-3 1.2c-3.5 1.6-7.5 3.8-8.4 7-.5 1.5-.3 3.3 0 5 1.2 5.4 3.2 11.2 6.4 17.6 3 6.3 7 14 14 18 2 1.2 3.7 2 5.2 2h.2c2.2 0 4.7-1.2 7-2.6 6.8-3.6 14.4-8.3 19-15.2 1.4-2 2-3.6 2-5 0-1.5-.3-3.3-1-4.8-2-5.8-4.7-11.4-8.3-16.5-4-6-7.8-9.6-12-11-1.3-.5-3-.7-4.7-.7z"/></g><g><path fill="#FBFCFA" d="M149 286s9.2 31.6 44.2 43.5c0 0 16.3-6.3 26-41.5 0 0 13 6 17.5 8.7 0 0-8.7 45-42.4 54.3 0 0-55.2-17.2-63-59.6 0-.2 9-3.7 17.7-5.5z"/></g><g><path fill="#77787C" d="M194.4 353.5l-.7-.2c-.7-.2-14.3-4.5-29.3-14.3-20-13-32.2-29.5-35.5-47.4l-.5-2.2 2-1c.4 0 9.2-3.5 18-5.5l2.6-.5.8 2.5c0 .2 9 29.7 41.3 41.3 1.4-.7 4.3-2.7 8-6.7 4.4-5 10.8-15.2 15.5-32.4l1-3 2.8 1.2c.4.2 13.4 6.3 18 9l1.5.8-.4 1.8c0 .4-2.2 11.8-8.7 24.3-8.7 17-21 28-35.5 32l-.8.2zm-60-60.5c8.4 36.2 53.7 53 60 55.2 27.5-8 37.3-41.8 39.3-50-3.6-2-9.4-4.7-13-6.5-10 33.3-26 40-26.6 40.2l-.8.3-1-.2c-30.5-10.2-42-35-45-42.8-5 1-10 2.7-12.7 3.8z"/></g><path fill="#74D3ED" d="M119 475h80.3v34.7H119zM208.8 475h65.8v34.7h-65.8z"/></svg>