<?xml version="1.0" encoding="utf-8"?>
<!-- Generator: Adobe Illustrator 17.1.0, SVG Export Plug-In . SVG Version: 6.00 Build 0)  -->
<!DOCTYPE svg PUBLIC "-//W3C//DTD SVG 1.1//EN" "http://www.w3.org/Graphics/SVG/1.1/DTD/svg11.dtd">
<svg version="1.1" id="Layer_1" xmlns="http://www.w3.org/2000/svg" xmlns:xlink="http://www.w3.org/1999/xlink" x="0px" y="0px"
	 viewBox="13.8 0 850.2 504" enable-background="new 13.8 0 850.2 504" xml:space="preserve">
<polyline fill="#FDDE3B" points="732.4,206.3 726.7,224.5 724.4,229 713.1,220.1 729.7,203 732.4,206.3 "/>
<g>
	<g>
		<polygon fill="#FDDE3B" points="653.1,244.6 646.5,270.4 639.5,260.9 		"/>
	</g>
	<g opacity="0.6">
		<path fill="#2B6985" d="M90,219.4l11.4-1.7c2.3-0.4,4.4-0.4,6.2-0.2s3.4,0.7,4.9,1.4c1.4,0.7,2.6,1.5,3.7,2.5c1,1,1.9,2.1,2.5,3.2
			c0.7,1.1,1.2,2.3,1.6,3.4c0.4,1.1,0.7,2.3,0.8,3.3c0.3,2.1,0.2,4.2-0.2,6.2c-0.5,2.1-1.3,4-2.6,5.8c-1.3,1.7-2.9,3.2-5,4.6
			c-2.1,1.3-4.6,2.1-7.5,2.6L95,252L90,219.4z M98.9,247.2l5.6-0.8c1.9-0.3,3.6-0.8,5.2-1.6c1.6-0.8,2.9-1.7,4.1-2.9
			c1.1-1.2,1.9-2.6,2.4-4.3c0.5-1.6,0.6-3.5,0.3-5.5c-0.2-1-0.5-2.2-1.1-3.6c-0.5-1.3-1.4-2.6-2.5-3.7c-1.1-1.1-2.6-2-4.4-2.6
			c-1.8-0.6-4-0.7-6.7-0.3l-6.7,1L98.9,247.2z"/>
		<path fill="#2B6985" d="M146.2,210.7l11.5-1.8c2.1-0.3,3.8-0.3,5.3,0.1c1.4,0.4,2.6,0.9,3.5,1.7c0.9,0.8,1.6,1.7,2.1,2.7
			c0.5,1,0.8,2.1,1,3.1c0.2,1,0.1,2.1-0.1,3.1c-0.2,1-0.6,2-1.2,2.9s-1.3,1.7-2.2,2.4c-0.9,0.7-2,1.2-3.2,1.5l11.6,13.5l-5.5,0.8
			l-10.5-13.2l-4.9,0.8l2.2,14.4l-4.4,0.7L146.2,210.7z M152.9,224.4l5.8-0.9c0.8-0.1,1.7-0.4,2.5-0.6c0.8-0.2,1.6-0.7,2.2-1.1
			c0.6-0.5,1.1-1.1,1.3-1.9c0.3-0.8,0.4-1.7,0.2-2.8c-0.2-1.1-0.5-2-1-2.6c-0.5-0.7-1.1-1.1-1.9-1.3c-0.7-0.2-1.5-0.4-2.4-0.4
			c-0.8,0-1.7,0.1-2.6,0.2l-5.8,0.9L152.9,224.4z"/>
		<path fill="#2B6985" d="M195.7,203l21.1-3.2l0.7,4.1l-16.7,2.6l1.5,9.7l15.5-2.4l0.7,4.1l-15.5,2.4l1.6,10.5l17.5-2.7l0.7,4.1
			l-21.9,3.4L195.7,203z"/>
		<path fill="#2B6985" d="M255.5,193.8l4-0.6l19,30.6l-5.2,0.8l-4.5-7.6l-15.6,2.4l-2,8.6l-5.2,0.8L255.5,193.8z M266.6,213.4
			l-8.4-14.1h-0.1l-3.9,16L266.6,213.4z"/>
		<path fill="#2B6985" d="M298.6,187.2l6.6-1l14.2,23.2h0.2l6.5-26.4l6.6-1l5,32.7l-4.4,0.7l-4.1-26.9h-0.1l-6.9,28.6l-2.9,0.5
			l-15.2-25.2h-0.1l4.1,26.9l-4.4,0.7L298.6,187.2z"/>
		<path fill="#2B6985" d="M395.4,172.3l11.4-1.7c2.3-0.4,4.4-0.4,6.2-0.2c1.8,0.2,3.4,0.7,4.9,1.4c1.4,0.7,2.6,1.5,3.7,2.5
			c1,1,1.9,2.1,2.5,3.2c0.7,1.1,1.2,2.3,1.6,3.4c0.4,1.1,0.7,2.3,0.8,3.3c0.3,2.1,0.2,4.2-0.2,6.2c-0.5,2.1-1.3,4-2.6,5.8
			c-1.3,1.7-2.9,3.2-5,4.6c-2.1,1.3-4.6,2.1-7.5,2.6l-10.7,1.6L395.4,172.3z M404.2,200.1l5.6-0.8c1.9-0.3,3.6-0.8,5.2-1.6
			c1.6-0.8,2.9-1.7,4.1-2.9c1.1-1.2,1.9-2.6,2.4-4.3c0.5-1.6,0.6-3.5,0.3-5.5c-0.2-1-0.5-2.2-1.1-3.6c-0.5-1.3-1.4-2.6-2.5-3.7
			s-2.6-2-4.4-2.6c-1.8-0.6-4-0.7-6.7-0.3l-6.7,1L404.2,200.1z"/>
		<path fill="#2B6985" d="M451.6,163.6l4.4-0.7l5,32.7l-4.4,0.7L451.6,163.6z"/>
		<path fill="#2B6985" d="M485.7,158.3l11.5-1.8c2.1-0.3,3.8-0.3,5.3,0.1c1.4,0.4,2.6,0.9,3.5,1.7c0.9,0.8,1.6,1.7,2.1,2.7
			c0.5,1,0.8,2.1,1,3.1c0.2,1,0.1,2.1-0.1,3.1s-0.6,2-1.2,2.9c-0.6,0.9-1.3,1.7-2.2,2.4s-2,1.2-3.2,1.5l11.6,13.5l-5.5,0.8
			L498,175.2l-4.9,0.8l2.2,14.4l-4.4,0.7L485.7,158.3z M492.3,172.1l5.8-0.9c0.8-0.1,1.7-0.4,2.5-0.6c0.8-0.2,1.6-0.7,2.2-1.1
			c0.6-0.5,1.1-1.1,1.3-1.9c0.3-0.8,0.4-1.7,0.2-2.8c-0.2-1.1-0.5-2-1-2.6c-0.5-0.7-1.1-1.1-1.9-1.3c-0.7-0.2-1.5-0.4-2.4-0.4
			c-0.8,0-1.7,0.1-2.6,0.2l-5.8,0.9L492.3,172.1z"/>
		<path fill="#2B6985" d="M535.1,150.7l21.1-3.2l0.7,4.1l-16.7,2.6l1.5,9.7l15.5-2.4l0.7,4.1l-15.5,2.4l1.6,10.5l17.5-2.7l0.7,4.1
			l-21.9,3.4L535.1,150.7z"/>
		<path fill="#2B6985" d="M608.5,146.7c-1.1-1.1-2.4-1.8-4-2.2c-1.5-0.4-3-0.5-4.6-0.3c-1.9,0.3-3.5,0.9-4.9,1.8
			c-1.4,0.9-2.5,2-3.4,3.4c-0.9,1.4-1.5,2.9-1.8,4.6c-0.4,1.7-0.4,3.5-0.1,5.3c0.2,1.7,0.8,3.3,1.6,4.7s1.8,2.7,3,3.7
			c1.2,1,2.6,1.7,4.3,2.2c1.6,0.4,3.4,0.5,5.3,0.2c1.9-0.3,3.5-0.9,4.7-1.9c1.3-1,2.3-2.2,3.1-3.8l4.2,2.2c-0.2,0.4-0.5,0.9-1.1,1.7
			c-0.5,0.7-1.3,1.5-2.2,2.3c-0.9,0.8-2,1.5-3.4,2.2c-1.4,0.7-3,1.2-4.9,1.5c-2.6,0.4-5,0.2-7.2-0.4c-2.2-0.7-4.2-1.7-5.9-3.1
			c-1.7-1.4-3.1-3-4.2-4.9c-1.1-1.9-1.8-3.9-2.1-5.9c-0.4-2.5-0.4-4.9,0.2-7.2c0.5-2.3,1.4-4.3,2.6-6.1c1.3-1.8,2.9-3.2,4.8-4.4
			c2-1.2,4.2-2,6.7-2.3c2.2-0.4,4.3-0.2,6.5,0.2c2.2,0.5,4.1,1.5,5.7,3.1L608.5,146.7z"/>
		<path fill="#2B6985" d="M645.9,137.9l-10.5,1.6l-0.7-4.1l25.5-3.9l0.7,4.1l-10.5,1.6l4.4,28.5l-4.4,0.7L645.9,137.9z"/>
		<path fill="#2B6985" d="M706.3,158.7c-2.5,0.4-4.9,0.3-7.1-0.2c-2.2-0.5-4.2-1.5-5.9-2.8c-1.7-1.3-3.2-2.9-4.3-4.9
			c-1.1-2-1.9-4.1-2.3-6.6c-0.4-2.4-0.3-4.7,0.2-7c0.5-2.2,1.4-4.2,2.6-6c1.3-1.7,2.9-3.2,4.8-4.4c2-1.2,4.2-2,6.7-2.4
			c2.5-0.4,4.9-0.3,7.1,0.2c2.2,0.5,4.2,1.5,5.9,2.8s3.2,2.9,4.3,4.9c1.1,2,1.9,4.1,2.3,6.6c0.4,2.5,0.3,4.7-0.2,7
			c-0.5,2.2-1.4,4.2-2.6,6c-1.3,1.7-2.9,3.2-4.8,4.4C711,157.5,708.8,158.3,706.3,158.7z M705.7,154.5c1.9-0.3,3.5-0.9,4.9-1.8
			c1.4-0.9,2.5-2,3.4-3.4c0.9-1.3,1.5-2.8,1.9-4.5s0.4-3.4,0.1-5.2c-0.3-1.8-0.8-3.4-1.7-4.9c-0.8-1.5-1.9-2.8-3.1-3.7
			c-1.3-1-2.7-1.7-4.3-2.2c-1.6-0.5-3.4-0.5-5.2-0.2c-1.9,0.3-3.5,0.9-4.9,1.8c-1.4,0.9-2.5,2-3.4,3.4c-0.9,1.3-1.5,2.8-1.9,4.5
			s-0.4,3.4-0.1,5.2c0.3,1.8,0.8,3.4,1.7,4.9s1.9,2.8,3.1,3.7c1.3,1,2.7,1.7,4.3,2.2C702,154.7,703.8,154.8,705.7,154.5z"/>
		<path fill="#2B6985" d="M745.8,118.3l11.5-1.8c2.1-0.3,3.8-0.3,5.3,0.1c1.4,0.4,2.6,0.9,3.5,1.7s1.6,1.7,2.1,2.7
			c0.5,1,0.8,2.1,1,3.1c0.2,1,0.1,2.1-0.1,3.1s-0.6,2-1.2,2.9s-1.3,1.7-2.2,2.4c-0.9,0.7-2,1.2-3.2,1.5l11.6,13.5l-5.5,0.8
			l-10.5-13.2l-4.9,0.8l2.2,14.4L751,151L745.8,118.3z M752.5,132l5.8-0.9c0.8-0.1,1.7-0.4,2.5-0.6c0.8-0.2,1.6-0.7,2.2-1.1
			c0.6-0.5,1.1-1.1,1.3-1.9c0.3-0.8,0.4-1.7,0.2-2.8c-0.2-1.1-0.5-2-1-2.6c-0.5-0.7-1.1-1.1-1.9-1.3c-0.7-0.2-1.5-0.4-2.4-0.4
			c-0.8,0-1.7,0.1-2.6,0.2l-5.8,0.9L752.5,132z"/>
	</g>
	<g>
		<path fill="none" d="M207.4,300.2c-1.5-2.1-3.4-3.8-5.5-4.9c-2.2-1.2-4.8-2-7.6-2.3c-2.9-0.4-5.9-0.3-9.1,0.2l-7,1.1l3.9,25.4
			l28.5-10.8c-0.1-0.2-0.1-0.5-0.1-0.7C209.9,304.9,208.9,302.3,207.4,300.2z"/>
	</g>
	<g>
		<path fill="#E2C722" d="M626.1,246.1c-0.1,0.5-0.2,0.9-0.4,1.3l0.8,4.9C626.8,254.3,626.4,244.4,626.1,246.1z"/>
	</g>
	<g>
		<path fill="#E2C722" d="M182.6,322.9l7.5-1.9c3.5-0.5,7.1-1,9.9-2.2c2.7-1.1,4.5,1.9,6.3,0c1.7-1.8,3,1.4,3.8-1.1
			c0.7-2.5,0.8-5.5,0.4-8.9L182,319.7L182.6,322.9z"/>
	</g>
	<g>
		<path fill="#CDAF34" d="M626.1,246.1c-0.1,0.5-0.2,0.9-0.4,1.3l0.8,4.9C626.8,254.3,626.4,244.4,626.1,246.1z"/>
	</g>
	<g>
		<path fill="#CDAF34" d="M182.6,322.9l7.5-1.9c3.5-0.5,7.1-1,9.9-2.2c2.7-1.1,4.5,1.9,6.3,0c1.7-1.8,3,1.4,3.8-1.1
			c0.7-2.5,0.8-5.5,0.4-8.9L182,319.7L182.6,322.9z"/>
	</g>
	<g opacity="0.6">
		<g>
			<path fill="#2B6985" d="M389.2,138.3l-6,0.9l-0.5-3.2l15.5-2.4l0.5,3.2l-6,0.9l2.5,16.5l-3.5,0.5L389.2,138.3z"/>
			<path fill="#2B6985" d="M413.4,131.3l3.5-0.5l1.2,7.8l9.2-1.4l-1.2-7.8l3.5-0.5l3,19.6L429,149l-1.3-8.6l-9.2,1.4l1.3,8.6
				l-3.5,0.5L413.4,131.3z"/>
			<path fill="#2B6985" d="M446.6,126.2l13-2l0.5,3.2l-9.5,1.4l0.7,4.8l9-1.4l0.5,3.2l-9,1.4l0.8,5.3l10-1.6l0.5,3.2l-13.5,2.1
				L446.6,126.2z"/>
		</g>
	</g>
	<g opacity="0.6">
		<polygon fill="#2B6985" points="51.1,428.4 15.8,197.6 353.2,146 352.9,144.2 14.7,196 13.8,196.1 49.4,429.5 49.6,430.4 
			340,385.8 339.7,384 		"/>
		<polygon fill="#2B6985" points="864,305.9 828.2,71.6 495.9,122.4 496.2,124.2 826.7,73.7 862,304.4 582.2,347.1 582.5,348.9 
			863.1,306.1 		"/>
		<polygon fill="#2B6985" points="821.6,80.6 855.1,299.4 581.3,341.1 581.6,342.9 856.2,301 857.1,300.9 823.3,79.4 823.2,78.5 
			496.8,128.4 497.1,130.2 		"/>
		<polygon fill="#2B6985" points="20.7,201.2 54.6,423.5 339.1,379.7 338.8,378 56.2,421.5 22.8,202.8 354.1,152 353.8,150.2 
			21.6,201.1 		"/>
	</g>
	<g opacity="0.6">
		<g>
			<path fill="#2B6985" d="M379.9,382.6l11.1-15.1c0.4-0.5,0.8-1,1.1-1.6c0.4-0.6,0.7-1.1,0.9-1.8c0.2-0.6,0.4-1.3,0.5-1.9
				c0.1-0.7,0.1-1.3,0-2c-0.1-0.8-0.4-1.5-0.8-2.1c-0.4-0.6-0.9-1.1-1.4-1.4c-0.6-0.4-1.2-0.6-2-0.8c-0.7-0.1-1.5-0.1-2.2-0.1
				c-1.6,0.2-2.9,0.9-3.8,1.9c-0.9,1.1-1.4,2.4-1.4,4l-4.9,0.3c0-1.5,0.2-2.8,0.7-4c0.5-1.1,1.1-2.2,1.9-3c0.8-0.8,1.8-1.6,3-2
				c1.1-0.5,2.5-0.9,3.8-1.1c1.4-0.2,2.8-0.2,4.1-0.1c1.3,0.2,2.5,0.6,3.5,1.2c1.1,0.6,1.9,1.4,2.6,2.5c0.7,1,1.2,2.3,1.4,3.8
				c0.2,1.1,0.2,2.1,0,3.1c-0.2,1-0.5,1.9-0.8,2.8c-0.4,0.9-0.9,1.8-1.4,2.6c-0.5,0.8-1.1,1.7-1.8,2.5l-9.2,12.1l16.5-2.5l0.6,3.9
				l-21.4,3.3L379.9,382.6z"/>
			<path fill="#2B6985" d="M424.4,363.9c-0.2-1.2-0.3-2.5-0.4-3.8c-0.1-1.3-0.1-2.6,0.1-3.9c0.1-1.3,0.4-2.6,0.7-3.8
				c0.4-1.2,0.9-2.3,1.6-3.3c0.7-1,1.6-1.8,2.7-2.5c1.1-0.7,2.4-1.1,3.9-1.4c1.6-0.2,2.9-0.2,4.1,0.1c1.3,0.3,2.3,0.8,3.3,1.6
				c1,0.7,1.8,1.6,2.5,2.6c0.7,1.1,1.3,2.2,1.9,3.4c0.5,1.2,1,2.4,1.3,3.7c0.3,1.3,0.6,2.5,0.8,3.7c0.2,1.7,0.4,3.6,0.4,5.6
				c0,2-0.3,4-0.8,5.8s-1.5,3.4-2.8,4.7c-1.3,1.3-3.1,2.2-5.4,2.5c-2.3,0.4-4.3,0.1-5.9-0.8c-1.6-0.9-3-2.1-4.1-3.7
				c-1.1-1.6-1.9-3.3-2.6-5.2C425.1,367.4,424.7,365.5,424.4,363.9z M428.9,363.1c0.2,1.1,0.4,2.3,0.8,3.8c0.4,1.4,0.9,2.8,1.6,4.1
				c0.7,1.3,1.6,2.3,2.6,3.2c1.1,0.8,2.3,1.1,3.9,0.8c1.6-0.2,2.7-0.9,3.4-2c0.8-1.1,1.3-2.3,1.5-3.8c0.2-1.4,0.4-2.9,0.2-4.4
				c-0.1-1.5-0.2-2.8-0.4-3.8c-0.1-0.7-0.2-1.6-0.5-2.5c-0.2-1-0.4-1.9-0.8-2.8c-0.3-1-0.7-1.9-1.1-2.7c-0.4-0.8-1-1.6-1.6-2.3
				c-0.6-0.7-1.3-1.1-2.2-1.4c-0.8-0.3-1.7-0.4-2.7-0.2c-1,0.2-1.9,0.5-2.5,1.1c-0.7,0.5-1.2,1.2-1.6,2c-0.4,0.8-0.7,1.7-0.8,2.6
				s-0.2,1.9-0.3,2.9c0,1,0,2,0.1,2.9C428.6,361.6,428.8,362.4,428.9,363.1z"/>
			<path fill="#2B6985" d="M480.5,343.6l-5.2,6.5l-3.1-2.7l7.9-8.9l3.9-0.6l5,32.7l-4.4,0.7L480.5,343.6z"/>
			<path fill="#2B6985" d="M533.7,356.4l-13.9,2.2L519,354l9.8-23l5.3-0.8l3.3,21.6l4.6-0.7l0.6,3.9l-4.6,0.7l1.1,7.2l-4.4,0.7
				L533.7,356.4z M530.5,336.1h-0.1L523,354l10.1-1.6L530.5,336.1z"/>
		</g>
	</g>
	<g>
		<g>
			<polygon fill="#FDDE3B" points="113.4,266.1 97.2,268.6 76,350.3 76,350.3 69.4,375.6 91.9,372.1 96.1,355.9 120.4,352.1 
				128.9,366.4 151.9,362.9 158.5,337.5 158.5,337.5 			"/>
		</g>
		<g>
			<path fill="#FDDE3B" d="M238.2,286.3c-1.1-6.9-3.2-12.7-6.4-17.2c-3.2-4.6-7.1-8.1-11.8-10.5c-4.6-2.4-9.7-3.9-15.4-4.4
				c-2-0.2-4-0.2-6-0.2c-3.7,0-7.4,0.3-11.3,0.9l-26.1,4l0,0l-6.6,25.3l11.8,76.6l28.2-4.3c5.6-0.8,10.9-2.5,15.7-4.9
				c4.9-2.4,9.1-5.6,12.6-9.4c3.5-3.8,6.1-8.3,7.7-13.4c0.1-0.4,0.2-0.8,0.4-1.3l0,0l0.2-0.6v-0.1l6.3-24.3l0,0
				C238.8,297.5,239.1,292.1,238.2,286.3z M196.5,312l-5.9,0.9l-2.2-14.2c2-0.1,3.9-0.1,5.8,0.1c2.8,0.4,5.4,1.1,7.6,2.3
				c2.2,1.2,4,2.8,5.5,4.9c0.4,0.6,0.8,1.3,1.2,2c-0.8,0.5-1.7,0.9-2.6,1.3C203.2,310.6,200,311.4,196.5,312z"/>
		</g>
		<g>
			<polygon fill="#FDDE3B" points="299.4,237.4 299.4,237.4 292.8,262.8 288.7,281.8 266.5,242.5 243.4,246.1 243.4,246.1 
				243.4,246.1 236.8,271.4 279.2,343.3 295,340.8 301.6,315.5 301.6,315.5 321.4,234.1 			"/>
		</g>
		<g>
			<polygon fill="#FDDE3B" points="401.1,280.4 393.1,281.7 395.9,271 395.9,271 392.9,251.7 391,252 393.4,242.7 393.4,242.7 
				390.5,223.4 337,231.7 337,231.7 330.4,257 342.2,333.5 397.5,325 404.1,299.7 404.1,299.7 			"/>
		</g>
		<g>
			<polygon fill="#FDDE3B" points="486.4,208.6 465.9,211.8 465.9,211.8 465.9,211.8 459.3,237.1 460.4,241.5 438.8,216 
				413.6,219.8 413.6,219.8 407,245.2 418.8,321.8 439.2,318.6 445.8,293.2 445.8,293.2 445.1,288.1 467.3,314.2 491.6,310.5 
				498.2,285.2 498.2,285.2 			"/>
		</g>
		<g>
			<polygon fill="#FDDE3B" points="564.5,196.6 503,206.1 503,206.1 496.4,231.4 499.3,250 519.8,246.9 528.7,304.8 549.2,301.6 
				555.8,276.3 555.8,276.3 550.5,242.1 560.8,240.6 567.4,215.2 567.4,215.2 			"/>
		</g>
		<g>
			<path fill="#FDDE3B" d="M646.4,184l-20.5,3.2l0,0l0,0l-6.6,25.3l5.4,35.3c-0.6,0.2-1.2,0.4-1.9,0.4c-0.7,0.1-1.4,0.2-2,0.2
				c-1,0-2-0.1-3-0.4c-1.6-0.4-3-1.1-4.3-2.1c-1.3-1-2.3-2.3-3.2-3.8c-0.8-1.6-1.4-3.3-1.7-5.2l-7.1-45.9l-20.5,3.2l0,0l0,0
				l-6.6,25.3l7.1,46.5c0.7,4.5,2,8.6,4,12.3c2,3.7,4.6,6.8,7.8,9.2c3.2,2.5,7,4.2,11.4,5.2c4.3,1,9.1,1,14.4,0.2
				c5.2-0.8,9.8-2.3,13.6-4.6c3.8-2.2,7-5,9.3-8.3c2.3-3.3,3.9-7,4.7-11.1c0.7-3.8,0.8-7.9,0.2-12.1c0.6-0.7,1.1-1.4,1.7-2.1
				c2.3-3.3,3.9-7,4.7-11.1c0.8-4,0.8-8.3,0.1-12.9L646.4,184z"/>
		</g>
		<g>
			<path fill="#FDDE3B" d="M745.6,247L745.6,247L745.6,247l-18.9-22.6c0-1.2-0.1-2.5-0.3-3.8c-0.2-1.4-0.5-2.8-0.9-4.1
				c2.2-1.7,4-3.8,5.3-6.2c2.3-4.4,3.1-9.4,2.2-15c-0.7-4.6-2.1-8.3-4.2-11.2c-2.1-2.9-4.7-5.1-7.8-6.5c-3-1.4-6.4-2.2-10-2.5
				c-1-0.1-1.9-0.1-2.9-0.1c-2.6,0-5.4,0.2-8.2,0.7l-30.1,4.6l0,0l-6.6,25.3l11.8,76.6l20.5-3.2l5.6-21.4l13.6,18.4l24.5-3.8
				L745.6,247L745.6,247L745.6,247z"/>
		</g>
		<g>
			<polygon fill="#FDDE3B" points="816.4,236.1 813.4,216.9 805.5,218.1 808.3,207.4 808.3,207.4 805.3,188.2 803.3,188.5 
				805.7,179.1 805.7,179.1 802.8,159.8 749.3,168.1 749.3,168.1 742.7,193.4 754.5,270 809.8,261.5 			"/>
		</g>
	</g>
</g>
<g>
	<path fill="#FFFFFF" d="M99.3,270.9l-19.8,75.7l16.5-2.5l3.2-14.3l0.4-1.9l1.9-0.3l24.8-3.8l1.9-0.3l1,1.6l7.6,12.7l16.9-2.6
		L111.8,269L99.3,270.9z M121.3,311.8l-4.1,0.6l-10.8,1.7l-4.1,0.6l0.9-4l3.2-14.5l1.6-7l3.6,6.1l7.6,12.9L121.3,311.8z"/>
	<path fill="#FFFFFF" d="M229.3,270.5c-2.9-4.2-6.5-7.4-10.7-9.7s-9.1-3.6-14.4-4.1c-1.9-0.2-3.8-0.2-5.8-0.2
		c-3.5,0-7.2,0.3-10.9,0.8l-23.3,3.6l10.9,71l25.5-3.9c5.3-0.8,10.3-2.4,14.8-4.7c4.6-2.3,8.5-5.2,11.7-8.8
		c3.2-3.5,5.6-7.7,7.1-12.4s1.8-10,0.9-15.7C234.3,280.1,232.2,274.7,229.3,270.5z M219.2,298.9c-0.9,3.1-2.4,5.7-4.5,7.9
		c-2.1,2.1-4.7,3.8-7.7,5.1c-3.1,1.3-6.5,2.2-10.1,2.7l-5.9,0.9l-2.8,0.4l-0.4-2.8l-5.9-38.1l-0.4-2.8l2.8-0.4l7-1.1
		c1.9-0.3,3.8-0.4,5.7-0.4c1.4,0,2.8,0.1,4.1,0.2c3.2,0.4,6.1,1.3,8.6,2.6c2.5,1.4,4.7,3.3,6.5,5.8c1.7,2.5,2.9,5.5,3.5,9.1
		C220.2,292.3,220.1,295.9,219.2,298.9z"/>
	<polygon fill="#FFFFFF" points="264.8,245.4 247.7,248.1 287.1,314.7 299.2,312.9 317.5,237.3 301.5,239.8 292,283.7 290.5,290.9 
		286.9,284.5 	"/>
	<polygon fill="#FFFFFF" points="366.5,288.4 363.7,288.8 363.3,286.1 361.8,276.1 361.3,273.3 364.1,272.9 392.6,268.5 
		390.5,254.8 362,259.2 359.2,259.6 358.8,256.8 357.4,248 357,245.2 359.8,244.8 390.1,240.1 388,226.4 340,233.8 351,304.9 
		400.7,297.2 398.6,283.5 	"/>
	<polygon fill="#FFFFFF" points="469,214 475.4,255.6 476.9,265.5 470.5,257.9 437.4,218.8 416.6,222 427.6,293 442.5,290.8 
		435.9,247.8 434.4,238 440.8,245.6 474.8,285.8 494.8,282.7 483.9,211.7 	"/>
	<polygon fill="#FFFFFF" points="562,199.6 506,208.3 508.1,221.3 525.8,218.6 528.6,218.2 529,221 537.5,276.1 552.4,273.8 
		543.9,218.6 543.5,215.9 546.3,215.5 564,212.7 	"/>
	<path fill="#FFFFFF" d="M643.9,187l-15,2.3l6.7,43.1c0.4,2.3,0.3,4.5-0.1,6.5s-1.2,3.9-2.3,5.6c-1.1,1.6-2.5,3-4.2,4.1
		c-1.7,1.1-3.7,1.8-5.8,2.1c-0.8,0.1-1.7,0.2-2.5,0.2c-1.3,0-2.5-0.2-3.7-0.5c-2-0.5-3.7-1.4-5.3-2.6c-1.6-1.2-2.8-2.8-3.8-4.6
		c-1-1.8-1.7-3.9-2.1-6.2l-6.7-43.1l-15,2.3l6.7,43.7c0.7,4.2,1.9,8,3.7,11.4c1.8,3.3,4.1,6.1,7,8.3c2.9,2.2,6.4,3.8,10.3,4.6
		c2.1,0.5,4.4,0.7,6.8,0.7c2.1,0,4.3-0.2,6.5-0.5c4.9-0.7,9.1-2.2,12.6-4.2s6.3-4.6,8.4-7.5c2.1-2.9,3.5-6.4,4.2-10
		c0.7-3.7,0.8-7.7,0.1-12L643.9,187z"/>
	<path fill="#FFFFFF" d="M720.5,216.1c3.4-1.7,5.9-4.1,7.6-7.2c2-3.8,2.7-8.3,1.9-13.3c-0.7-4.1-1.9-7.4-3.7-10
		c-1.9-2.5-4.1-4.4-6.7-5.6c-2.6-1.3-5.7-2-9-2.2c-0.9-0.1-1.8-0.1-2.7-0.1c-2.5,0-5.2,0.2-7.8,0.6l-27.4,4.2l10.9,71l15-2.3l-4-26
		l-0.4-2.8l2.8-0.4l4.1-0.7l1.7-0.2l1,1.4l18.4,25l17.9-2.8l-20.4-24.5l-2.3-2.7L720.5,216.1z M713.9,203c-0.7,1.3-1.7,2.3-3,3.1
		c-1.3,0.7-2.7,1.3-4.3,1.6c-1.6,0.4-3.1,0.7-4.5,0.8l-7,1.1l-2.8,0.4l-0.4-2.8l-1.8-11.8l-0.4-2.8l2.8-0.4l8-1.3
		c1.4-0.2,2.9-0.4,4.5-0.4c0.1,0,0.2,0,0.3,0c1.4,0,2.8,0.2,4,0.6c1.3,0.4,2.5,1.1,3.4,2.2s1.6,2.5,1.9,4.4
		C714.8,200,714.6,201.6,713.9,203z"/>
	<polygon fill="#FFFFFF" points="811,219.9 778.8,224.9 776.1,225.3 775.7,222.5 774.2,212.5 773.7,209.8 776.5,209.3 804.9,204.9 
		802.8,191.3 774.3,195.6 771.6,196.1 771.2,193.2 769.8,184.5 769.4,181.7 772.2,181.3 802.4,176.6 800.3,162.9 752.4,170.3 
		763.3,241.3 813.1,233.7 	"/>
</g>
</svg>
