<?xml version="1.0" encoding="utf-8"?>
<!-- Generator: Adobe Illustrator 17.1.0, SVG Export Plug-In . SVG Version: 6.00 Build 0)  -->
<!DOCTYPE svg PUBLIC "-//W3C//DTD SVG 1.1//EN" "http://www.w3.org/Graphics/SVG/1.1/DTD/svg11.dtd">
<svg version="1.1" id="Layer_1" xmlns="http://www.w3.org/2000/svg" xmlns:xlink="http://www.w3.org/1999/xlink" x="0px" y="0px"
	 viewBox="0 0 1354.8 659.9" enable-background="new 0 0 1354.8 659.9" xml:space="preserve">
<rect x="0" y="0" fill="#86D4EF" width="1354.8" height="659.9"/>
<polyline fill="#FDDE3B" points="980.7,195.8 975,214.1 972.6,218.7 961.3,209.8 978,192.4 980.7,195.8 "/>
<g>
	
		<rect x="256.4" y="123.3" transform="matrix(0.9885 -0.1509 0.1509 0.9885 -28.7422 105.0867)" opacity="0.6" fill="none" stroke="#2B6985" stroke-width="3" stroke-miterlimit="10" width="842.9" height="237.2"/>
	
		<rect x="262.5" y="129.4" transform="matrix(0.9885 -0.1509 0.1509 0.9885 -28.7422 105.0868)" opacity="0.6" fill="none" stroke="#2B6985" stroke-width="3" stroke-miterlimit="10" width="830.7" height="224.9"/>
	<polygon fill="#FDDE3B" points="900.9,228 893.4,256.8 887.1,243.8 	"/>
	
		<rect x="284.1" y="153.8" transform="matrix(0.9883 -0.1523 0.1523 0.9883 -19.9862 105.4348)" fill="none" width="788" height="58.7"/>
	
		<text transform="matrix(0.9883 -0.1523 0.1523 0.9883 334.6295 242.434)" opacity="0.6" fill="#2B6985" font-family="'Avenir-Medium'" font-size="47.1192" letter-spacing="21">DREAM DIRECTOR</text>
	<path fill="none" d="M451.4,290.5c-1.5-2.1-3.4-3.8-5.6-5c-2.2-1.2-4.8-2-7.7-2.4c-2.9-0.4-6-0.3-9.1,0.2l-7.1,1.1l3.9,25.6
		l28.7-10.9c0-0.2-0.1-0.5-0.1-0.7C453.9,295.2,452.9,292.6,451.4,290.5z"/>
	<path fill="#E2C722" d="M873.5,235.9c-0.1,0.5-0.2,0.9-0.4,1.3l0.8,5C874.2,244.2,873.8,234.2,873.5,235.9z"/>
	<path fill="#E2C722" d="M426.3,313.4l7.6-1.9c3.5-0.5,7.1-1,10-2.2c2.7-1.1,4.5,1.9,6.3,0c1.8-1.8,3,1.5,3.8-1.2
		c0.7-2.5,0.9-5.5,0.4-9L425.8,310L426.3,313.4z"/>
	<path fill="#CDAF34" d="M873.5,235.9c-0.1,0.5-0.2,0.9-0.4,1.3l0.8,5C874.2,244.2,873.8,234.2,873.5,235.9z"/>
	<path fill="#CDAF34" d="M426.3,313.3l7.6-1.9c3.5-0.5,7.1-1,10-2.2c2.7-1.1,4.5,1.9,6.3,0c1.8-1.8,3,1.5,3.8-1.2
		c0.7-2.5,0.9-5.5,0.4-9L425.8,310L426.3,313.3z"/>
	<line opacity="0.6" fill="none" x1="503.6" y1="153.4" x2="828.2" y2="104.5"/>
	<line fill="none" stroke="#86D4EF" stroke-width="24" stroke-miterlimit="10" x1="598.9" y1="138.9" x2="743.2" y2="117.2"/>
	<g opacity="0.6">
		
			<rect x="276.7" y="117.3" transform="matrix(0.9883 -0.1523 0.1523 0.9883 -13.2732 103.7804)" fill="none" width="788" height="42.5"/>
		
			<text transform="matrix(0.9883 -0.1523 0.1523 0.9883 630.9424 144.7728)" fill="#2B6985" font-family="'Avenir-Heavy'" font-size="28.2715" letter-spacing="13">THE</text>
	</g>
	<line fill="none" stroke="#86D4EF" stroke-width="40" stroke-miterlimit="10" x1="575.4" y1="368.5" x2="828.2" y2="330.4"/>
	<g opacity="0.6">
		
			<rect x="310.5" y="330.5" transform="matrix(0.9883 -0.1523 0.1523 0.9883 -46.5181 111.5119)" fill="none" width="788" height="57.7"/>
		
			<text transform="matrix(0.9883 -0.1523 0.1523 0.9883 621.6342 378.9865)" fill="#2B6985" font-family="'Avenir-Medium'" font-size="47.1192" letter-spacing="21">2014</text>
	</g>
	<g>
		<polygon fill="#FDDE3B" points="356.6,256.1 340.3,258.6 318.8,340.9 318.8,340.9 312.2,366.5 334.9,363 339.2,346.6 363.6,342.8 
			372.3,357.2 395.4,353.6 402,328.1 402,328.1 		"/>
		<path fill="#FDDE3B" d="M482.4,276.4c-1.1-7-3.2-12.8-6.4-17.4c-3.2-4.6-7.2-8.2-11.8-10.6c-4.6-2.4-9.8-3.9-15.5-4.5
			c-2-0.2-4-0.3-6-0.3c-3.7,0-7.5,0.3-11.4,0.9l-26.3,4.1l0,0l-6.6,25.5l11.9,77.2l28.5-4.4c5.6-0.9,10.9-2.5,15.8-5
			c4.9-2.4,9.2-5.6,12.6-9.4c3.5-3.9,6.1-8.4,7.7-13.5c0.1-0.4,0.2-0.9,0.4-1.3l0,0l0.2-0.6c0,0,0-0.1,0-0.1l6.4-24.4l0,0
			C483,287.7,483.3,282.3,482.4,276.4z M440.4,302.3l-6,0.9l-2.2-14.3c2-0.1,4-0.1,5.9,0.1c2.9,0.3,5.5,1.1,7.7,2.4
			c2.2,1.2,4.1,2.9,5.6,5c0.4,0.6,0.8,1.3,1.2,2c-0.8,0.5-1.7,0.9-2.6,1.3C447.1,300.9,443.9,301.8,440.4,302.3z"/>
		<polygon fill="#FDDE3B" points="544.1,227.2 544.1,227.2 537.5,252.7 533.3,271.9 510.9,232.3 487.7,235.9 487.7,235.9 
			487.7,235.9 481,261.4 523.8,333.8 539.7,331.4 546.4,305.9 546.4,305.9 566.3,223.8 544.1,227.2 		"/>
		<polygon fill="#FDDE3B" points="646.7,270.5 638.6,271.8 641.4,261 641.4,261 638.5,241.6 636.5,241.9 638.9,232.4 638.9,232.4 
			635.9,213 582,221.3 582,221.3 575.4,246.9 587.3,324.1 643,315.5 649.7,289.9 649.7,289.9 		"/>
		<polygon fill="#FDDE3B" points="732.7,198.1 712,201.3 712,201.3 712,201.3 705.4,226.8 706.4,231.3 684.6,205.5 659.2,209.4 
			659.2,209.4 652.6,235 664.5,312.2 685.1,309 691.8,283.5 691.8,283.5 691,278.2 713.4,304.6 737.9,300.8 744.5,275.3 
			744.5,275.3 		"/>
		<polygon fill="#FDDE3B" points="811.4,186 749.4,195.5 749.4,195.5 742.8,221.1 745.7,239.9 766.4,236.7 775.4,295.1 796,291.9 
			802.6,266.4 802.6,266.4 797.3,231.9 807.7,230.3 814.3,204.8 814.3,204.8 		"/>
		<path fill="#FDDE3B" d="M894,173.3l-20.6,3.2l0,0l0,0l-6.6,25.5l5.5,35.5c-0.6,0.2-1.2,0.3-1.9,0.4c-0.7,0.1-1.4,0.2-2.1,0.2
			c-1,0-2.1-0.1-3-0.4c-1.6-0.4-3-1.1-4.3-2.1c-1.3-1-2.3-2.3-3.2-3.8c-0.9-1.5-1.5-3.3-1.8-5.3l-7.1-46.3l-20.6,3.2l0,0l0,0
			l-6.6,25.5l7.2,46.9c0.7,4.6,2.1,8.7,4,12.3c2,3.7,4.7,6.8,7.9,9.3c3.2,2.5,7.1,4.2,11.5,5.2c4.3,1,9.2,1.1,14.5,0.2
			c5.3-0.8,9.9-2.4,13.7-4.6c3.9-2.3,7-5.1,9.4-8.4c2.3-3.3,3.9-7.1,4.7-11.2c0.7-3.8,0.8-7.9,0.2-12.2c0.6-0.7,1.2-1.4,1.7-2.1
			c2.3-3.3,3.9-7.1,4.7-11.2c0.8-4.1,0.8-8.4,0.1-13L894,173.3z"/>
		<path fill="#FDDE3B" d="M994,236.9L994,236.9L994,236.9l-19-22.8c0-1.2-0.1-2.5-0.3-3.8c-0.2-1.5-0.5-2.8-0.9-4.1
			c2.2-1.7,4-3.8,5.3-6.2c2.3-4.4,3.1-9.5,2.2-15.1c-0.7-4.6-2.1-8.4-4.3-11.3c-2.1-2.9-4.8-5.1-7.9-6.6c-3-1.4-6.4-2.2-10.1-2.5
			c-1-0.1-1.9-0.1-2.9-0.1c-2.7,0-5.5,0.2-8.3,0.7l-30.4,4.7l0,0l-6.6,25.5l11.9,77.2l20.6-3.2l5.6-21.6l13.7,18.6l24.7-3.8
			L994,236.9L994,236.9L994,236.9z"/>
		<polygon fill="#FDDE3B" points="1065.4,225.9 1062.4,206.5 1054.4,207.7 1057.2,196.9 1057.2,196.9 1054.2,177.5 1052.2,177.8 
			1054.7,168.4 1054.7,168.4 1051.7,149 997.8,157.3 997.7,157.3 991.1,182.8 1003,260 1058.8,251.4 1065.4,225.9 		"/>
	</g>
</g>
<g>
	<path fill="#FFFFFF" d="M342.4,260.9l-19.9,76.4l16.6-2.6l3.3-14.4l0.4-1.9l1.9-0.3l25-3.9l1.9-0.3l1,1.6l7.6,12.8l17-2.6L355,259
		L342.4,260.9z M364.6,302.2l-4.1,0.6l-10.9,1.7l-4.1,0.6l0.9-4l3.3-14.7l1.6-7l3.6,6.2l7.6,13L364.6,302.2z"/>
	<path fill="#FFFFFF" d="M473.5,260.5c-2.9-4.2-6.6-7.5-10.9-9.7c-4.3-2.3-9.1-3.7-14.5-4.1c-1.9-0.2-3.8-0.3-5.8-0.3
		c-3.6,0-7.3,0.3-10.9,0.9l-23.5,3.6l11,71.6l25.7-4c5.3-0.8,10.4-2.4,15-4.7c4.6-2.3,8.6-5.3,11.8-8.8c3.2-3.6,5.6-7.7,7.1-12.5
		c1.5-4.7,1.8-10,0.9-15.8C478.4,270.2,476.4,264.7,473.5,260.5z M463.2,289.2c-0.9,3.1-2.4,5.8-4.5,7.9c-2.1,2.1-4.7,3.9-7.8,5.1
		c-3.1,1.2-6.5,2.2-10.2,2.7l-6,0.9l-2.8,0.4l-0.4-2.8l-5.9-38.4l-0.4-2.8l2.8-0.4l7.1-1.1c1.9-0.3,3.9-0.4,5.7-0.4
		c1.4,0,2.8,0.1,4.2,0.2c3.2,0.4,6.1,1.3,8.7,2.7c2.6,1.4,4.8,3.3,6.5,5.8c1.8,2.5,3,5.6,3.5,9.2
		C464.3,282.4,464.1,286.1,463.2,289.2z"/>
	<polygon fill="#FFFFFF" points="509.3,235.2 492,237.9 531.7,305.1 543.9,303.2 562.4,227 546.3,229.5 536.7,273.8 535.1,281.1 
		531.5,274.6 	"/>
	<polygon fill="#FFFFFF" points="611.8,278.6 609,279 608.6,276.2 607,266.1 606.6,263.3 609.4,262.9 638,258.5 635.9,244.7 
		607.3,249.1 604.5,249.5 604,246.7 602.7,237.8 602.2,235 605,234.6 635.5,229.9 633.4,216.1 585.1,223.5 596.1,295.2 646.3,287.4 
		644.2,273.6 	"/>
	<polygon fill="#FFFFFF" points="715.1,203.5 721.5,245.5 723.1,255.4 716.6,247.8 683.3,208.4 662.3,211.6 673.3,283.2 
		688.4,280.9 681.7,237.7 680.2,227.8 686.7,235.4 721,275.9 741.2,272.8 730.1,201.2 	"/>
	<polygon fill="#FFFFFF" points="808.9,189 752.5,197.7 754.5,211 772.4,208.2 775.2,207.8 775.6,210.6 784.2,266.2 799.2,263.8 
		790.7,208.2 790.2,205.4 793,205 810.9,202.3 	"/>
	<path fill="#FFFFFF" d="M891.5,176.3l-15.1,2.3l6.7,43.5c0.4,2.3,0.3,4.5-0.1,6.6c-0.4,2.1-1.2,4-2.3,5.6c-1.1,1.6-2.5,3-4.2,4.1
		c-1.7,1.1-3.7,1.8-5.8,2.1c-0.8,0.1-1.7,0.2-2.5,0.2c-1.3,0-2.6-0.2-3.8-0.5c-2-0.5-3.8-1.4-5.3-2.6c-1.6-1.2-2.9-2.8-3.9-4.6
		c-1-1.8-1.7-3.9-2.1-6.2l-6.7-43.5l-15.1,2.3l6.8,44.1c0.7,4.2,1.9,8.1,3.7,11.4c1.8,3.3,4.2,6.2,7.1,8.4c2.9,2.2,6.4,3.8,10.4,4.7
		c2.1,0.5,4.5,0.7,6.9,0.7c2.1,0,4.3-0.2,6.6-0.5c4.9-0.8,9.2-2.2,12.7-4.2c3.5-2,6.4-4.6,8.5-7.6c2.1-3,3.5-6.4,4.3-10.1
		c0.7-3.7,0.8-7.8,0.1-12L891.5,176.3z"/>
	<path fill="#FFFFFF" d="M968.7,205.6c3.4-1.7,6-4.1,7.6-7.2c2.1-3.9,2.7-8.4,1.9-13.4c-0.6-4.1-1.9-7.5-3.8-10.1
		c-1.9-2.5-4.1-4.4-6.8-5.7c-2.7-1.3-5.7-2-9.1-2.2c-0.9-0.1-1.8-0.1-2.7-0.1c-2.5,0-5.2,0.2-7.8,0.6l-27.6,4.3l11,71.6l15.1-2.3
		l-4-26.2l-0.4-2.8l2.8-0.4l4.2-0.6l1.7-0.3l1,1.4l18.6,25.3l18.1-2.8L967.8,210l-2.3-2.7L968.7,205.6z M962,192.4
		c-0.7,1.3-1.7,2.3-3,3.1c-1.3,0.7-2.7,1.3-4.3,1.6c-1.6,0.4-3.1,0.6-4.6,0.9l-7.1,1.1l-2.8,0.4l-0.4-2.8l-1.8-11.8l-0.4-2.8
		l2.8-0.4l8.1-1.3c1.5-0.2,3-0.4,4.5-0.4c0.1,0,0.2,0,0.3,0c1.5,0,2.8,0.2,4,0.6c1.3,0.4,2.5,1.2,3.5,2.2c1,1,1.6,2.6,1.9,4.5
		C962.9,189.4,962.7,191.1,962,192.4z"/>
	<polygon fill="#FFFFFF" points="1059.9,209.5 1027.6,214.5 1024.8,214.9 1024.3,212.1 1022.8,202 1022.3,199.2 1025.1,198.8 
		1053.8,194.4 1051.7,180.6 1023,185 1020.2,185.4 1019.8,182.6 1018.4,173.8 1018,171 1020.8,170.5 1051.3,165.8 1049.2,152 
		1000.8,159.5 1011.8,231.1 1062,223.3 	"/>
</g>
</svg>
