<?xml version="1.0" encoding="utf-8"?>
<!-- Generator: Adobe Illustrator 17.1.0, SVG Export Plug-In . SVG Version: 6.00 Build 0)  -->
<!DOCTYPE svg PUBLIC "-//W3C//DTD SVG 1.1//EN" "http://www.w3.org/Graphics/SVG/1.1/DTD/svg11.dtd">
<svg version="1.1" id="Layer_1" xmlns="http://www.w3.org/2000/svg" xmlns:xlink="http://www.w3.org/1999/xlink" x="0px" y="0px"
	 viewBox="0 0 864 504" enable-background="new 0 0 864 504" xml:space="preserve">
<path opacity="0.6" fill="#528EA9" d="M406.9,226.9v52.2H459v-52.2H406.9z M456,276.1h-5h-9.3c0-2,0-4,0-6.1c0-3.3,0-6.5,0-9.8
	c0-1.1,0-2.2,0-3.4l0,0h6l1.1-7.6h-6.9c0-1.6,0-3.2,0-4.7c0-1,0.6-1.8,1.7-2c0.5-0.1,1-0.1,1.5-0.1c1.2,0,2.4,0,3.7,0
	c0-2.6,0-5.1,0-7.7c-1.4,0-2.7,0-4,0c-1.9,0.1-3.7,0-5.6,0.3c-3.9,0.6-6.4,3.6-6.5,7.5c0,2.1,0,4.1-0.1,6.2c0,0.1,0,0.3,0,0.5h-4.4
	v0.1c0,2.5,0,5,0,7.5c1.5,0,2.9,0,4.4,0c0,0.4,0,0.7,0,0.9c0,6.1,0,12.2,0.1,18.4h-0.2h-11.1h-11.5v-46.2H456V276.1z"/>
</svg>
