<?xml version="1.0" encoding="utf-8"?>
<!-- Generator: Adobe Illustrator 17.1.0, SVG Export Plug-In . SVG Version: 6.00 Build 0)  -->
<!DOCTYPE svg PUBLIC "-//W3C//DTD SVG 1.1//EN" "http://www.w3.org/Graphics/SVG/1.1/DTD/svg11.dtd">
<svg version="1.1" id="Layer_1" xmlns="http://www.w3.org/2000/svg" xmlns:xlink="http://www.w3.org/1999/xlink" x="0px" y="0px"
	 viewBox="0 0 864 504" enable-background="new 0 0 864 504" xml:space="preserve">
<path opacity="0.6" fill="#528EA9" d="M406.9,226.9v52.2h52.2v-52.2H406.9z M444.1,241.4v-9.7h9.7v9.7H444.1z M444.8,253.8
	c0,6.5-5.3,11.8-11.8,11.8c-6.5,0-11.8-5.3-11.8-11.8c0-1.7,0.4-3.4,1-4.8c1.9-4.1,6-7,10.8-7c4.8,0,8.9,2.9,10.8,7
	C444.5,250.4,444.8,252.1,444.8,253.8z M409.9,276.1v-27.2h9.1c-0.5,1.5-0.8,3.1-0.8,4.8c0,8.2,6.7,14.8,14.8,14.8
	c8.2,0,14.8-6.7,14.8-14.8c0-1.7-0.3-3.3-0.8-4.8h9.1v27.2H409.9z"/>
</svg>
