<?xml version="1.0" encoding="utf-8"?>
<!-- Generator: Adobe Illustrator 17.1.0, SVG Export Plug-In . SVG Version: 6.00 Build 0)  -->
<!DOCTYPE svg PUBLIC "-//W3C//DTD SVG 1.1//EN" "http://www.w3.org/Graphics/SVG/1.1/DTD/svg11.dtd">
<svg version="1.1" id="Layer_1" xmlns="http://www.w3.org/2000/svg" xmlns:xlink="http://www.w3.org/1999/xlink" x="0px" y="0px"
	 viewBox="0 0 52.2 52.2" enable-background="new 0 0 52.2 52.2" xml:space="preserve">
<path fill="#FFFFFF" d="M0,0v52.2h52.2V0H0z M37.2,14.5V4.8h9.7v9.7H37.2z M37.9,26.8c0,6.5-5.3,11.8-11.8,11.8
	c-6.5,0-11.8-5.3-11.8-11.8c0-1.7,0.4-3.4,1-4.8c1.9-4.1,6-7,10.8-7c4.8,0,8.9,2.9,10.8,7C37.5,23.5,37.9,25.1,37.9,26.8z M3,49.2
	V22h9.1c-0.5,1.5-0.8,3.1-0.8,4.8c0,8.2,6.7,14.8,14.8,14.8c8.2,0,14.8-6.7,14.8-14.8c0-1.7-0.3-3.3-0.8-4.8h9.1v27.2H3z"/>
</svg>
