<?xml version="1.0" encoding="utf-8"?>
<!-- Generator: Adobe Illustrator 17.1.0, SVG Export Plug-In . SVG Version: 6.00 Build 0)  -->
<!DOCTYPE svg PUBLIC "-//W3C//DTD SVG 1.1//EN" "http://www.w3.org/Graphics/SVG/1.1/DTD/svg11.dtd">
<svg version="1.1" id="Layer_1" xmlns="http://www.w3.org/2000/svg" xmlns:xlink="http://www.w3.org/1999/xlink" x="0px" y="0px"
	 viewBox="0 0 52.2 52.2" enable-background="new 0 0 52.2 52.2" xml:space="preserve">
<g opacity="0.6">
	<g>
		<path fill="#2B6985" d="M0,0.1v52.2h52.2V0.1H0z M49.2,49.3H3V3.1h46.2V49.3z"/>
		<path fill="#2B6985" d="M6.8,38.2c3.5,2.2,7.7,3.6,12.1,3.6c14.6,0,22.5-12.1,22.5-22.5c0-0.3,0-0.7,0-1c1.5-1.1,2.9-2.5,3.9-4.1
			c-1.4,0.6-2.9,1.1-4.5,1.2c1.6-1,2.9-2.5,3.5-4.4c-1.5,0.9-3.2,1.6-5,1.9c-1.4-1.5-3.5-2.5-5.8-2.5c-4.4,0-7.9,3.5-7.9,7.9
			c0,0.6,0.1,1.2,0.2,1.8c-6.6-0.3-12.4-3.5-16.3-8.3c-0.7,1.2-1.1,2.5-1.1,4c0,2.7,1.4,5.2,3.5,6.6c-1.3,0-2.5-0.4-3.6-1
			c0,0,0,0.1,0,0.1c0,3.8,2.7,7,6.3,7.8c-0.7,0.2-1.4,0.3-2.1,0.3c-0.5,0-1,0-1.5-0.1c1,3.1,3.9,5.4,7.4,5.5
			c-2.7,2.1-6.1,3.4-9.8,3.4C8,38.3,7.4,38.3,6.8,38.2z"/>
	</g>
</g>
</svg>
