<?xml version="1.0" encoding="UTF-8" standalone="no"?>
<!-- Created with Inkscape (http://www.inkscape.org/) -->

<svg
   viewBox="0 0 509.50601 509.517"
   xmlns:dc="http://purl.org/dc/elements/1.1/"
   xmlns:cc="http://creativecommons.org/ns#"
   xmlns:rdf="http://www.w3.org/1999/02/22-rdf-syntax-ns#"
   xmlns:svg="http://www.w3.org/2000/svg"
   xmlns="http://www.w3.org/2000/svg"
   xmlns:sodipodi="http://sodipodi.sourceforge.net/DTD/sodipodi-0.dtd"
   xmlns:inkscape="http://www.inkscape.org/namespaces/inkscape"
   width="509.50601"
   height="509.517"
   id="svg2"
   version="1.1"
   inkscape:version="0.48.2 r9819"
   sodipodi:docname="TFP Logo Randolph.svg"
   inkscape:export-filename="/Users/thenepotist/Documents/TFP/Logos/TFP Logo Randolph.png"
   inkscape:export-xdpi="300"
   inkscape:export-ydpi="300">
  <defs
     id="defs4" />
  <sodipodi:namedview
     id="base"
     pagecolor="#ffffff"
     bordercolor="#666666"
     borderopacity="1.0"
     inkscape:pageopacity="0.0"
     inkscape:pageshadow="2"
     inkscape:zoom="0.35"
     inkscape:cx="232.61014"
     inkscape:cy="289.04422"
     inkscape:document-units="px"
     inkscape:current-layer="layer1"
     showgrid="false"
     inkscape:window-width="980"
     inkscape:window-height="620"
     inkscape:window-x="4"
     inkscape:window-y="0"
     inkscape:window-maximized="0"
     fit-margin-top="0"
     fit-margin-left="0"
     fit-margin-right="0"
     fit-margin-bottom="0" />
  <metadata
     id="metadata7">
    <rdf:RDF>
      <cc:Work
         rdf:about="">
        <dc:format>image/svg+xml</dc:format>
        <dc:type
           rdf:resource="http://purl.org/dc/dcmitype/StillImage" />
        <dc:title></dc:title>
      </cc:Work>
    </rdf:RDF>
  </metadata>
  <g
     inkscape:label="Layer 1"
     inkscape:groupmode="layer"
     id="layer1"
     transform="translate(-142.38986,-311.8894)">
    <g
       id="g3213"
       transform="translate(90.144857,179.1464)">
      <path
         id="path3215"
         d="m 142.195,556.611 c 0.98,0.581 1.763,1.376 2.358,2.359 -0.993,-0.579 -1.778,-1.374 -2.358,-2.359"
         clip-rule="evenodd"
         inkscape:connector-curvature="0"
         style="fill:#cbdce6;fill-rule:evenodd" />
      <g
         id="g3217">
        <path
           id="path3219"
           d="m 541.729,288.336 c -12.831,-30.337 -31.199,-57.581 -54.594,-80.976 -23.396,-23.396 -50.64,-41.764 -80.977,-54.594 -31.413,-13.287 -64.777,-20.023 -99.166,-20.023 -34.387,0 -67.749,6.737 -99.162,20.023 -30.333,12.83 -57.576,31.198 -80.972,54.594 -23.394,23.395 -41.761,50.639 -54.591,80.976 -13.286,31.41 -20.022,64.774 -20.022,99.166 0,34.393 6.736,67.756 20.022,99.165 12.831,30.338 31.198,57.583 54.591,80.977 23.395,23.395 50.637,41.763 80.972,54.594 31.416,13.286 64.779,20.022 99.162,20.022 34.386,0 67.75,-6.736 99.166,-20.022 30.338,-12.832 57.583,-31.199 80.977,-54.594 23.395,-23.394 41.762,-50.639 54.594,-80.977 13.286,-31.413 20.022,-64.777 20.022,-99.165 0,-34.387 -6.736,-67.752 -20.022,-99.166 z"
           inkscape:connector-curvature="0"
           style="fill:#ffffff" />
      </g>
      <g
         id="g3221">
        <g
           id="g3223">
          <g
             id="g3225">
            <path
               id="path3227"
               d="m 388.639,310.82 -5.712,1.949 c -0.646,0.221 -0.758,0.932 -0.773,1.275 v 0.19 29.081 0.151 c 0.012,0.414 0.132,1.523 1.101,1.192 l 5.218,-1.78 c 1.612,-0.742 5.531,-2.76 7.525,-5.666 0,0 1.727,-2.029 1.727,-5.871 v -15.996 c 0,0 0.246,-2.54 -1.442,-4.227 -0.002,0.002 -1.159,-2.514 -7.644,-0.298 z"
               inkscape:connector-curvature="0"
               style="fill:#78d0eb" />
            <path
               id="path3229"
               d="m 306.976,149.463 c -131.508,0 -238.119,106.609 -238.119,238.12 0,117.612 85.275,215.299 197.367,234.632 V 361.36 l -12.741,17.213 v -17.338 l 12.561,-16.968 8.589,-11.602 8.614,5.7 12.289,8.131 v 17.283 l -12.84,-8.495 v 269.193 c 7.983,0.809 16.084,1.224 24.28,1.224 131.509,0 238.119,-106.61 238.119,-238.119 0,-131.51 -106.611,-238.119 -238.119,-238.119 z m -119.799,233.034 -26.812,9.156 v 31.669 l 21.021,-7.179 v 14.698 l -21.021,7.178 v 27.852 14.699 l -16.469,5.625 v -14.699 -74.219 -14.698 l 16.469,-5.625 26.812,-9.156 v 14.699 z m 55.873,-19.08 v 65.563 c 0,3.252 -0.566,6.39 -1.305,9.101 -0.063,0.234 -0.129,0.465 -0.195,0.693 -1.361,4.692 -3.157,7.938 -3.157,7.938 -0.211,0.388 -0.437,0.769 -0.669,1.144 -2.487,4.02 -6.178,7.211 -9.359,9.443 l 0.001,0.05 v 0.032 l -0.237,0.083 c -3.376,2.337 -6.117,3.584 -6.117,3.584 -4.475,1.702 -8.283,2.354 -11.43,2.435 -0.031,0.002 -0.062,0.004 -0.092,0.004 -0.037,10e-4 -0.072,0.002 -0.108,0.004 l -0.034,0.012 h -0.957 l 0.002,-0.011 c -6.496,-0.124 -9.797,-2.677 -9.797,-2.677 -1.953,-1.391 -3.187,-4.097 -3.971,-6.983 -0.076,-0.283 -0.148,-0.566 -0.217,-0.853 -0.881,-3.68 -1.08,-7.47 -1.125,-9.108 V 380.07 365.373 l 16.299,-5.566 v 14.698 66.428 c 0.033,1.361 0.375,5.125 3.044,6.438 0.13,0.064 0.267,0.122 0.409,0.174 1.148,0.421 2.675,0.424 4.71,-0.299 0,0 3.021,-1.004 5.287,-3.078 0.02,-0.018 0.036,-0.038 0.058,-0.057 0.727,-0.676 1.375,-1.463 1.811,-2.366 0,0 1.244,-2.409 1.244,-7.373 v -65.523 -14.698 l 15.906,-5.432 v 14.698 z m 111.454,-38.063 v 65.51 c 0,3.272 -0.566,6.431 -1.3,9.154 -1.357,5.033 -3.289,8.576 -3.289,8.576 -0.061,0.113 -0.129,0.225 -0.192,0.337 -0.113,0.202 -0.228,0.404 -0.347,0.603 -2.476,4.095 -6.213,7.341 -9.438,9.61 l 0.001,0.101 -0.285,0.099 h -0.003 c -3.376,2.34 -6.117,3.587 -6.117,3.587 -4.521,1.721 -8.362,2.366 -11.527,2.439 -0.354,0.009 -0.702,0.01 -1.04,0.005 -6.53,-0.111 -9.85,-2.678 -9.85,-2.678 -0.811,-0.577 -1.495,-1.384 -2.079,-2.333 -0.473,-0.773 -0.877,-1.642 -1.223,-2.564 -0.25,-0.664 -0.469,-1.354 -0.66,-2.057 -1.312,-4.82 -1.361,-10.16 -1.361,-10.77 v -0.063 -62.921 -14.698 l 16.469,-5.625 v 14.698 67.572 l 0.083,-1.354 c 0.008,-0.2 0.019,-0.32 0.019,-0.32 l -0.019,0.32 c -0.053,1.237 -0.011,5.739 3.253,6.863 1.137,0.391 2.665,0.375 4.719,-0.338 0,0 3.026,-1.005 5.293,-3.081 0.75,-0.688 1.417,-1.493 1.863,-2.419 0,0 1.251,-2.492 1.251,-4.034 v -68.831 -14.697 l 15.779,-5.389 v 14.698 z m 46.069,73.916 c 0,0 -0.168,-0.213 -0.406,-0.591 -0.624,-0.989 -1.753,-3.147 -1.753,-5.855 v -8.245 -11.847 c 0,0 0.4,-10.199 -3.254,-11.963 0,0 -2.364,-1.789 -7.417,-0.064 l -3.251,1.11 0,0 c 0,0 -2.339,0.768 -2.339,2.788 v 25.53 14.698 l -16.472,5.624 v -14.697 -74.22 -14.698 l 16.472,-5.625 9.388,-3.206 0,0 c 0,0 0.016,-0.006 0.044,-0.016 0.846,-0.283 13.995,-4.549 19.176,1.689 0,0 1.6,2.087 2.613,5.568 0.471,1.614 0.814,3.526 0.814,5.672 v 14.088 c 0,0 0.149,13.123 -10.129,21.73 0.002,0 5,1.095 6.628,3.268 0,0 3.501,3.6 3.501,10.369 v 18.814 6.318 c 0,0 -10e-4,3.154 1.773,7.774 0.036,0.095 0.07,0.188 0.107,0.285 l -15.495,5.702 z m 68.71,-113.111 -27.969,9.551 v 28.99 l 22.312,-7.619 v 14.697 l -22.312,7.62 v 30.53 l 27.969,-9.551 v 14.697 l -27.969,9.552 -16.471,5.624 v -14.697 -74.22 -14.697 l 16.471,-5.625 27.969,-9.551 v 14.699 z"
               inkscape:connector-curvature="0"
               style="fill:#78d0eb" />
          </g>
          <path
             id="path3231"
             d="m 322.346,399.705 0.019,-0.321 c -0.001,0 -0.011,0.12 -0.019,0.321 z"
             inkscape:connector-curvature="0"
             style="opacity:0.5;fill:#3093b2" />
          <path
             id="path3233"
             d="m 322.346,399.705 0.019,-0.321 c -0.001,0 -0.011,0.12 -0.019,0.321 z"
             inkscape:connector-curvature="0"
             style="opacity:0.5;fill:#3093b2" />
        </g>
        <g
           id="g3235">
          <path
             id="path3237"
             d="m 315.829,451.784 c -0.367,0 -0.771,0.075 -1.203,0.222 l -4.027,1.375 -0.116,0.039 v 0.124 16.095 0.241 l 0.228,-0.078 4.359,-1.49 0.071,-0.022 c 0.542,-0.188 3.238,-1.288 3.238,-4.564 v -8.494 c -0.036,-1.038 -0.359,-3.448 -2.55,-3.448 z"
             inkscape:connector-curvature="0"
             style="fill:none" />
          <path
             id="path3239"
             d="m 340.797,443.374 c -0.653,0 -1.285,0.149 -1.707,0.276 l -3.527,1.205 -0.116,0.04 v 0.124 14.586 0.242 l 0.228,-0.079 4.234,-1.446 c 0.149,-0.062 3.629,-1.557 3.629,-7.183 v -4.792 c -0.001,-1.889 -1,-2.973 -2.741,-2.973 z"
             inkscape:connector-curvature="0"
             style="fill:none" />
          <g
             id="g3241">
            <polygon
               id="polygon3243"
               points="459.286,402.669 459.286,402.546 459.286,402.422 459.402,402.382 459.52,402.343 467.025,399.779 467.025,394.229 445.594,401.549 445.594,407.099 452.84,404.624 453.068,404.546 453.297,404.467 453.297,404.709 453.297,404.95 453.297,444.011 459.286,441.965 "
               style="fill:#17506e" />
            <path
               id="path3245"
               d="m 324.288,449.085 c -0.718,-3.392 -2.917,-4.104 -4.635,-4.104 -0.508,0 -1.039,0.059 -1.579,0.174 l -0.77,0.203 -12.984,4.436 -10e-4,6.395 10e-4,38.699 5.989,-2.046 v -16.924 -0.123 -0.123 l 0.116,-0.04 0.117,-0.04 7.209,-2.462 c 0.055,-0.019 0.101,-0.032 0.165,-0.057 0.943,-0.344 5.685,-2.377 6.5,-8.689 l 0.126,-1.962 -0.002,-10.668 c 10e-4,-0.977 -0.084,-1.874 -0.252,-2.669 z m -5.736,14.64 c 0,3.393 -2.795,4.533 -3.354,4.728 l -0.075,0.024 -4.354,1.488 -0.23,0.078 -0.228,0.078 v -0.241 -0.241 -16.095 -0.124 -0.123 l 0.116,-0.04 0.117,-0.039 4.027,-1.376 c 0.449,-0.153 0.873,-0.23 1.259,-0.23 2.341,0 2.684,2.527 2.723,3.613 v 8.5 z"
               inkscape:connector-curvature="0"
               style="fill:#17506e" />
            <path
               id="path3247"
               d="m 349.699,466.257 c 0,-1.782 -0.318,-2.292 -0.942,-3.487 -1.185,-2.27 -4.012,-2.792 -4.012,-2.792 l -0.568,-0.095 -0.567,-0.095 0.525,-0.233 0.525,-0.234 c 0,0 2.777,-1.383 3.965,-4.008 1.145,-2.531 1.072,-6.243 1.074,-6.272 v -5.758 c 0,-1.012 -0.101,-1.938 -0.301,-2.753 -0.635,-2.606 -2.3,-3.928 -4.946,-3.928 -0.405,0 -0.829,0.031 -1.259,0.095 -0.814,0.119 -1.439,0.314 -1.611,0.372 l -12.298,4.199 v 45.094 l 5.989,-2.045 v -18.432 -0.123 -0.123 l 0.116,-0.04 0.117,-0.04 3.178,-1.085 0.125,-0.043 0.125,-0.043 0.016,0.021 c 0.22,-0.045 0.567,-0.099 0.976,-0.099 1.401,0 3.755,0.607 3.784,4.675 v 10.217 c -0.002,0.058 -0.008,0.236 0,0.487 0.02,0.715 0.128,1.302 0.297,1.644 l 6.271,-2.142 c -0.473,-1.46 -0.565,-4.373 -0.579,-4.961 v -7.973 z m -9.724,-7.776 -4.244,1.451 -0.229,0.078 -0.229,0.078 v -0.241 -0.242 -14.585 -0.124 -0.124 l 0.116,-0.039 0.117,-0.04 3.527,-1.205 c 0.435,-0.132 1.09,-0.286 1.763,-0.286 1.823,0 2.913,1.177 2.913,3.146 v 4.792 c 10e-4,5.731 -3.581,7.278 -3.734,7.341 z"
               inkscape:connector-curvature="0"
               style="fill:#17506e" />
            <path
               id="path3249"
               d="m 392.266,419.76 -5.989,2.045 v 34.383 c 0,5.183 -2.746,6.103 -2.862,6.139 l -3.755,1.282 v 5.548 l 5.802,-2.001 c 4.791,-1.952 6.2,-6.309 6.612,-8.729 0.151,-0.894 0.185,-1.593 0.192,-1.93 0.004,-0.163 0,-0.265 0,-0.286 V 419.76 z"
               inkscape:connector-curvature="0"
               style="fill:#17506e" />
            <polygon
               id="polygon3251"
               points="404.397,440.727 404.516,440.687 404.631,440.646 414.212,437.375 414.212,431.826 404.855,435.021 404.627,435.1 404.397,435.178 404.397,434.937 404.397,434.694 404.397,421.413 404.397,421.288 404.397,421.163 404.517,421.124 404.635,421.085 404.808,421.026 417.157,416.809 417.157,411.26 398.409,417.661 398.409,462.754 417.157,456.353 417.157,450.804 404.855,455.004 404.627,455.082 404.397,455.16 404.397,454.919 404.397,454.677 404.397,440.974 404.397,440.851 "
               style="fill:#17506e" />
            <path
               id="path3253"
               d="m 436.804,405.13 c -3.188,0 -6.683,1.581 -6.718,1.598 -7.223,3.149 -7.714,6.709 -8.073,9.309 l -0.005,0.042 c -0.085,0.609 -0.114,1.11 -0.126,1.424 -0.014,0.363 -0.006,0.623 -0.002,0.746 l 0.002,24.17 c 0,9.728 6.252,9.728 8.241,9.728 1.022,0 11.93,-0.993 11.864,-12.584 l 0,0 0.062,-7.627 -5.229,1.786 v 4.338 c 0,3.569 -1.144,5.596 -2.101,6.665 -0.916,1.023 -1.798,1.354 -1.895,1.388 -0.567,0.199 -1.105,0.301 -1.594,0.301 -0.388,0 -0.755,-0.063 -1.087,-0.191 -2.056,-0.777 -2.26,-3.592 -2.273,-4.436 v -25.012 c -0.002,-0.095 -0.016,-2.387 1.826,-4.186 0.685,-0.668 1.538,-1.18 2.539,-1.523 0.079,-0.027 0.801,-0.269 1.642,-0.269 0.314,0 0.612,0.034 0.886,0.101 0.938,0.229 2.057,0.949 2.057,3.07 v 4.942 l 5.232,-1.786 V 410.6 c 10e-4,-3.63 -1.766,-5.47 -5.248,-5.47 z"
               inkscape:connector-curvature="0"
               style="fill:#17506e" />
            <path
               id="path3255"
               d="m 368.911,428.314 c -0.836,0 -2.14,0.216 -3.601,0.695 l 0,0 -1.155,0.374 0,0 c -6.731,2.299 -8.199,6.75 -8.729,9.463 -0.341,1.754 -0.386,3.124 -0.386,3.137 v 24.273 c -0.01,0.293 -0.006,0.576 0,0.764 0.022,0.847 0.144,2.507 0.697,4.118 0.744,2.165 2.003,3.487 3.744,3.93 0.3,0.076 0.584,0.125 0.873,0.149 0.018,0.003 0.276,0.034 0.734,0.034 0.152,0 0.324,-0.004 0.515,-0.014 l 0.382,-0.021 c 1.651,-0.127 3.372,-0.367 6.197,-1.899 0.087,-0.04 7.671,-3.638 7.671,-15.598 v -20.18 c 0,-2.272 -0.271,-4.192 -0.807,-5.705 -0.78,-2.204 -3.075,-3.52 -6.135,-3.52 z m -1.013,39.198 c -0.057,0.066 -1.217,1.412 -2.221,1.657 -0.566,0.139 -1.078,0.208 -1.519,0.208 -0.818,0 -1.186,-0.233 -1.306,-0.335 -1.712,-1.069 -1.82,-4.204 -1.824,-4.822 v -23.532 c 0.025,-1.063 0.275,-3.704 2.041,-5.347 0.046,-0.056 1.272,-1.454 3.585,-1.454 0.174,0 0.35,0.008 0.519,0.023 l 0.06,-0.002 c 1.139,0.176 2.485,0.96 2.59,3.711 l 0.004,0.015 0.035,0.287 0.002,21.552 c 0,3.573 -0.66,6.278 -1.966,8.039 z"
               inkscape:connector-curvature="0"
               style="fill:#17506e" />
          </g>
          <g
             id="g3257">
            <polygon
               id="polygon3259"
               points="185.319,344.672 185.319,334.83 192.405,332.409 192.405,328.089 185.319,330.509 185.319,320.757 194.29,317.693 194.29,313.372 180.504,318.079 180.504,350.639 194.29,345.931 194.29,341.608 "
               style="fill:#17506e" />
            <polygon
               id="polygon3261"
               points="157.558,325.915 141.899,331.263 141.899,335.585 147.544,333.657 147.544,361.895 152.312,360.267 152.312,332.029 157.558,330.237 "
               style="fill:#17506e" />
            <polygon
               id="polygon3263"
               points="165.094,341.737 171.581,339.521 171.581,353.685 176.396,352.041 176.396,319.481 171.581,321.126 171.581,335.2 165.094,337.415 165.094,323.342 160.278,324.985 160.278,357.546 165.094,355.901 "
               style="fill:#17506e" />
          </g>
        </g>
      </g>
    </g>
  </g>
</svg>
