<?xml version="1.0" encoding="utf-8"?>
<!-- Generator: Adobe Illustrator 17.1.0, SVG Export Plug-In . SVG Version: 6.00 Build 0)  -->
<!DOCTYPE svg PUBLIC "-//W3C//DTD SVG 1.1//EN" "http://www.w3.org/Graphics/SVG/1.1/DTD/svg11.dtd">
<svg version="1.1" id="Layer_1" xmlns="http://www.w3.org/2000/svg" xmlns:xlink="http://www.w3.org/1999/xlink" x="0px" y="0px"
	 viewBox="0 0 179.3 158.7" style="enable-background:new 0 0 179.3 158.7;" xml:space="preserve">
<g>
	<path style="fill:#FFFFFF;" d="M131.1,54.7l6.2-8.8c2.2-3.1,1.2-7.4-2.1-9.7l-25.5-17.8c-3.3-2.3-7.7-1.7-9.9,1.4l-6.2,8.8
		L131.1,54.7z"/>
	<path style="fill:#FFFFFF;" d="M88.2,36.4L50.8,89.3c-1.7,11.3,26.5,31.1,37.4,26.1l37.4-52.9L88.2,36.4z"/>
	<path style="fill:#FFFFFF;" d="M45.1,98.2c-2.4,5.7-5,33-4.1,40.6c0.2,1.5,0.4,2.3,0.9,2.6c2.8,1.9,35-13.7,39.9-17.8
		C70.6,127.3,45,109.4,45.1,98.2z"/>
</g>
</svg>
