<?xml version="1.0" encoding="utf-8"?>
<!-- Generator: Adobe Illustrator 17.1.0, SVG Export Plug-In . SVG Version: 6.00 Build 0)  -->
<!DOCTYPE svg PUBLIC "-//W3C//DTD SVG 1.1//EN" "http://www.w3.org/Graphics/SVG/1.1/DTD/svg11.dtd">
<svg version="1.1" id="Layer_1" xmlns="http://www.w3.org/2000/svg" xmlns:xlink="http://www.w3.org/1999/xlink" x="0px" y="0px"
	 viewBox="0 0 179.3 158.7" style="enable-background:new 0 0 179.3 158.7;" xml:space="preserve">
<path style="fill:#FFFFFF;" d="M154.3,67.2l-14-2.1c-1.1-3.9-2.6-7.6-4.6-11.2l9.8-13.2c0.6-0.8,0.5-2-0.2-2.7L131,23.8
	c-0.7-0.7-1.9-0.8-2.7-0.2l-13.2,9.8c-3.5-1.9-7.1-3.4-10.9-4.5l-2.4-16.3c-0.2-1-1-1.8-2.1-1.8H79.6c-1,0-1.9,0.8-2.1,1.8
	l-2.4,16.3c-3.9,1.1-7.6,2.7-11.2,4.7l-11.4-8.4c-0.8-0.6-2-0.5-2.7,0.2L35.6,39.5c-0.7,0.7-0.8,1.9-0.2,2.7l8.4,11.4
	c-2,3.6-3.6,7.5-4.8,11.5l-14,2.1c-1,0.2-1.8,1-1.8,2.1v20.1c0,1,0.8,1.9,1.8,2.1l14,2.1c1.1,3.9,2.6,7.6,4.6,11.2L33.9,118
	c-0.6,0.8-0.5,2,0.2,2.7l14.2,14.2c0.7,0.7,1.9,0.8,2.7,0.2l13.2-9.8c3.5,1.9,7.1,3.4,10.9,4.5l2.4,16.3c0.2,1,1,1.8,2.1,1.8h20.1
	c1,0,1.9-0.8,2.1-1.8l2.4-16.3c3.9-1.1,7.6-2.7,11.2-4.7l11.4,8.4c0.8,0.6,2,0.5,2.7-0.2l14.2-14.2c0.7-0.7,0.8-1.9,0.2-2.7
	l-8.4-11.4c2-3.6,3.6-7.5,4.8-11.5l14-2.1c1-0.2,1.8-1,1.8-2.1V69.3C156.1,68.3,155.3,67.4,154.3,67.2z M117.6,79.3
	c0,15.4-12.5,27.9-27.9,27.9c-15.4,0-27.9-12.5-27.9-27.9c0-15.4,12.5-27.9,27.9-27.9C105.1,51.4,117.6,63.9,117.6,79.3z"/>
</svg>
