<?xml version="1.0" encoding="utf-8"?>
<!-- Generator: Adobe Illustrator 17.1.0, SVG Export Plug-In . SVG Version: 6.00 Build 0)  -->
<!DOCTYPE svg PUBLIC "-//W3C//DTD SVG 1.1//EN" "http://www.w3.org/Graphics/SVG/1.1/DTD/svg11.dtd">
<svg version="1.1" id="Layer_1" xmlns="http://www.w3.org/2000/svg" xmlns:xlink="http://www.w3.org/1999/xlink" x="0px" y="0px"
	 viewBox="0 0 179.3 158.7" style="enable-background:new 0 0 179.3 158.7;" xml:space="preserve">
<path style="fill:#FFFFFF;" d="M151,118.6l-34.6-32.1c4.5-7.2,7-15.6,7-24.3c0-12.3-4.8-23.8-13.4-32.5
	c-8.7-8.7-20.2-13.4-32.5-13.4S53.7,21,45,29.7c-17.9,17.9-17.9,47,0,64.9c8.7,8.7,20.2,13.4,32.5,13.4c8.7,0,17.1-2.5,24.3-7
	l32.1,34.6c1.8,1.9,4.3,3,7.1,3c3.2,0,6.5-1.4,9.1-4c2.5-2.5,3.9-5.9,3.9-9.2C154,122.8,152.9,120.3,151,118.6z M108,62.1
	c0,8.1-3.2,15.8-8.9,21.5c-5.7,5.7-13.4,8.9-21.5,8.9c0,0,0,0,0,0c-8.1,0-15.8-3.2-21.5-8.9c-11.9-11.9-11.9-31.2,0-43.1
	c5.7-5.7,13.4-8.9,21.5-8.9c8.1,0,15.8,3.2,21.5,8.9S108,54,108,62.1z"/>
</svg>
